{
  "accessors": [
    {
      "bufferView": 0,
      "componentType": 5126,
      "count": 65535,
      "max": [
        103.53421020507813,
        15.505249977111816,
        37.15235900878906
      ],
      "min": [
        88.9063720703125,
        3.928694725036621,
        27.396099090576172
      ],
      "type": "VEC3"
    },
    {
      "bufferView": 0,
      "byteOffset": 786420,
      "componentType": 5126,
      "count": 65535,
      "max": [
        1.0,
        1.0,
        0.3572666645050049
      ],
      "min": [
        -1.0,
        -1.0,
        -1.0
      ],
      "type": "VEC3"
    },
    {
      "bufferView": 1,
      "componentType": 5126,
      "count": 65535,
      "max": [
        0.886274516582489,
        0.9254902005195618,
        0.9215686321258545,
        1.0
      ],
      "min": [
        0.0,
        0.0,
        0.0,
        1.0
      ],
      "type": "VEC4"
    },
    {
      "bufferView": 0,
      "byteOffset": 1572840,
      "componentType": 5126,
      "count": 65535,
      "max": [
        101.54367065429688,
        15.479059219360352,
        34.92609786987305
      ],
      "min": [
        75.49642181396484,
        2.069112777709961,
        27.396099090576172
      ],
      "type": "VEC3"
    },
    {
      "bufferView": 0,
      "byteOffset": 2359260,
      "componentType": 5126,
      "count": 65535,
      "max": [
        0.9999685287475586,
        0.9999685287475586,
        0.644544243812561
      ],
      "min": [
        -1.0,
        -1.0,
        -1.0
      ],
      "type": "VEC3"
    },
    {
      "bufferView": 1,
      "byteOffset": 1048560,
      "componentType": 5126,
      "count": 65535,
      "max": [
        0.7647058963775635,
        0.8078431487083435,
        0.8078431487083435,
        1.0
      ],
      "min": [
        0.0,
        0.0,
        0.0,
        1.0
      ],
      "type": "VEC4"
    },
    {
      "bufferView": 0,
      "byteOffset": 3145680,
      "componentType": 5126,
      "count": 65535,
      "max": [
        100.49601745605469,
        16.081459045410156,
        32.47721481323242
      ],
      "min": [
        75.49642181396484,
        2.6191301345825195,
        18.62201499938965
      ],
      "type": "VEC3"
    },
    {
      "bufferView": 0,
      "byteOffset": 3932100,
      "componentType": 5126,
      "count": 65535,
      "max": [
        0.9999685287475586,
        0.9999685287475586,
        0.5700656771659851
      ],
      "min": [
        -1.0,
        -1.0,
        -1.0
      ],
      "type": "VEC3"
    },
    {
      "bufferView": 1,
      "byteOffset": 2097120,
      "componentType": 5126,
      "count": 65535,
      "max": [
        0.8588235378265381,
        0.8980392217636108,
        0.9176470637321472,
        1.0
      ],
      "min": [
        0.0,
        0.0,
        0.0,
        1.0
      ],
      "type": "VEC4"
    },
    {
      "bufferView": 0,
      "byteOffset": 4718520,
      "componentType": 5126,
      "count": 65535,
      "max": [
        88.89327239990234,
        16.107650756835938,
        27.38300323486328
      ],
      "min": [
        41.9715576171875,
        3.928694725036621,
        14.117111206054688
      ],
      "type": "VEC3"
    },
    {
      "bufferView": 0,
      "byteOffset": 5504940,
      "componentType": 5126,
      "count": 65535,
      "max": [
        1.0,
        0.9999685287475586,
        0.7063047289848328
      ],
      "min": [
        -1.0,
        -1.0,
        -0.9999685287475586
      ],
      "type": "VEC3"
    },
    {
      "bufferView": 1,
      "byteOffset": 3145680,
      "componentType": 5126,
      "count": 65535,
      "max": [
        0.8078431487083435,
        0.8313725590705872,
        0.8392156958580017,
        1.0
      ],
      "min": [
        0.0,
        0.0,
        0.0,
        1.0
      ],
      "type": "VEC4"
    },
    {
      "bufferView": 0,
      "byteOffset": 6291360,
      "componentType": 5126,
      "count": 65535,
      "max": [
        48.66343688964844,
        17.325546264648438,
        20.429214477539063
      ],
      "min": [
        21.85664176940918,
        3.928694725036621,
        13.986154556274414
      ],
      "type": "VEC3"
    },
    {
      "bufferView": 0,
      "byteOffset": 7077780,
      "componentType": 5126,
      "count": 65535,
      "max": [
        0.9999685287475586,
        0.9999685287475586,
        0.6908461451530457
      ],
      "min": [
        -1.0,
        -1.0,
        -1.0
      ],
      "type": "VEC3"
    },
    {
      "bufferView": 1,
      "byteOffset": 4194240,
      "componentType": 5126,
      "count": 65535,
      "max": [
        0.8274509906768799,
        0.843137264251709,
        0.8666666746139526,
        1.0
      ],
      "min": [
        0.0,
        0.0,
        0.0,
        1.0
      ],
      "type": "VEC4"
    },
    {
      "bufferView": 0,
      "byteOffset": 7864200,
      "componentType": 5126,
      "count": 65535,
      "max": [
        48.59796142578125,
        18.137475967407227,
        25.18293571472168
      ],
      "min": [
        7.320468902587891,
        0.0,
        5.382312774658203
      ],
      "type": "VEC3"
    },
    {
      "bufferView": 0,
      "byteOffset": 8650620,
      "componentType": 5126,
      "count": 65535,
      "max": [
        1.0,
        0.9999685287475586,
        0.7070844769477844
      ],
      "min": [
        -0.9999685287475586,
        -1.0,
        -1.0
      ],
      "type": "VEC3"
    },
    {
      "bufferView": 1,
      "byteOffset": 5242800,
      "componentType": 5126,
      "count": 65535,
      "max": [
        0.8078431487083435,
        0.8156862854957581,
        0.800000011920929,
        1.0
      ],
      "min": [
        0.0,
        0.0,
        0.0,
        1.0
      ],
      "type": "VEC4"
    },
    {
      "bufferView": 0,
      "byteOffset": 9437040,
      "componentType": 5126,
      "count": 65535,
      "max": [
        35.25349044799805,
        19.054170608520508,
        13.973058700561523
      ],
      "min": [
        8.446695327758789,
        17.338642120361328,
        0.5893044471740723
      ],
      "type": "VEC3"
    },
    {
      "bufferView": 0,
      "byteOffset": 10223460,
      "componentType": 5126,
      "count": 65535,
      "max": [
        1.0,
        0.9621822237968445,
        0.682432234287262
      ],
      "min": [
        -0.9977088570594788,
        -1.0,
        -0.999937117099762
      ],
      "type": "VEC3"
    },
    {
      "bufferView": 1,
      "byteOffset": 6291360,
      "componentType": 5126,
      "count": 65535,
      "max": [
        0.729411780834198,
        0.7882353067398071,
        0.8392156958580017,
        1.0
      ],
      "min": [
        0.0,
        0.0,
        0.007843137718737125,
        1.0
      ],
      "type": "VEC4"
    },
    {
      "bufferView": 0,
      "byteOffset": 11009880,
      "componentType": 5126,
      "count": 65535,
      "max": [
        48.66343688964844,
        19.198223114013672,
        13.973058700561523
      ],
      "min": [
        0.0,
        10.633667945861816,
        0.0
      ],
      "type": "VEC3"
    },
    {
      "bufferView": 0,
      "byteOffset": 11796300,
      "componentType": 5126,
      "count": 65535,
      "max": [
        1.0,
        0.9988681674003601,
        0.7451873421669006
      ],
      "min": [
        -0.9938837289810181,
        -1.0,
        -1.0
      ],
      "type": "VEC3"
    },
    {
      "bufferView": 1,
      "byteOffset": 7339920,
      "componentType": 5126,
      "count": 65535,
      "max": [
        0.7411764860153198,
        0.7960784435272217,
        0.843137264251709,
        1.0
      ],
      "min": [
        0.0,
        0.0,
        0.0,
        1.0
      ],
      "type": "VEC4"
    },
    {
      "bufferView": 0,
      "byteOffset": 12582720,
      "componentType": 5126,
      "count": 65535,
      "max": [
        21.84354591369629,
        17.325546264648438,
        13.973058700561523
      ],
      "min": [
        3.103670120239258,
        0.5631132125854492,
        6.993077278137207
      ],
      "type": "VEC3"
    },
    {
      "bufferView": 0,
      "byteOffset": 13369140,
      "componentType": 5126,
      "count": 65535,
      "max": [
        1.0,
        1.0,
        0.6663100123405457
      ],
      "min": [
        -0.9984603524208069,
        -1.0,
        -1.0
      ],
      "type": "VEC3"
    },
    {
      "bufferView": 1,
      "byteOffset": 8388480,
      "componentType": 5126,
      "count": 65535,
      "max": [
        0.9333333373069763,
        0.9490196108818054,
        0.9607843160629272,
        1.0
      ],
      "min": [
        0.0,
        0.0,
        0.0,
        1.0
      ],
      "type": "VEC4"
    },
    {
      "bufferView": 0,
      "byteOffset": 14155560,
      "componentType": 5126,
      "count": 65535,
      "max": [
        35.240394592285156,
        17.325546264648438,
        13.973058700561523
      ],
      "min": [
        0.13095664978027344,
        0.8250255584716797,
        3.2739124298095703
      ],
      "type": "VEC3"
    },
    {
      "bufferView": 0,
      "byteOffset": 14941980,
      "componentType": 5126,
      "count": 65535,
      "max": [
        1.0,
        1.0,
        0.6894130706787109
      ],
      "min": [
        -0.9992135763168335,
        -1.0,
        -1.0
      ],
      "type": "VEC3"
    },
    {
      "bufferView": 1,
      "byteOffset": 9437040,
      "componentType": 5126,
      "count": 65535,
      "max": [
        0.9686274528503418,
        0.9960784316062927,
        0.9686274528503418,
        1.0
      ],
      "min": [
        0.0,
        0.0,
        0.0,
        1.0
      ],
      "type": "VEC4"
    },
    {
      "bufferView": 0,
      "byteOffset": 15728400,
      "componentType": 5126,
      "count": 65535,
      "max": [
        37.29641342163086,
        17.325546264648438,
        13.973058700561523
      ],
      "min": [
        21.85664176940918,
        0.8905038833618164,
        5.500173568725586
      ],
      "type": "VEC3"
    },
    {
      "bufferView": 0,
      "byteOffset": 16514820,
      "componentType": 5126,
      "count": 65535,
      "max": [
        1.0,
        1.0,
        0.6663100123405457
      ],
      "min": [
        -0.9998740553855896,
        -1.0,
        -1.0
      ],
      "type": "VEC3"
    },
    {
      "bufferView": 1,
      "byteOffset": 10485600,
      "componentType": 5126,
      "count": 65535,
      "max": [
        0.886274516582489,
        0.9019607901573181,
        0.8980392217636108,
        1.0
      ],
      "min": [
        0.0,
        0.0,
        0.0,
        1.0
      ],
      "type": "VEC4"
    },
    {
      "bufferView": 0,
      "byteOffset": 17301240,
      "componentType": 5126,
      "count": 65535,
      "max": [
        48.66343688964844,
        17.325546264648438,
        20.2851619720459
      ],
      "min": [
        21.922119140625,
        3.928694725036621,
        7.791912078857422
      ],
      "type": "VEC3"
    },
    {
      "bufferView": 0,
      "byteOffset": 18087660,
      "componentType": 5126,
      "count": 65535,
      "max": [
        0.9998740553855896,
        0.9998425841331482,
        0.5949758291244507
      ],
      "min": [
        -0.9998425841331482,
        -1.0,
        -1.0
      ],
      "type": "VEC3"
    },
    {
      "bufferView": 1,
      "byteOffset": 11534160,
      "componentType": 5126,
      "count": 65535,
      "max": [
        0.7764706015586853,
        0.8156862854957581,
        0.8470588326454163,
        1.0
      ],
      "min": [
        0.0,
        0.0,
        0.0,
        1.0
      ],
      "type": "VEC4"
    },
    {
      "bufferView": 0,
      "byteOffset": 18874080,
      "componentType": 5126,
      "count": 65535,
      "max": [
        62.073387145996094,
        18.752971649169922,
        24.659109115600586
      ],
      "min": [
        11.0789213180542,
        3.928694725036621,
        8.774085998535156
      ],
      "type": "VEC3"
    },
    {
      "bufferView": 0,
      "byteOffset": 19660500,
      "componentType": 5126,
      "count": 65535,
      "max": [
        1.0,
        0.9946886301040649,
        0.6802937388420105
      ],
      "min": [
        -0.9964600801467896,
        -1.0,
        -1.0
      ],
      "type": "VEC3"
    },
    {
      "bufferView": 1,
      "byteOffset": 12582720,
      "componentType": 5126,
      "count": 65535,
      "max": [
        0.7333333492279053,
        0.7843137383460999,
        0.8078431487083435,
        1.0
      ],
      "min": [
        0.0,
        0.0,
        0.0,
        1.0
      ],
      "type": "VEC4"
    },
    {
      "bufferView": 0,
      "byteOffset": 20446920,
      "componentType": 5126,
      "count": 65535,
      "max": [
        75.48332977294922,
        17.548171997070313,
        27.38300323486328
      ],
      "min": [
        48.67653274536133,
        0.7595481872558594,
        9.219337463378906
      ],
      "type": "VEC3"
    },
    {
      "bufferView": 0,
      "byteOffset": 21233340,
      "componentType": 5126,
      "count": 65535,
      "max": [
        1.0,
        1.0,
        0.7139036059379578
      ],
      "min": [
        -1.0,
        -1.0,
        -1.0
      ],
      "type": "VEC3"
    },
    {
      "bufferView": 1,
      "byteOffset": 13631280,
      "componentType": 5126,
      "count": 65535,
      "max": [
        0.8588235378265381,
        0.8901960849761963,
        0.9019607901573181,
        1.0
      ],
      "min": [
        0.0,
        0.0,
        0.0,
        1.0
      ],
      "type": "VEC4"
    },
    {
      "bufferView": 0,
      "byteOffset": 22019760,
      "componentType": 5126,
      "count": 65535,
      "max": [
        62.073387145996094,
        17.07672882080078,
        20.67803192138672
      ],
      "min": [
        48.67653274536133,
        10.633667945861816,
        13.986154556274414
      ],
      "type": "VEC3"
    },
    {
      "bufferView": 0,
      "byteOffset": 22806180,
      "componentType": 5126,
      "count": 65535,
      "max": [
        1.0,
        0.9952159523963928,
        0.6494655013084412
      ],
      "min": [
        -0.999496579170227,
        -1.0,
        -1.0
      ],
      "type": "VEC3"
    },
    {
      "bufferView": 1,
      "byteOffset": 14679840,
      "componentType": 5126,
      "count": 65535,
      "max": [
        0.8039215803146362,
        0.8470588326454163,
        0.8745098114013672,
        1.0
      ],
      "min": [
        0.0,
        0.0,
        0.0,
        1.0
      ],
      "type": "VEC4"
    },
    {
      "bufferView": 0,
      "byteOffset": 23592600,
      "componentType": 5126,
      "count": 65535,
      "max": [
        68.77835845947266,
        16.801719665527344,
        27.09490203857422
      ],
      "min": [
        48.67653274536133,
        3.928694725036621,
        13.986154556274414
      ],
      "type": "VEC3"
    },
    {
      "bufferView": 0,
      "byteOffset": 24379020,
      "componentType": 5126,
      "count": 65535,
      "max": [
        1.0,
        1.0,
        0.6827763319015503
      ],
      "min": [
        -1.0,
        -1.0,
        -1.0
      ],
      "type": "VEC3"
    },
    {
      "bufferView": 1,
      "byteOffset": 15728400,
      "componentType": 5126,
      "count": 65535,
      "max": [
        0.8313725590705872,
        0.8745098114013672,
        0.8588235378265381,
        1.0
      ],
      "min": [
        0.0,
        0.0,
        0.0,
        1.0
      ],
      "type": "VEC4"
    },
    {
      "bufferView": 0,
      "byteOffset": 25165440,
      "componentType": 5126,
      "count": 65535,
      "max": [
        75.48332977294922,
        17.050537109375,
        23.755510330200195
      ],
      "min": [
        62.08647918701172,
        3.928694725036621,
        13.986154556274414
      ],
      "type": "VEC3"
    },
    {
      "bufferView": 0,
      "byteOffset": 25951860,
      "componentType": 5126,
      "count": 65535,
      "max": [
        1.0,
        1.0,
        0.6705814599990845
      ],
      "min": [
        -0.9999685287475586,
        -1.0,
        -1.0
      ],
      "type": "VEC3"
    },
    {
      "bufferView": 1,
      "byteOffset": 16776960,
      "componentType": 5126,
      "count": 65535,
      "max": [
        0.8313725590705872,
        0.843137264251709,
        0.8627451062202454,
        1.0
      ],
      "min": [
        0.0,
        0.0,
        0.0,
        1.0
      ],
      "type": "VEC4"
    },
    {
      "bufferView": 0,
      "byteOffset": 26738280,
      "componentType": 5126,
      "count": 65535,
      "max": [
        75.48332977294922,
        16.893388748168945,
        27.38300323486328
      ],
      "min": [
        62.08647918701172,
        3.928694725036621,
        20.69112777709961
      ],
      "type": "VEC3"
    },
    {
      "bufferView": 0,
      "byteOffset": 27524700,
      "componentType": 5126,
      "count": 65535,
      "max": [
        1.0,
        0.9999685287475586,
        0.668077826499939
      ],
      "min": [
        -1.0,
        -1.0,
        -1.0
      ],
      "type": "VEC3"
    },
    {
      "bufferView": 1,
      "byteOffset": 17825520,
      "componentType": 5126,
      "count": 65535,
      "max": [
        0.9098039269447327,
        0.95686274766922,
        0.9764705896377563,
        1.0
      ],
      "min": [
        0.0,
        0.0,
        0.0,
        1.0
      ],
      "type": "VEC4"
    },
    {
      "bufferView": 0,
      "byteOffset": 28311120,
      "componentType": 5126,
      "count": 65535,
      "max": [
        91.65645599365234,
        16.487422943115234,
        32.51649856567383
      ],
      "min": [
        59.244720458984375,
        2.776277542114258,
        15.05999755859375
      ],
      "type": "VEC3"
    },
    {
      "bufferView": 0,
      "byteOffset": 29097540,
      "componentType": 5126,
      "count": 65535,
      "max": [
        1.0,
        1.0,
        0.7043555378913879
      ],
      "min": [
        -0.9999685287475586,
        -1.0,
        -1.0
      ],
      "type": "VEC3"
    },
    {
      "bufferView": 1,
      "byteOffset": 18874080,
      "componentType": 5126,
      "count": 65535,
      "max": [
        0.8392156958580017,
        0.8901960849761963,
        0.9019607901573181,
        1.0
      ],
      "min": [
        0.0,
        0.0,
        0.0,
        1.0
      ],
      "type": "VEC4"
    },
    {
      "bufferView": 0,
      "byteOffset": 29883960,
      "componentType": 5126,
      "count": 50284,
      "max": [
        88.89327239990234,
        11.681320190429688,
        27.38300323486328
      ],
      "min": [
        75.49642181396484,
        3.928694725036621,
        22.82571792602539
      ],
      "type": "VEC3"
    },
    {
      "bufferView": 0,
      "byteOffset": 30487368,
      "componentType": 5126,
      "count": 50284,
      "max": [
        1.0,
        1.0,
        0.6562751531600952
      ],
      "min": [
        -0.9999369978904724,
        -1.0,
        -1.0
      ],
      "type": "VEC3"
    },
    {
      "bufferView": 1,
      "byteOffset": 19922640,
      "componentType": 5126,
      "count": 50284,
      "max": [
        0.8313725590705872,
        0.8666666746139526,
        0.8784313797950745,
        1.0
      ],
      "min": [
        0.0,
        0.0,
        0.0,
        1.0
      ],
      "type": "VEC4"
    }
  ],
  "asset": {
    "extras": {
      "author": "VibrantNebula (https://sketchfab.com/vibrantnebula)",
      "license": "CC-BY-NC-SA-4.0 (http://creativecommons.org/licenses/by-nc-sa/4.0/)",
      "source": "https://sketchfab.com/3d-models/aleppo-destroyed-building-front-95df4419b0974bae86648b67d77bdcd3",
      "title": "Aleppo: Destroyed Building Front"
    },
    "generator": "Sketchfab-12.66.0",
    "version": "2.0"
  },
  "bufferViews": [
    {
      "buffer": 0,
      "byteLength": 31090776,
      "byteStride": 12,
      "name": "floatBufferViews",
      "target": 34962
    },
    {
      "buffer": 0,
      "byteLength": 20727184,
      "byteOffset": 31090776,
      "byteStride": 16,
      "name": "floatBufferViews",
      "target": 34962
    }
  ],
  "buffers": [
    {
      "byteLength": 51817960,
      "uri": "scene.bin"
    }
  ],
  "extensionsUsed": [
    "KHR_materials_unlit"
  ],
  "materials": [
    {
      "extensions": {
        "KHR_materials_unlit": {}
      },
      "name": "Scene_-_Root",
      "pbrMetallicRoughness": {
        "metallicFactor": 0.0
      }
    }
  ],
  "meshes": [
    {
      "name": "Object_0",
      "primitives": [
        {
          "attributes": {
            "COLOR_0": 2,
            "NORMAL": 1,
            "POSITION": 0
          },
          "material": 0,
          "mode": 0
        }
      ]
    },
    {
      "name": "Object_1",
      "primitives": [
        {
          "attributes": {
            "COLOR_0": 5,
            "NORMAL": 4,
            "POSITION": 3
          },
          "material": 0,
          "mode": 0
        }
      ]
    },
    {
      "name": "Object_2",
      "primitives": [
        {
          "attributes": {
            "COLOR_0": 8,
            "NORMAL": 7,
            "POSITION": 6
          },
          "material": 0,
          "mode": 0
        }
      ]
    },
    {
      "name": "Object_3",
      "primitives": [
        {
          "attributes": {
            "COLOR_0": 11,
            "NORMAL": 10,
            "POSITION": 9
          },
          "material": 0,
          "mode": 0
        }
      ]
    },
    {
      "name": "Object_4",
      "primitives": [
        {
          "attributes": {
            "COLOR_0": 14,
            "NORMAL": 13,
            "POSITION": 12
          },
          "material": 0,
          "mode": 0
        }
      ]
    },
    {
      "name": "Object_5",
      "primitives": [
        {
          "attributes": {
            "COLOR_0": 17,
            "NORMAL": 16,
            "POSITION": 15
          },
          "material": 0,
          "mode": 0
        }
      ]
    },
    {
      "name": "Object_6",
      "primitives": [
        {
          "attributes": {
            "COLOR_0": 20,
            "NORMAL": 19,
            "POSITION": 18
          },
          "material": 0,
          "mode": 0
        }
      ]
    },
    {
      "name": "Object_7",
      "primitives": [
        {
          "attributes": {
            "COLOR_0": 23,
            "NORMAL": 22,
            "POSITION": 21
          },
          "material": 0,
          "mode": 0
        }
      ]
    },
    {
      "name": "Object_8",
      "primitives": [
        {
          "attributes": {
            "COLOR_0": 26,
            "NORMAL": 25,
            "POSITION": 24
          },
          "material": 0,
          "mode": 0
        }
      ]
    },
    {
      "name": "Object_9",
      "primitives": [
        {
          "attributes": {
            "COLOR_0": 29,
            "NORMAL": 28,
            "POSITION": 27
          },
          "material": 0,
          "mode": 0
        }
      ]
    },
    {
      "name": "Object_10",
      "primitives": [
        {
          "attributes": {
            "COLOR_0": 32,
            "NORMAL": 31,
            "POSITION": 30
          },
          "material": 0,
          "mode": 0
        }
      ]
    },
    {
      "name": "Object_11",
      "primitives": [
        {
          "attributes": {
            "COLOR_0": 35,
            "NORMAL": 34,
            "POSITION": 33
          },
          "material": 0,
          "mode": 0
        }
      ]
    },
    {
      "name": "Object_12",
      "primitives": [
        {
          "attributes": {
            "COLOR_0": 38,
            "NORMAL": 37,
            "POSITION": 36
          },
          "material": 0,
          "mode": 0
        }
      ]
    },
    {
      "name": "Object_13",
      "primitives": [
        {
          "attributes": {
            "COLOR_0": 41,
            "NORMAL": 40,
            "POSITION": 39
          },
          "material": 0,
          "mode": 0
        }
      ]
    },
    {
      "name": "Object_14",
      "primitives": [
        {
          "attributes": {
            "COLOR_0": 44,
            "NORMAL": 43,
            "POSITION": 42
          },
          "material": 0,
          "mode": 0
        }
      ]
    },
    {
      "name": "Object_15",
      "primitives": [
        {
          "attributes": {
            "COLOR_0": 47,
            "NORMAL": 46,
            "POSITION": 45
          },
          "material": 0,
          "mode": 0
        }
      ]
    },
    {
      "name": "Object_16",
      "primitives": [
        {
          "attributes": {
            "COLOR_0": 50,
            "NORMAL": 49,
            "POSITION": 48
          },
          "material": 0,
          "mode": 0
        }
      ]
    },
    {
      "name": "Object_17",
      "primitives": [
        {
          "attributes": {
            "COLOR_0": 53,
            "NORMAL": 52,
            "POSITION": 51
          },
          "material": 0,
          "mode": 0
        }
      ]
    },
    {
      "name": "Object_18",
      "primitives": [
        {
          "attributes": {
            "COLOR_0": 56,
            "NORMAL": 55,
            "POSITION": 54
          },
          "material": 0,
          "mode": 0
        }
      ]
    },
    {
      "name": "Object_19",
      "primitives": [
        {
          "attributes": {
            "COLOR_0": 59,
            "NORMAL": 58,
            "POSITION": 57
          },
          "material": 0,
          "mode": 0
        }
      ]
    }
  ],
  "nodes": [
    {
      "children": [
        1
      ],
      "matrix": [
        0.08788489717741443,
        -9.364986211572851e-05,
        0.021388236504331748,
        0.0,
        -0.0004863706365867103,
        -0.09043459537688925,
        0.0016025372940258957,
        0.0,
        0.021382911300980467,
        -0.0016720980155166625,
        -0.08787033542165457,
        0.0,
        -5.161908149719238,
        22.821992874145504,
        20.64443397521973,
        1.0
      ],
      "name": "Sketchfab_model"
    },
    {
      "children": [
        2,
        3,
        4,
        5,
        6,
        7,
        8,
        9,
        10,
        11,
        12,
        13,
        14,
        15,
        16,
        17,
        18,
        19,
        20,
        21
      ],
      "matrix": [
        1.0,
        0.0,
        0.0,
        0.0,
        0.0,
        1.0,
        0.0,
        0.0,
        0.0,
        0.0,
        1.0,
        0.0,
        -24.4146671295166,
        -12.323426246643066,
        6.478229522705078,
        1.0
      ],
      "name": "1mill.ply.cleaner.gles"
    },
    {
      "mesh": 0,
      "name": "Object_2"
    },
    {
      "mesh": 1,
      "name": "Object_3"
    },
    {
      "mesh": 2,
      "name": "Object_4"
    },
    {
      "mesh": 3,
      "name": "Object_5"
    },
    {
      "mesh": 4,
      "name": "Object_6"
    },
    {
      "mesh": 5,
      "name": "Object_7"
    },
    {
      "mesh": 6,
      "name": "Object_8"
    },
    {
      "mesh": 7,
      "name": "Object_9"
    },
    {
      "mesh": 8,
      "name": "Object_10"
    },
    {
      "mesh": 9,
      "name": "Object_11"
    },
    {
      "mesh": 10,
      "name": "Object_12"
    },
    {
      "mesh": 11,
      "name": "Object_13"
    },
    {
      "mesh": 12,
      "name": "Object_14"
    },
    {
      "mesh": 13,
      "name": "Object_15"
    },
    {
      "mesh": 14,
      "name": "Object_16"
    },
    {
      "mesh": 15,
      "name": "Object_17"
    },
    {
      "mesh": 16,
      "name": "Object_18"
    },
    {
      "mesh": 17,
      "name": "Object_19"
    },
    {
      "mesh": 18,
      "name": "Object_20"
    },
    {
      "mesh": 19,
      "name": "Object_21"
    }
  ],
  "scene": 0,
  "scenes": [
    {
      "name": "Sketchfab_Scene",
      "nodes": [
        0
      ]
    }
  ]
}
