{
  "accessors": [
    {
      "bufferView": 2,
      "componentType": 5126,
      "count": 14719,
      "max": [
        8.573349952697754,
        16.773700714111328,
        8.746939659118652
      ],
      "min": [
        -8.573349952697754,
        -16.773700714111328,
        -9.104630470275879
      ],
      "type": "VEC3"
    },
    {
      "bufferView": 2,
      "byteOffset": 176628,
      "componentType": 5126,
      "count": 14719,
      "max": [
        1.0,
        1.0,
        1.0
      ],
      "min": [
        -1.0,
        -1.0,
        -1.0
      ],
      "type": "VEC3"
    },
    {
      "bufferView": 1,
      "componentType": 5126,
      "count": 14719,
      "max": [
        0.9905629754066467,
        0.9960060119628906
      ],
      "min": [
        0.002926829969510436,
        0.004495978355407715
      ],
      "type": "VEC2"
    },
    {
      "bufferView": 0,
      "componentType": 5125,
      "count": 26244,
      "type": "SCALAR"
    },
    {
      "bufferView": 2,
      "byteOffset": 353256,
      "componentType": 5126,
      "count": 1038,
      "max": [
        7.523129940032959,
        14.305100440979004,
        9.104630470275879
      ],
      "min": [
        -7.779699802398682,
        -13.314900398254395,
        3.81754994392395
      ],
      "type": "VEC3"
    },
    {
      "bufferView": 2,
      "byteOffset": 365712,
      "componentType": 5126,
      "count": 1038,
      "max": [
        1.0,
        0.9771167635917664,
        1.0
      ],
      "min": [
        -1.0,
        -0.9805845618247986,
        -1.0
      ],
      "type": "VEC3"
    },
    {
      "bufferView": 1,
      "byteOffset": 117752,
      "componentType": 5126,
      "count": 1038,
      "max": [
        0.995389997959137,
        13.045700073242188
      ],
      "min": [
        0.0130300996825099,
        -4.166170120239258
      ],
      "type": "VEC2"
    },
    {
      "bufferView": 0,
      "byteOffset": 104976,
      "componentType": 5125,
      "count": 2544,
      "type": "SCALAR"
    },
    {
      "bufferView": 2,
      "byteOffset": 378168,
      "componentType": 5126,
      "count": 70,
      "max": [
        3.2712900638580322,
        -2.6294400691986084,
        4.405920028686523
      ],
      "min": [
        -3.5278799533843994,
        -12.379199981689453,
        -4.212639808654785
      ],
      "type": "VEC3"
    },
    {
      "bufferView": 2,
      "byteOffset": 379008,
      "componentType": 5126,
      "count": 70,
      "max": [
        0.4720163345336914,
        0.3304128050804138,
        0.4782985746860504
      ],
      "min": [
        -0.4720163345336914,
        -1.0,
        -0.9462968707084656
      ],
      "type": "VEC3"
    },
    {
      "bufferView": 1,
      "byteOffset": 126056,
      "componentType": 5126,
      "count": 70,
      "max": [
        0.5367929935455322,
        0.9495611190795898
      ],
      "min": [
        0.5051289796829224,
        0.8862339854240417
      ],
      "type": "VEC2"
    },
    {
      "bufferView": 0,
      "byteOffset": 115152,
      "componentType": 5125,
      "count": 126,
      "type": "SCALAR"
    }
  ],
  "asset": {
    "extras": {
      "author": "A-Time (https://sketchfab.com/polapatsungpetch)",
      "license": "CC-BY-4.0 (http://creativecommons.org/licenses/by/4.0/)",
      "source": "https://sketchfab.com/3d-models/blue-archive-vehicle-helmet-gangs-b79df614b4034cd6ad6e83339fa5ab37",
      "title": "[Blue Archive Vehicle] - Helmet Gangs"
    },
    "generator": "Sketchfab-16.65.0",
    "version": "2.0"
  },
  "bufferViews": [
    {
      "buffer": 0,
      "byteLength": 115656,
      "name": "floatBufferViews",
      "target": 34963
    },
    {
      "buffer": 0,
      "byteLength": 126616,
      "byteOffset": 115656,
      "byteStride": 8,
      "name": "floatBufferViews",
      "target": 34962
    },
    {
      "buffer": 0,
      "byteLength": 379848,
      "byteOffset": 242272,
      "byteStride": 12,
      "name": "floatBufferViews",
      "target": 34962
    }
  ],
  "buffers": [
    {
      "byteLength": 622120,
      "uri": "scene.bin"
    }
  ],
  "extensionsUsed": [
    "KHR_materials_specular"
  ],
  "images": [
    {
      "uri": "textures/Wheel1Mtl_baseColor.png"
    },
    {
      "uri": "textures/Rtrack1Mtl_baseColor.png"
    }
  ],
  "materials": [
    {
      "doubleSided": true,
      "extensions": {
        "KHR_materials_specular": {
          "specularColorFactor": [
            1.0,
            1.0,
            1.0
          ],
          "specularFactor": 1.0
        }
      },
      "name": "Wheel1Mtl",
      "pbrMetallicRoughness": {
        "baseColorTexture": {
          "index": 0
        },
        "metallicFactor": 0.0,
        "roughnessFactor": 0.495025
      }
    },
    {
      "doubleSided": true,
      "extensions": {
        "KHR_materials_specular": {
          "specularColorFactor": [
            1.0,
            1.0,
            1.0
          ],
          "specularFactor": 1.0
        }
      },
      "name": "Rtrack1Mtl",
      "pbrMetallicRoughness": {
        "baseColorTexture": {
          "index": 1
        },
        "metallicFactor": 0.0,
        "roughnessFactor": 0.495025
      }
    },
    {
      "doubleSided": true,
      "extensions": {
        "KHR_materials_specular": {
          "specularColorFactor": [
            1.0,
            1.0,
            1.0
          ],
          "specularFactor": 1.0
        }
      },
      "name": "Turretlight1Mtl",
      "pbrMetallicRoughness": {
        "baseColorTexture": {
          "index": 0
        },
        "metallicFactor": 0.0
      }
    }
  ],
  "meshes": [
    {
      "name": "Object_0",
      "primitives": [
        {
          "attributes": {
            "NORMAL": 1,
            "POSITION": 0,
            "TEXCOORD_0": 2
          },
          "indices": 3,
          "material": 0,
          "mode": 4
        }
      ]
    },
    {
      "name": "Object_1",
      "primitives": [
        {
          "attributes": {
            "NORMAL": 5,
            "POSITION": 4,
            "TEXCOORD_0": 6
          },
          "indices": 7,
          "material": 1,
          "mode": 4
        }
      ]
    },
    {
      "name": "Object_2",
      "primitives": [
        {
          "attributes": {
            "NORMAL": 9,
            "POSITION": 8,
            "TEXCOORD_0": 10
          },
          "indices": 11,
          "material": 2,
          "mode": 4
        }
      ]
    }
  ],
  "nodes": [
    {
      "children": [
        1
      ],
      "matrix": [
        2.220446049250313e-16,
        -2.220446049250313e-16,
        1.0,
        0.0,
        1.0,
        4.930380657631324e-32,
        -2.220446049250313e-16,
        0.0,
        0.0,
        1.0,
        2.220446049250313e-16,
        0.0,
        0.0,
        0.0,
        0.0,
        1.0
      ],
      "name": "Sketchfab_model"
    },
    {
      "children": [
        2
      ],
      "name": "root"
    },
    {
      "children": [
        3
      ],
      "matrix": [
        1.0,
        0.0,
        0.0,
        0.0,
        0.0,
        2.220446049250313e-16,
        1.0,
        0.0,
        0.0,
        -1.0,
        2.220446049250313e-16,
        0.0,
        0.0,
        0.0,
        0.0,
        1.0
      ],
      "name": "GLTF_SceneRootNode"
    },
    {
      "children": [
        4,
        5,
        6
      ],
      "matrix": [
        1.0,
        0.0,
        0.0,
        0.0,
        0.0,
        0.0,
        1.0,
        0.0,
        0.0,
        -1.0,
        0.0,
        0.0,
        0.0,
        0.0,
        0.0,
        1.0
      ],
      "name": "mcrusader_0"
    },
    {
      "mesh": 0,
      "name": "Object_4"
    },
    {
      "mesh": 1,
      "name": "Object_5"
    },
    {
      "mesh": 2,
      "name": "Object_6"
    }
  ],
  "samplers": [
    {
      "magFilter": 9729,
      "minFilter": 9987,
      "wrapS": 10497,
      "wrapT": 10497
    }
  ],
  "scene": 0,
  "scenes": [
    {
      "name": "Sketchfab_Scene",
      "nodes": [
        0
      ]
    }
  ],
  "textures": [
    {
      "sampler": 0,
      "source": 0
    },
    {
      "sampler": 0,
      "source": 1
    }
  ]
}
