{
  "accessors": [
    {
      "bufferView": 2,
      "componentType": 5126,
      "count": 68,
      "max": [
        0.8420397043228149,
        0.6466459631919861,
        2.766901969909668
      ],
      "min": [
        -0.8420397043228149,
        0.4238922894001007,
        2.6897776126861572
      ],
      "type": "VEC3"
    },
    {
      "bufferView": 2,
      "byteOffset": 816,
      "componentType": 5126,
      "count": 68,
      "max": [
        0.5741448998451233,
        0.29179859161376953,
        0.9989363551139832
      ],
      "min": [
        -0.5728693604469299,
        -0.2038591206073761,
        0.8151748180389404
      ],
      "type": "VEC3"
    },
    {
      "bufferView": 1,
      "componentType": 5126,
      "count": 68,
      "max": [
        1.6292834281921387,
        0.9935187101364136
      ],
      "min": [
        1.515885591506958,
        0.8825204372406006
      ],
      "type": "VEC2"
    },
    {
      "bufferView": 1,
      "byteOffset": 544,
      "componentType": 5126,
      "count": 68,
      "max": [
        0.0,
        0.0
      ],
      "min": [
        0.0,
        0.0
      ],
      "type": "VEC2"
    },
    {
      "bufferView": 0,
      "componentType": 5125,
      "count": 192,
      "type": "SCALAR"
    },
    {
      "bufferView": 2,
      "byteOffset": 1632,
      "componentType": 5126,
      "count": 34,
      "max": [
        0.9439913034439087,
        0.6662987470626831,
        -2.715276002883911
      ],
      "min": [
        -0.9439913034439087,
        0.53068608045578,
        -2.723238945007324
      ],
      "type": "VEC3"
    },
    {
      "bufferView": 2,
      "byteOffset": 2040,
      "componentType": 5126,
      "count": 34,
      "max": [
        0.11577646434307098,
        0.11585506796836853,
        -0.9928759336471558
      ],
      "min": [
        -0.11381158232688904,
        -0.11388972401618958,
        -1.0
      ],
      "type": "VEC3"
    },
    {
      "bufferView": 1,
      "byteOffset": 1088,
      "componentType": 5126,
      "count": 34,
      "max": [
        1.4949750900268555,
        0.8826586008071899
      ],
      "min": [
        1.3773837089538574,
        0.7691310048103333
      ],
      "type": "VEC2"
    },
    {
      "bufferView": 1,
      "byteOffset": 1360,
      "componentType": 5126,
      "count": 34,
      "max": [
        0.0,
        0.0
      ],
      "min": [
        0.0,
        0.0
      ],
      "type": "VEC2"
    },
    {
      "bufferView": 0,
      "byteOffset": 768,
      "componentType": 5125,
      "count": 96,
      "type": "SCALAR"
    },
    {
      "bufferView": 2,
      "byteOffset": 2448,
      "componentType": 5126,
      "count": 17,
      "max": [
        0.9434071183204651,
        0.8377030491828918,
        -2.715233325958252
      ],
      "min": [
        0.8071027994155884,
        0.7020903825759888,
        -2.723196506500244
      ],
      "type": "VEC3"
    },
    {
      "bufferView": 2,
      "byteOffset": 2652,
      "componentType": 5126,
      "count": 17,
      "max": [
        0.11388396471738815,
        0.11581302434206009,
        -0.9928508400917053
      ],
      "min": [
        -0.11387033760547638,
        -0.11385080963373184,
        -1.0
      ],
      "type": "VEC3"
    },
    {
      "bufferView": 1,
      "byteOffset": 1632,
      "componentType": 5126,
      "count": 17,
      "max": [
        1.4952723979949951,
        0.9987779259681702
      ],
      "min": [
        1.3765631914138794,
        0.8842495083808899
      ],
      "type": "VEC2"
    },
    {
      "bufferView": 1,
      "byteOffset": 1768,
      "componentType": 5126,
      "count": 17,
      "max": [
        0.0,
        0.0
      ],
      "min": [
        0.0,
        0.0
      ],
      "type": "VEC2"
    },
    {
      "bufferView": 0,
      "byteOffset": 1152,
      "componentType": 5125,
      "count": 48,
      "type": "SCALAR"
    },
    {
      "bufferView": 2,
      "byteOffset": 2856,
      "componentType": 5126,
      "count": 17,
      "max": [
        -0.8071027994155884,
        0.8377030491828918,
        -2.715233325958252
      ],
      "min": [
        -0.9434071183204651,
        0.7020903825759888,
        -2.723196506500244
      ],
      "type": "VEC3"
    },
    {
      "bufferView": 2,
      "byteOffset": 3060,
      "componentType": 5126,
      "count": 17,
      "max": [
        0.11581922322511673,
        0.11581370234489441,
        -0.9930205941200256
      ],
      "min": [
        -0.11188994348049164,
        -0.11385124921798706,
        -1.0
      ],
      "type": "VEC3"
    },
    {
      "bufferView": 1,
      "byteOffset": 1904,
      "componentType": 5126,
      "count": 17,
      "max": [
        1.4952727556228638,
        0.9987779259681702
      ],
      "min": [
        1.3765637874603271,
        0.8842495083808899
      ],
      "type": "VEC2"
    },
    {
      "bufferView": 1,
      "byteOffset": 2040,
      "componentType": 5126,
      "count": 17,
      "max": [
        0.0,
        0.0
      ],
      "min": [
        0.0,
        0.0
      ],
      "type": "VEC2"
    },
    {
      "bufferView": 0,
      "byteOffset": 1344,
      "componentType": 5125,
      "count": 48,
      "type": "SCALAR"
    },
    {
      "bufferView": 2,
      "byteOffset": 3264,
      "componentType": 5126,
      "count": 34,
      "max": [
        0.9434070587158203,
        0.499019056558609,
        -2.715233325958252
      ],
      "min": [
        -0.9434070587158203,
        0.3634064495563507,
        -2.723196506500244
      ],
      "type": "VEC3"
    },
    {
      "bufferView": 2,
      "byteOffset": 3672,
      "componentType": 5126,
      "count": 34,
      "max": [
        0.11581890285015106,
        0.11585848033428192,
        -0.9928768277168274
      ],
      "min": [
        -0.11387348175048828,
        -0.11388620734214783,
        -1.0
      ],
      "type": "VEC3"
    },
    {
      "bufferView": 1,
      "byteOffset": 2176,
      "componentType": 5126,
      "count": 34,
      "max": [
        1.7501795291900635,
        0.24563539028167725
      ],
      "min": [
        1.6317169666290283,
        0.1277751922607422
      ],
      "type": "VEC2"
    },
    {
      "bufferView": 1,
      "byteOffset": 2448,
      "componentType": 5126,
      "count": 34,
      "max": [
        0.0,
        0.0
      ],
      "min": [
        0.0,
        0.0
      ],
      "type": "VEC2"
    },
    {
      "bufferView": 0,
      "byteOffset": 1536,
      "componentType": 5125,
      "count": 96,
      "type": "SCALAR"
    },
    {
      "bufferView": 2,
      "byteOffset": 4080,
      "componentType": 5126,
      "count": 3317,
      "max": [
        1.075184941291809,
        1.9209582805633545,
        2.7883689403533936
      ],
      "min": [
        -1.075184941291809,
        -0.19609498977661133,
        -2.7627651691436768
      ],
      "type": "VEC3"
    },
    {
      "bufferView": 2,
      "byteOffset": 43884,
      "componentType": 5126,
      "count": 3317,
      "max": [
        1.0,
        1.0,
        1.0
      ],
      "min": [
        -1.0,
        -1.0,
        -1.0
      ],
      "type": "VEC3"
    },
    {
      "bufferView": 1,
      "byteOffset": 2720,
      "componentType": 5126,
      "count": 3317,
      "max": [
        0.9967838525772095,
        0.993628978729248
      ],
      "min": [
        0.0031591057777404785,
        0.000652015209197998
      ],
      "type": "VEC2"
    },
    {
      "bufferView": 1,
      "byteOffset": 29256,
      "componentType": 5126,
      "count": 3317,
      "max": [
        1.7224199771881104,
        0.9976285099983215
      ],
      "min": [
        1.0175728797912598,
        0.0014521479606628418
      ],
      "type": "VEC2"
    },
    {
      "bufferView": 0,
      "byteOffset": 1920,
      "componentType": 5125,
      "count": 10134,
      "type": "SCALAR"
    },
    {
      "bufferView": 2,
      "byteOffset": 83688,
      "componentType": 5126,
      "count": 615,
      "max": [
        0.7696428298950195,
        0.912161111831665,
        2.7169675827026367
      ],
      "min": [
        -0.7696428298950195,
        0.6720722913742065,
        2.095654010772705
      ],
      "type": "VEC3"
    },
    {
      "bufferView": 2,
      "byteOffset": 91068,
      "componentType": 5126,
      "count": 615,
      "max": [
        0.9901849031448364,
        0.999605655670166,
        0.9958557486534119
      ],
      "min": [
        -0.9652184844017029,
        -0.9658287167549133,
        -0.9639177322387695
      ],
      "type": "VEC3"
    },
    {
      "bufferView": 1,
      "byteOffset": 55792,
      "componentType": 5126,
      "count": 615,
      "max": [
        2.0,
        0.8943621516227722
      ],
      "min": [
        1.0,
        0.0
      ],
      "type": "VEC2"
    },
    {
      "bufferView": 1,
      "byteOffset": 60712,
      "componentType": 5126,
      "count": 615,
      "max": [
        0.0,
        0.0
      ],
      "min": [
        0.0,
        0.0
      ],
      "type": "VEC2"
    },
    {
      "bufferView": 0,
      "byteOffset": 42456,
      "componentType": 5125,
      "count": 2802,
      "type": "SCALAR"
    },
    {
      "bufferView": 2,
      "byteOffset": 98448,
      "componentType": 5126,
      "count": 1970,
      "max": [
        1.0566389560699463,
        0.6786251068115234,
        2.7832884788513184
      ],
      "min": [
        -1.0566389560699463,
        -0.19609500467777252,
        -2.7225019931793213
      ],
      "type": "VEC3"
    },
    {
      "bufferView": 2,
      "byteOffset": 122088,
      "componentType": 5126,
      "count": 1970,
      "max": [
        1.0,
        1.0,
        1.0
      ],
      "min": [
        -1.0,
        -1.0,
        -1.0
      ],
      "type": "VEC3"
    },
    {
      "bufferView": 1,
      "byteOffset": 65632,
      "componentType": 5126,
      "count": 1970,
      "max": [
        1.997495412826538,
        0.9791936278343201
      ],
      "min": [
        1.0651863813400269,
        0.0013799667358398438
      ],
      "type": "VEC2"
    },
    {
      "bufferView": 1,
      "byteOffset": 81392,
      "componentType": 5126,
      "count": 1970,
      "max": [
        0.0,
        0.0
      ],
      "min": [
        0.0,
        0.0
      ],
      "type": "VEC2"
    },
    {
      "bufferView": 0,
      "byteOffset": 53664,
      "componentType": 5125,
      "count": 5598,
      "type": "SCALAR"
    },
    {
      "bufferView": 2,
      "byteOffset": 145728,
      "componentType": 5126,
      "count": 856,
      "max": [
        0.9611070156097412,
        1.3982800245285034,
        2.0786359310150146
      ],
      "min": [
        -0.9611070156097412,
        -0.15199998021125793,
        0.4519639313220978
      ],
      "type": "VEC3"
    },
    {
      "bufferView": 2,
      "byteOffset": 156000,
      "componentType": 5126,
      "count": 856,
      "max": [
        0.9999904632568359,
        1.0,
        1.0
      ],
      "min": [
        -0.9999904036521912,
        -0.9972118139266968,
        -1.0
      ],
      "type": "VEC3"
    },
    {
      "bufferView": 1,
      "byteOffset": 97152,
      "componentType": 5126,
      "count": 856,
      "max": [
        1.996134638786316,
        0.9962719082832336
      ],
      "min": [
        1.0067800283432007,
        0.006273448467254639
      ],
      "type": "VEC2"
    },
    {
      "bufferView": 1,
      "byteOffset": 104000,
      "componentType": 5126,
      "count": 856,
      "max": [
        0.0,
        0.0
      ],
      "min": [
        0.0,
        0.0
      ],
      "type": "VEC2"
    },
    {
      "bufferView": 0,
      "byteOffset": 76056,
      "componentType": 5125,
      "count": 2799,
      "type": "SCALAR"
    },
    {
      "bufferView": 2,
      "byteOffset": 166272,
      "componentType": 5126,
      "count": 1986,
      "max": [
        1.2092020511627197,
        1.891611099243164,
        2.810610771179199
      ],
      "min": [
        -1.2092020511627197,
        -0.19609498977661133,
        -2.708254098892212
      ],
      "type": "VEC3"
    },
    {
      "bufferView": 2,
      "byteOffset": 190104,
      "componentType": 5126,
      "count": 1986,
      "max": [
        1.0,
        1.0,
        0.9997230768203735
      ],
      "min": [
        -1.0,
        -1.0,
        -1.0
      ],
      "type": "VEC3"
    },
    {
      "bufferView": 1,
      "byteOffset": 110848,
      "componentType": 5126,
      "count": 1986,
      "max": [
        1.9497889280319214,
        0.9998246431350708
      ],
      "min": [
        1.0035239458084106,
        -0.010153889656066895
      ],
      "type": "VEC2"
    },
    {
      "bufferView": 1,
      "byteOffset": 126736,
      "componentType": 5126,
      "count": 1986,
      "max": [
        0.0,
        0.0
      ],
      "min": [
        0.0,
        0.0
      ],
      "type": "VEC2"
    },
    {
      "bufferView": 0,
      "byteOffset": 87252,
      "componentType": 5125,
      "count": 6237,
      "type": "SCALAR"
    },
    {
      "bufferView": 2,
      "byteOffset": 213936,
      "componentType": 5126,
      "count": 68,
      "max": [
        0.9456290006637573,
        1.4949718713760376,
        1.7239999771118164
      ],
      "min": [
        -0.9456290006637573,
        0.8931359052658081,
        -2.69881010055542
      ],
      "type": "VEC3"
    },
    {
      "bufferView": 2,
      "byteOffset": 214752,
      "componentType": 5126,
      "count": 68,
      "max": [
        0.9850224852561951,
        0.3593066334724426,
        0.04513268917798996
      ],
      "min": [
        -0.984963059425354,
        -5.308082472765818e-05,
        -1.0
      ],
      "type": "VEC3"
    },
    {
      "bufferView": 1,
      "byteOffset": 142624,
      "componentType": 5126,
      "count": 68,
      "max": [
        2.0,
        1.0
      ],
      "min": [
        1.0,
        0.0
      ],
      "type": "VEC2"
    },
    {
      "bufferView": 1,
      "byteOffset": 143168,
      "componentType": 5126,
      "count": 68,
      "max": [
        0.0,
        0.0
      ],
      "min": [
        0.0,
        0.0
      ],
      "type": "VEC2"
    },
    {
      "bufferView": 0,
      "byteOffset": 112200,
      "componentType": 5125,
      "count": 186,
      "type": "SCALAR"
    },
    {
      "bufferView": 2,
      "byteOffset": 215568,
      "componentType": 5126,
      "count": 673,
      "max": [
        0.12820768356323242,
        0.7533811330795288,
        0.4260338544845581
      ],
      "min": [
        -0.21319007873535156,
        -0.7919999361038208,
        -0.42085427045822144
      ],
      "type": "VEC3"
    },
    {
      "bufferView": 2,
      "byteOffset": 223644,
      "componentType": 5126,
      "count": 673,
      "max": [
        0.999992311000824,
        1.0,
        1.0
      ],
      "min": [
        -0.9994295239448547,
        -1.0,
        -1.0
      ],
      "type": "VEC3"
    },
    {
      "bufferView": 1,
      "byteOffset": 143712,
      "componentType": 5126,
      "count": 673,
      "max": [
        0.6357809901237488,
        0.24757599830627441
      ],
      "min": [
        0.49575626850128174,
        0.005253016948699951
      ],
      "type": "VEC2"
    },
    {
      "bufferView": 1,
      "byteOffset": 149096,
      "componentType": 5126,
      "count": 673,
      "max": [
        0.0,
        1.0
      ],
      "min": [
        0.0,
        1.0
      ],
      "type": "VEC2"
    },
    {
      "bufferView": 0,
      "byteOffset": 112944,
      "componentType": 5125,
      "count": 2073,
      "type": "SCALAR"
    },
    {
      "bufferView": 2,
      "byteOffset": 231720,
      "componentType": 5126,
      "count": 48,
      "max": [
        0.10109597444534302,
        0.6788090467453003,
        0.2879999876022339
      ],
      "min": [
        -0.09519898891448975,
        -0.33048495650291443,
        -0.14401596784591675
      ],
      "type": "VEC3"
    },
    {
      "bufferView": 2,
      "byteOffset": 232296,
      "componentType": 5126,
      "count": 48,
      "max": [
        0.9999904632568359,
        0.34067821502685547,
        0.011787564493715763
      ],
      "min": [
        0.9397808313369751,
        -0.007840110920369625,
        -0.03925924748182297
      ],
      "type": "VEC3"
    },
    {
      "bufferView": 1,
      "byteOffset": 154480,
      "componentType": 5126,
      "count": 48,
      "max": [
        1.0,
        1.0
      ],
      "min": [
        0.0,
        0.0
      ],
      "type": "VEC2"
    },
    {
      "bufferView": 1,
      "byteOffset": 154864,
      "componentType": 5126,
      "count": 48,
      "max": [
        0.0,
        1.0
      ],
      "min": [
        0.0,
        1.0
      ],
      "type": "VEC2"
    },
    {
      "bufferView": 0,
      "byteOffset": 121236,
      "componentType": 5125,
      "count": 174,
      "type": "SCALAR"
    },
    {
      "bufferView": 2,
      "byteOffset": 232872,
      "componentType": 5126,
      "count": 674,
      "max": [
        0.19319003820419312,
        0.7333810925483704,
        0.40603387355804443
      ],
      "min": [
        -0.14820772409439087,
        -0.812000036239624,
        -0.4408542513847351
      ],
      "type": "VEC3"
    },
    {
      "bufferView": 2,
      "byteOffset": 240960,
      "componentType": 5126,
      "count": 674,
      "max": [
        0.9994316697120667,
        1.0,
        1.0
      ],
      "min": [
        -0.999992311000824,
        -1.0,
        -1.0
      ],
      "type": "VEC3"
    },
    {
      "bufferView": 1,
      "byteOffset": 155248,
      "componentType": 5126,
      "count": 674,
      "max": [
        0.6357809901237488,
        0.24757599830627441
      ],
      "min": [
        0.49575626850128174,
        0.005253016948699951
      ],
      "type": "VEC2"
    },
    {
      "bufferView": 1,
      "byteOffset": 160640,
      "componentType": 5126,
      "count": 674,
      "max": [
        0.0,
        1.0
      ],
      "min": [
        0.0,
        1.0
      ],
      "type": "VEC2"
    },
    {
      "bufferView": 0,
      "byteOffset": 121932,
      "componentType": 5125,
      "count": 2076,
      "type": "SCALAR"
    },
    {
      "bufferView": 2,
      "byteOffset": 249048,
      "componentType": 5126,
      "count": 48,
      "max": [
        0.0751989483833313,
        0.6588090062141418,
        0.2680000066757202
      ],
      "min": [
        -0.12109601497650146,
        -0.3504849970340729,
        -0.16401594877243042
      ],
      "type": "VEC3"
    },
    {
      "bufferView": 2,
      "byteOffset": 249624,
      "componentType": 5126,
      "count": 48,
      "max": [
        -0.9395512938499451,
        0.3413063883781433,
        0.011805323883891106
      ],
      "min": [
        -0.9999904632568359,
        -0.007839449681341648,
        -0.03929149731993675
      ],
      "type": "VEC3"
    },
    {
      "bufferView": 1,
      "byteOffset": 166032,
      "componentType": 5126,
      "count": 48,
      "max": [
        1.0,
        1.0
      ],
      "min": [
        0.0,
        0.0
      ],
      "type": "VEC2"
    },
    {
      "bufferView": 1,
      "byteOffset": 166416,
      "componentType": 5126,
      "count": 48,
      "max": [
        0.0,
        1.0
      ],
      "min": [
        0.0,
        1.0
      ],
      "type": "VEC2"
    },
    {
      "bufferView": 0,
      "byteOffset": 130236,
      "componentType": 5125,
      "count": 174,
      "type": "SCALAR"
    },
    {
      "bufferView": 2,
      "byteOffset": 250200,
      "componentType": 5126,
      "count": 244,
      "max": [
        1.0359690189361572,
        0.13910911977291107,
        0.18824219703674316
      ],
      "min": [
        -1.0359690189361572,
        -0.20407593250274658,
        -0.2581369876861572
      ],
      "type": "VEC3"
    },
    {
      "bufferView": 2,
      "byteOffset": 253128,
      "componentType": 5126,
      "count": 244,
      "max": [
        0.9950764179229736,
        0.9990760087966919,
        0.9999923706054688
      ],
      "min": [
        -0.9950572848320007,
        -0.6031379103660583,
        -0.9999032616615295
      ],
      "type": "VEC3"
    },
    {
      "bufferView": 1,
      "byteOffset": 166800,
      "componentType": 5126,
      "count": 244,
      "max": [
        0.342056006193161,
        0.2126220464706421
      ],
      "min": [
        0.01966099999845028,
        0.10867899656295776
      ],
      "type": "VEC2"
    },
    {
      "bufferView": 1,
      "byteOffset": 168752,
      "componentType": 5126,
      "count": 244,
      "max": [
        0.7814299464225769,
        0.35201841592788696
      ],
      "min": [
        0.7303158044815063,
        0.00583881139755249
      ],
      "type": "VEC2"
    },
    {
      "bufferView": 0,
      "byteOffset": 130932,
      "componentType": 5125,
      "count": 837,
      "type": "SCALAR"
    },
    {
      "bufferView": 2,
      "byteOffset": 256056,
      "componentType": 5126,
      "count": 37,
      "max": [
        0.19347000122070313,
        0.0547461062669754,
        0.20359587669372559
      ],
      "min": [
        -0.19347000122070313,
        -0.15417388081550598,
        0.18245792388916016
      ],
      "type": "VEC3"
    },
    {
      "bufferView": 2,
      "byteOffset": 256500,
      "componentType": 5126,
      "count": 37,
      "max": [
        0.6167852282524109,
        0.4786076247692108,
        0.9982742667198181
      ],
      "min": [
        -0.6155043840408325,
        -0.6143306493759155,
        0.7850825786590576
      ],
      "type": "VEC3"
    },
    {
      "bufferView": 1,
      "byteOffset": 170704,
      "componentType": 5126,
      "count": 37,
      "max": [
        0.6652730703353882,
        0.8760864734649658
      ],
      "min": [
        0.49328261613845825,
        0.7753167152404785
      ],
      "type": "VEC2"
    },
    {
      "bufferView": 1,
      "byteOffset": 171000,
      "componentType": 5126,
      "count": 37,
      "max": [
        0.0,
        0.0
      ],
      "min": [
        0.0,
        0.0
      ],
      "type": "VEC2"
    },
    {
      "bufferView": 0,
      "byteOffset": 134280,
      "componentType": 5125,
      "count": 108,
      "type": "SCALAR"
    },
    {
      "bufferView": 2,
      "byteOffset": 256944,
      "componentType": 5126,
      "count": 75,
      "max": [
        1.0233687162399292,
        0.13910911977291107,
        0.17133641242980957
      ],
      "min": [
        -1.0233687162399292,
        -0.2040759176015854,
        -0.25813722610473633
      ],
      "type": "VEC3"
    },
    {
      "bufferView": 2,
      "byteOffset": 257844,
      "componentType": 5126,
      "count": 75,
      "max": [
        0.9882035851478577,
        0.5429913997650146,
        0.9459995031356812
      ],
      "min": [
        -0.973938524723053,
        -0.9265410304069519,
        -0.9953634738922119
      ],
      "type": "VEC3"
    },
    {
      "bufferView": 1,
      "byteOffset": 171296,
      "componentType": 5126,
      "count": 75,
      "max": [
        0.9880238771438599,
        0.9812978506088257
      ],
      "min": [
        0.021809015423059464,
        0.016446471214294434
      ],
      "type": "VEC2"
    },
    {
      "bufferView": 1,
      "byteOffset": 171896,
      "componentType": 5126,
      "count": 75,
      "max": [
        0.0,
        0.0
      ],
      "min": [
        0.0,
        0.0
      ],
      "type": "VEC2"
    },
    {
      "bufferView": 0,
      "byteOffset": 134712,
      "componentType": 5125,
      "count": 282,
      "type": "SCALAR"
    },
    {
      "bufferView": 2,
      "byteOffset": 258744,
      "componentType": 5126,
      "count": 130,
      "max": [
        1.0818182229995728,
        0.10703787952661514,
        0.1296401023864746
      ],
      "min": [
        -1.0818182229995728,
        -0.08794109523296356,
        -0.4495408535003662
      ],
      "type": "VEC3"
    },
    {
      "bufferView": 2,
      "byteOffset": 260304,
      "componentType": 5126,
      "count": 130,
      "max": [
        0.9999693036079407,
        0.9999289512634277,
        0.36127063632011414
      ],
      "min": [
        -0.9999691843986511,
        -1.0,
        -1.0
      ],
      "type": "VEC3"
    },
    {
      "bufferView": 1,
      "byteOffset": 172496,
      "componentType": 5126,
      "count": 130,
      "max": [
        0.8019999861717224,
        0.8098400235176086
      ],
      "min": [
        0.017099790275096893,
        0.10821336507797241
      ],
      "type": "VEC2"
    },
    {
      "bufferView": 1,
      "byteOffset": 173536,
      "componentType": 5126,
      "count": 130,
      "max": [
        0.7873081564903259,
        0.7837852835655212
      ],
      "min": [
        0.7279558777809143,
        0.3660404682159424
      ],
      "type": "VEC2"
    },
    {
      "bufferView": 0,
      "byteOffset": 135840,
      "componentType": 5125,
      "count": 360,
      "type": "SCALAR"
    },
    {
      "bufferView": 2,
      "byteOffset": 261864,
      "componentType": 5126,
      "count": 86,
      "max": [
        1.0609053373336792,
        0.10504990071058273,
        0.1296403408050537
      ],
      "min": [
        -1.0609054565429688,
        -0.08794111013412476,
        -0.440230131149292
      ],
      "type": "VEC3"
    },
    {
      "bufferView": 2,
      "byteOffset": 262896,
      "componentType": 5126,
      "count": 86,
      "max": [
        0.9967709183692932,
        0.9960054755210876,
        1.0
      ],
      "min": [
        -0.9967594146728516,
        -0.98853999376297,
        -0.16691090166568756
      ],
      "type": "VEC3"
    },
    {
      "bufferView": 1,
      "byteOffset": 174576,
      "componentType": 5126,
      "count": 86,
      "max": [
        0.9949004650115967,
        0.9806685447692871
      ],
      "min": [
        0.014651766046881676,
        0.02577519416809082
      ],
      "type": "VEC2"
    },
    {
      "bufferView": 1,
      "byteOffset": 175264,
      "componentType": 5126,
      "count": 86,
      "max": [
        0.0,
        0.0
      ],
      "min": [
        0.0,
        0.0
      ],
      "type": "VEC2"
    },
    {
      "bufferView": 0,
      "byteOffset": 137280,
      "componentType": 5125,
      "count": 240,
      "type": "SCALAR"
    },
    {
      "bufferView": 2,
      "byteOffset": 263928,
      "componentType": 5126,
      "count": 79,
      "max": [
        0.7870550155639648,
        0.03216111660003662,
        0.28124403953552246
      ],
      "min": [
        -0.7891970276832581,
        -0.15834665298461914,
        -0.38434600830078125
      ],
      "type": "VEC3"
    },
    {
      "bufferView": 2,
      "byteOffset": 264876,
      "componentType": 5126,
      "count": 79,
      "max": [
        0.12352149933576584,
        0.9994450211524963,
        0.834665060043335
      ],
      "min": [
        -0.1312485784292221,
        0.5348908305168152,
        0.029345648363232613
      ],
      "type": "VEC3"
    },
    {
      "bufferView": 1,
      "byteOffset": 175952,
      "componentType": 5126,
      "count": 79,
      "max": [
        0.32082700729370117,
        0.9823184013366699
      ],
      "min": [
        0.009879007935523987,
        0.5689212083816528
      ],
      "type": "VEC2"
    },
    {
      "bufferView": 1,
      "byteOffset": 176584,
      "componentType": 5126,
      "count": 79,
      "max": [
        0.29581716656684875,
        0.9508649706840515
      ],
      "min": [
        0.0909043699502945,
        0.8620867133140564
      ],
      "type": "VEC2"
    },
    {
      "bufferView": 0,
      "byteOffset": 138240,
      "componentType": 5125,
      "count": 300,
      "type": "SCALAR"
    },
    {
      "bufferView": 2,
      "byteOffset": 265824,
      "componentType": 5126,
      "count": 62,
      "max": [
        0.7870550155639648,
        0.03216111660003662,
        0.28124403953552246
      ],
      "min": [
        -0.7891970276832581,
        -0.16370481252670288,
        -0.38434600830078125
      ],
      "type": "VEC3"
    },
    {
      "bufferView": 2,
      "byteOffset": 266568,
      "componentType": 5126,
      "count": 62,
      "max": [
        0.8295637369155884,
        -0.3735085427761078,
        0.4182901978492737
      ],
      "min": [
        -0.8289479613304138,
        -0.9985468983650208,
        -0.7820636630058289
      ],
      "type": "VEC3"
    },
    {
      "bufferView": 1,
      "byteOffset": 177216,
      "componentType": 5126,
      "count": 62,
      "max": [
        0.9977074861526489,
        0.9305317401885986
      ],
      "min": [
        0.010200679302215576,
        0.034091830253601074
      ],
      "type": "VEC2"
    },
    {
      "bufferView": 1,
      "byteOffset": 177712,
      "componentType": 5126,
      "count": 62,
      "max": [
        0.0,
        0.0
      ],
      "min": [
        0.0,
        0.0
      ],
      "type": "VEC2"
    },
    {
      "bufferView": 0,
      "byteOffset": 139440,
      "componentType": 5125,
      "count": 282,
      "type": "SCALAR"
    },
    {
      "bufferView": 2,
      "byteOffset": 267312,
      "componentType": 5126,
      "count": 62,
      "max": [
        0.37853720784187317,
        0.6517740488052368,
        0.006288290023803711
      ],
      "min": [
        -0.37811529636383057,
        -0.605685830116272,
        -0.027855634689331055
      ],
      "type": "VEC3"
    },
    {
      "bufferView": 2,
      "byteOffset": 268056,
      "componentType": 5126,
      "count": 62,
      "max": [
        0.5101823806762695,
        0.3883684575557709,
        -0.8123418092727661
      ],
      "min": [
        -0.5292791724205017,
        -0.5559437274932861,
        -1.0
      ],
      "type": "VEC3"
    },
    {
      "bufferView": 1,
      "byteOffset": 178208,
      "componentType": 5126,
      "count": 62,
      "max": [
        0.25315821170806885,
        0.4144434928894043
      ],
      "min": [
        0.10812336206436157,
        0.173700213432312
      ],
      "type": "VEC2"
    },
    {
      "bufferView": 1,
      "byteOffset": 178704,
      "componentType": 5126,
      "count": 62,
      "max": [
        0.6326550245285034,
        0.9664366841316223
      ],
      "min": [
        0.5342901349067688,
        0.8029668927192688
      ],
      "type": "VEC2"
    },
    {
      "bufferView": 0,
      "byteOffset": 140568,
      "componentType": 5125,
      "count": 216,
      "type": "SCALAR"
    },
    {
      "bufferView": 2,
      "byteOffset": 268800,
      "componentType": 5126,
      "count": 106,
      "max": [
        0.37853723764419556,
        0.6517740488052368,
        0.025122880935668945
      ],
      "min": [
        -0.37811529636383057,
        -0.6056841015815735,
        -0.07385945320129395
      ],
      "type": "VEC3"
    },
    {
      "bufferView": 2,
      "byteOffset": 270072,
      "componentType": 5126,
      "count": 106,
      "max": [
        0.99083012342453,
        0.9995661377906799,
        1.0
      ],
      "min": [
        -0.9928193688392639,
        -0.9997144937515259,
        -0.996270477771759
      ],
      "type": "VEC3"
    },
    {
      "bufferView": 1,
      "byteOffset": 179200,
      "componentType": 5126,
      "count": 106,
      "max": [
        0.7822610139846802,
        0.8757699728012085
      ],
      "min": [
        0.13702400028705597,
        0.012377023696899414
      ],
      "type": "VEC2"
    },
    {
      "bufferView": 1,
      "byteOffset": 180048,
      "componentType": 5126,
      "count": 106,
      "max": [
        0.0,
        0.0
      ],
      "min": [
        0.0,
        0.0
      ],
      "type": "VEC2"
    },
    {
      "bufferView": 0,
      "byteOffset": 141432,
      "componentType": 5125,
      "count": 294,
      "type": "SCALAR"
    },
    {
      "bufferView": 2,
      "byteOffset": 271344,
      "componentType": 5126,
      "count": 72,
      "max": [
        0.881197988986969,
        0.25778818130493164,
        0.32620763778686523
      ],
      "min": [
        -0.881197988986969,
        -0.27320194244384766,
        -0.2873800992965698
      ],
      "type": "VEC3"
    },
    {
      "bufferView": 2,
      "byteOffset": 272208,
      "componentType": 5126,
      "count": 72,
      "max": [
        0.4510379731655121,
        0.8596086502075195,
        0.7178282737731934
      ],
      "min": [
        -0.44946274161338806,
        0.6962202191352844,
        0.3981529474258423
      ],
      "type": "VEC3"
    },
    {
      "bufferView": 1,
      "byteOffset": 180896,
      "componentType": 5126,
      "count": 72,
      "max": [
        0.09719499945640564,
        0.13742196559906006
      ],
      "min": [
        0.06140799820423126,
        0.0
      ],
      "type": "VEC2"
    },
    {
      "bufferView": 1,
      "byteOffset": 181472,
      "componentType": 5126,
      "count": 72,
      "max": [
        0.0,
        1.0
      ],
      "min": [
        0.0,
        1.0
      ],
      "type": "VEC2"
    },
    {
      "bufferView": 0,
      "byteOffset": 142608,
      "componentType": 5125,
      "count": 204,
      "type": "SCALAR"
    },
    {
      "bufferView": 2,
      "byteOffset": 273072,
      "componentType": 5126,
      "count": 57,
      "max": [
        0.8261926770210266,
        0.22468817234039307,
        0.29457974433898926
      ],
      "min": [
        -0.8261926770210266,
        -0.22934889793395996,
        -0.2383420467376709
      ],
      "type": "VEC3"
    },
    {
      "bufferView": 2,
      "byteOffset": 273756,
      "componentType": 5126,
      "count": 57,
      "max": [
        0.2843337655067444,
        0.7687159776687622,
        0.6932535171508789
      ],
      "min": [
        -0.2825091779232025,
        0.7206939458847046,
        0.6305926442146301
      ],
      "type": "VEC3"
    },
    {
      "bufferView": 1,
      "byteOffset": 182048,
      "componentType": 5126,
      "count": 57,
      "max": [
        0.5,
        1.0
      ],
      "min": [
        0.0,
        0.0
      ],
      "type": "VEC2"
    },
    {
      "bufferView": 1,
      "byteOffset": 182504,
      "componentType": 5126,
      "count": 57,
      "max": [
        0.0,
        1.0
      ],
      "min": [
        0.0,
        1.0
      ],
      "type": "VEC2"
    },
    {
      "bufferView": 0,
      "byteOffset": 143424,
      "componentType": 5125,
      "count": 246,
      "type": "SCALAR"
    },
    {
      "bufferView": 2,
      "byteOffset": 274440,
      "componentType": 5126,
      "count": 410,
      "max": [
        0.16834519803524017,
        0.36991190910339355,
        0.3699118196964264
      ],
      "min": [
        -0.13724291324615479,
        -0.369911789894104,
        -0.3699118196964264
      ],
      "type": "VEC3"
    },
    {
      "bufferView": 2,
      "byteOffset": 279360,
      "componentType": 5126,
      "count": 410,
      "max": [
        0.9958153963088989,
        0.9293387532234192,
        0.9292988777160645
      ],
      "min": [
        -0.999992311000824,
        -0.9290316104888916,
        -0.9290722012519836
      ],
      "type": "VEC3"
    },
    {
      "bufferView": 3,
      "componentType": 5126,
      "count": 410,
      "max": [
        0.5965127348899841,
        0.9995414614677429,
        1.0,
        1.0
      ],
      "min": [
        -0.5977886319160461,
        -0.9995341300964355,
        -0.9995356798171997,
        1.0
      ],
      "type": "VEC4"
    },
    {
      "bufferView": 1,
      "byteOffset": 182960,
      "componentType": 5126,
      "count": 410,
      "max": [
        1.0,
        1.0
      ],
      "min": [
        0.0,
        0.0
      ],
      "type": "VEC2"
    },
    {
      "bufferView": 1,
      "byteOffset": 186240,
      "componentType": 5126,
      "count": 410,
      "max": [
        0.0,
        1.0
      ],
      "min": [
        0.0,
        1.0
      ],
      "type": "VEC2"
    },
    {
      "bufferView": 0,
      "byteOffset": 144408,
      "componentType": 5125,
      "count": 1350,
      "type": "SCALAR"
    },
    {
      "bufferView": 2,
      "byteOffset": 284280,
      "componentType": 5126,
      "count": 129,
      "max": [
        -0.06049549952149391,
        0.185322105884552,
        0.19006279110908508
      ],
      "min": [
        -0.11427807807922363,
        -0.185322105884552,
        -0.19006279110908508
      ],
      "type": "VEC3"
    },
    {
      "bufferView": 2,
      "byteOffset": 285828,
      "componentType": 5126,
      "count": 129,
      "max": [
        1.1083860954386182e-05,
        0.9937415719032288,
        0.9983885288238525
      ],
      "min": [
        -1.0,
        -0.9937126636505127,
        -0.9983795285224915
      ],
      "type": "VEC3"
    },
    {
      "bufferView": 1,
      "byteOffset": 189520,
      "componentType": 5126,
      "count": 129,
      "max": [
        0.6187024116516113,
        0.9871633648872375
      ],
      "min": [
        0.004177294671535492,
        0.002290189266204834
      ],
      "type": "VEC2"
    },
    {
      "bufferView": 1,
      "byteOffset": 190552,
      "componentType": 5126,
      "count": 129,
      "max": [
        0.0,
        1.0
      ],
      "min": [
        0.0,
        1.0
      ],
      "type": "VEC2"
    },
    {
      "bufferView": 0,
      "byteOffset": 149808,
      "componentType": 5125,
      "count": 378,
      "type": "SCALAR"
    },
    {
      "bufferView": 2,
      "byteOffset": 287376,
      "componentType": 5126,
      "count": 968,
      "max": [
        0.16184520721435547,
        0.2640424072742462,
        0.26461201906204224
      ],
      "min": [
        -0.18228699266910553,
        -0.265386700630188,
        -0.26482075452804565
      ],
      "type": "VEC3"
    },
    {
      "bufferView": 2,
      "byteOffset": 298992,
      "componentType": 5126,
      "count": 968,
      "max": [
        0.928096354007721,
        0.9997674226760864,
        0.9998077154159546
      ],
      "min": [
        -1.0,
        -0.9997662305831909,
        -0.9996258616447449
      ],
      "type": "VEC3"
    },
    {
      "bufferView": 1,
      "byteOffset": 191584,
      "componentType": 5126,
      "count": 968,
      "max": [
        1.0,
        1.0
      ],
      "min": [
        9.357045138713715e-10,
        0.0
      ],
      "type": "VEC2"
    },
    {
      "bufferView": 1,
      "byteOffset": 199328,
      "componentType": 5126,
      "count": 968,
      "max": [
        0.0,
        1.0
      ],
      "min": [
        0.0,
        1.0
      ],
      "type": "VEC2"
    },
    {
      "bufferView": 0,
      "byteOffset": 151320,
      "componentType": 5125,
      "count": 3048,
      "type": "SCALAR"
    },
    {
      "bufferView": 2,
      "byteOffset": 310608,
      "componentType": 5126,
      "count": 410,
      "max": [
        0.16834519803524017,
        0.36991190910339355,
        0.3699118196964264
      ],
      "min": [
        -0.13724291324615479,
        -0.369911789894104,
        -0.3699118196964264
      ],
      "type": "VEC3"
    },
    {
      "bufferView": 2,
      "byteOffset": 315528,
      "componentType": 5126,
      "count": 410,
      "max": [
        0.9958153963088989,
        0.9293387532234192,
        0.9292988777160645
      ],
      "min": [
        -0.999992311000824,
        -0.9290316104888916,
        -0.9290722012519836
      ],
      "type": "VEC3"
    },
    {
      "bufferView": 3,
      "byteOffset": 6560,
      "componentType": 5126,
      "count": 410,
      "max": [
        0.5965127348899841,
        0.9995414614677429,
        1.0,
        1.0
      ],
      "min": [
        -0.5977886319160461,
        -0.9995341300964355,
        -0.9995356798171997,
        1.0
      ],
      "type": "VEC4"
    },
    {
      "bufferView": 1,
      "byteOffset": 207072,
      "componentType": 5126,
      "count": 410,
      "max": [
        1.0,
        1.0
      ],
      "min": [
        0.0,
        0.0
      ],
      "type": "VEC2"
    },
    {
      "bufferView": 1,
      "byteOffset": 210352,
      "componentType": 5126,
      "count": 410,
      "max": [
        0.0,
        1.0
      ],
      "min": [
        0.0,
        1.0
      ],
      "type": "VEC2"
    },
    {
      "bufferView": 0,
      "byteOffset": 163512,
      "componentType": 5125,
      "count": 1350,
      "type": "SCALAR"
    },
    {
      "bufferView": 2,
      "byteOffset": 320448,
      "componentType": 5126,
      "count": 129,
      "max": [
        -0.06049549952149391,
        0.185322105884552,
        0.19006279110908508
      ],
      "min": [
        -0.11427807807922363,
        -0.185322105884552,
        -0.19006279110908508
      ],
      "type": "VEC3"
    },
    {
      "bufferView": 2,
      "byteOffset": 321996,
      "componentType": 5126,
      "count": 129,
      "max": [
        1.1083860954386182e-05,
        0.9937415719032288,
        0.9983885288238525
      ],
      "min": [
        -1.0,
        -0.9937126636505127,
        -0.9983795285224915
      ],
      "type": "VEC3"
    },
    {
      "bufferView": 1,
      "byteOffset": 213632,
      "componentType": 5126,
      "count": 129,
      "max": [
        0.6187024116516113,
        0.9871633648872375
      ],
      "min": [
        0.004177294671535492,
        0.002290189266204834
      ],
      "type": "VEC2"
    },
    {
      "bufferView": 1,
      "byteOffset": 214664,
      "componentType": 5126,
      "count": 129,
      "max": [
        0.0,
        1.0
      ],
      "min": [
        0.0,
        1.0
      ],
      "type": "VEC2"
    },
    {
      "bufferView": 0,
      "byteOffset": 168912,
      "componentType": 5125,
      "count": 378,
      "type": "SCALAR"
    },
    {
      "bufferView": 2,
      "byteOffset": 323544,
      "componentType": 5126,
      "count": 968,
      "max": [
        0.16184520721435547,
        0.2640424072742462,
        0.26461201906204224
      ],
      "min": [
        -0.18228699266910553,
        -0.265386700630188,
        -0.26482075452804565
      ],
      "type": "VEC3"
    },
    {
      "bufferView": 2,
      "byteOffset": 335160,
      "componentType": 5126,
      "count": 968,
      "max": [
        0.928096354007721,
        0.9997674226760864,
        0.9998077154159546
      ],
      "min": [
        -1.0,
        -0.9997662305831909,
        -0.9996258616447449
      ],
      "type": "VEC3"
    },
    {
      "bufferView": 1,
      "byteOffset": 215696,
      "componentType": 5126,
      "count": 968,
      "max": [
        1.0,
        1.0
      ],
      "min": [
        9.357045138713715e-10,
        0.0
      ],
      "type": "VEC2"
    },
    {
      "bufferView": 1,
      "byteOffset": 223440,
      "componentType": 5126,
      "count": 968,
      "max": [
        0.0,
        1.0
      ],
      "min": [
        0.0,
        1.0
      ],
      "type": "VEC2"
    },
    {
      "bufferView": 0,
      "byteOffset": 170424,
      "componentType": 5125,
      "count": 3048,
      "type": "SCALAR"
    },
    {
      "bufferView": 2,
      "byteOffset": 346776,
      "componentType": 5126,
      "count": 410,
      "max": [
        0.16834519803524017,
        0.36991190910339355,
        0.3699118196964264
      ],
      "min": [
        -0.13724291324615479,
        -0.369911789894104,
        -0.3699118196964264
      ],
      "type": "VEC3"
    },
    {
      "bufferView": 2,
      "byteOffset": 351696,
      "componentType": 5126,
      "count": 410,
      "max": [
        0.9958153963088989,
        0.9293387532234192,
        0.9292988777160645
      ],
      "min": [
        -0.999992311000824,
        -0.9290316104888916,
        -0.9290722012519836
      ],
      "type": "VEC3"
    },
    {
      "bufferView": 3,
      "byteOffset": 13120,
      "componentType": 5126,
      "count": 410,
      "max": [
        0.5965127348899841,
        0.9995414614677429,
        1.0,
        1.0
      ],
      "min": [
        -0.5977886319160461,
        -0.9995341300964355,
        -0.9995356798171997,
        1.0
      ],
      "type": "VEC4"
    },
    {
      "bufferView": 1,
      "byteOffset": 231184,
      "componentType": 5126,
      "count": 410,
      "max": [
        1.0,
        1.0
      ],
      "min": [
        0.0,
        0.0
      ],
      "type": "VEC2"
    },
    {
      "bufferView": 1,
      "byteOffset": 234464,
      "componentType": 5126,
      "count": 410,
      "max": [
        0.0,
        1.0
      ],
      "min": [
        0.0,
        1.0
      ],
      "type": "VEC2"
    },
    {
      "bufferView": 0,
      "byteOffset": 182616,
      "componentType": 5125,
      "count": 1350,
      "type": "SCALAR"
    },
    {
      "bufferView": 2,
      "byteOffset": 356616,
      "componentType": 5126,
      "count": 129,
      "max": [
        -0.06049549952149391,
        0.185322105884552,
        0.19006279110908508
      ],
      "min": [
        -0.11427807807922363,
        -0.185322105884552,
        -0.19006279110908508
      ],
      "type": "VEC3"
    },
    {
      "bufferView": 2,
      "byteOffset": 358164,
      "componentType": 5126,
      "count": 129,
      "max": [
        1.1083860954386182e-05,
        0.9937415719032288,
        0.9983885288238525
      ],
      "min": [
        -1.0,
        -0.9937126636505127,
        -0.9983795285224915
      ],
      "type": "VEC3"
    },
    {
      "bufferView": 1,
      "byteOffset": 237744,
      "componentType": 5126,
      "count": 129,
      "max": [
        0.6187024116516113,
        0.9871633648872375
      ],
      "min": [
        0.004177294671535492,
        0.002290189266204834
      ],
      "type": "VEC2"
    },
    {
      "bufferView": 1,
      "byteOffset": 238776,
      "componentType": 5126,
      "count": 129,
      "max": [
        0.0,
        1.0
      ],
      "min": [
        0.0,
        1.0
      ],
      "type": "VEC2"
    },
    {
      "bufferView": 0,
      "byteOffset": 188016,
      "componentType": 5125,
      "count": 378,
      "type": "SCALAR"
    },
    {
      "bufferView": 2,
      "byteOffset": 359712,
      "componentType": 5126,
      "count": 968,
      "max": [
        0.16184520721435547,
        0.2640424072742462,
        0.26461201906204224
      ],
      "min": [
        -0.18228699266910553,
        -0.265386700630188,
        -0.26482075452804565
      ],
      "type": "VEC3"
    },
    {
      "bufferView": 2,
      "byteOffset": 371328,
      "componentType": 5126,
      "count": 968,
      "max": [
        0.928096354007721,
        0.9997674226760864,
        0.9998077154159546
      ],
      "min": [
        -1.0,
        -0.9997662305831909,
        -0.9996258616447449
      ],
      "type": "VEC3"
    },
    {
      "bufferView": 1,
      "byteOffset": 239808,
      "componentType": 5126,
      "count": 968,
      "max": [
        1.0,
        1.0
      ],
      "min": [
        9.357045138713715e-10,
        0.0
      ],
      "type": "VEC2"
    },
    {
      "bufferView": 1,
      "byteOffset": 247552,
      "componentType": 5126,
      "count": 968,
      "max": [
        0.0,
        1.0
      ],
      "min": [
        0.0,
        1.0
      ],
      "type": "VEC2"
    },
    {
      "bufferView": 0,
      "byteOffset": 189528,
      "componentType": 5125,
      "count": 3048,
      "type": "SCALAR"
    },
    {
      "bufferView": 2,
      "byteOffset": 382944,
      "componentType": 5126,
      "count": 410,
      "max": [
        0.16834519803524017,
        0.36991190910339355,
        0.3699118196964264
      ],
      "min": [
        -0.13724291324615479,
        -0.369911789894104,
        -0.3699118196964264
      ],
      "type": "VEC3"
    },
    {
      "bufferView": 2,
      "byteOffset": 387864,
      "componentType": 5126,
      "count": 410,
      "max": [
        0.9958153963088989,
        0.9293387532234192,
        0.9292988777160645
      ],
      "min": [
        -0.999992311000824,
        -0.9290316104888916,
        -0.9290722012519836
      ],
      "type": "VEC3"
    },
    {
      "bufferView": 3,
      "byteOffset": 19680,
      "componentType": 5126,
      "count": 410,
      "max": [
        0.5965127348899841,
        0.9995414614677429,
        1.0,
        1.0
      ],
      "min": [
        -0.5977886319160461,
        -0.9995341300964355,
        -0.9995356798171997,
        1.0
      ],
      "type": "VEC4"
    },
    {
      "bufferView": 1,
      "byteOffset": 255296,
      "componentType": 5126,
      "count": 410,
      "max": [
        1.0,
        1.0
      ],
      "min": [
        0.0,
        0.0
      ],
      "type": "VEC2"
    },
    {
      "bufferView": 1,
      "byteOffset": 258576,
      "componentType": 5126,
      "count": 410,
      "max": [
        0.0,
        1.0
      ],
      "min": [
        0.0,
        1.0
      ],
      "type": "VEC2"
    },
    {
      "bufferView": 0,
      "byteOffset": 201720,
      "componentType": 5125,
      "count": 1350,
      "type": "SCALAR"
    },
    {
      "bufferView": 2,
      "byteOffset": 392784,
      "componentType": 5126,
      "count": 129,
      "max": [
        -0.06049549952149391,
        0.185322105884552,
        0.19006279110908508
      ],
      "min": [
        -0.11427807807922363,
        -0.185322105884552,
        -0.19006279110908508
      ],
      "type": "VEC3"
    },
    {
      "bufferView": 2,
      "byteOffset": 394332,
      "componentType": 5126,
      "count": 129,
      "max": [
        1.1083860954386182e-05,
        0.9937415719032288,
        0.9983885288238525
      ],
      "min": [
        -1.0,
        -0.9937126636505127,
        -0.9983795285224915
      ],
      "type": "VEC3"
    },
    {
      "bufferView": 1,
      "byteOffset": 261856,
      "componentType": 5126,
      "count": 129,
      "max": [
        0.6187024116516113,
        0.9871633648872375
      ],
      "min": [
        0.004177294671535492,
        0.002290189266204834
      ],
      "type": "VEC2"
    },
    {
      "bufferView": 1,
      "byteOffset": 262888,
      "componentType": 5126,
      "count": 129,
      "max": [
        0.0,
        1.0
      ],
      "min": [
        0.0,
        1.0
      ],
      "type": "VEC2"
    },
    {
      "bufferView": 0,
      "byteOffset": 207120,
      "componentType": 5125,
      "count": 378,
      "type": "SCALAR"
    },
    {
      "bufferView": 2,
      "byteOffset": 395880,
      "componentType": 5126,
      "count": 968,
      "max": [
        0.16184520721435547,
        0.2640424072742462,
        0.26461201906204224
      ],
      "min": [
        -0.18228699266910553,
        -0.265386700630188,
        -0.26482075452804565
      ],
      "type": "VEC3"
    },
    {
      "bufferView": 2,
      "byteOffset": 407496,
      "componentType": 5126,
      "count": 968,
      "max": [
        0.928096354007721,
        0.9997674226760864,
        0.9998077154159546
      ],
      "min": [
        -1.0,
        -0.9997662305831909,
        -0.9996258616447449
      ],
      "type": "VEC3"
    },
    {
      "bufferView": 1,
      "byteOffset": 263920,
      "componentType": 5126,
      "count": 968,
      "max": [
        1.0,
        1.0
      ],
      "min": [
        9.357045138713715e-10,
        0.0
      ],
      "type": "VEC2"
    },
    {
      "bufferView": 1,
      "byteOffset": 271664,
      "componentType": 5126,
      "count": 968,
      "max": [
        0.0,
        1.0
      ],
      "min": [
        0.0,
        1.0
      ],
      "type": "VEC2"
    },
    {
      "bufferView": 0,
      "byteOffset": 208632,
      "componentType": 5125,
      "count": 3048,
      "type": "SCALAR"
    }
  ],
  "asset": {
    "extras": {
      "author": "amogusstrikesback2 (https://sketchfab.com/amogusstrikesback2)",
      "license": "CC-BY-4.0 (http://creativecommons.org/licenses/by/4.0/)",
      "source": "https://sketchfab.com/3d-models/mobile-diner-burnout-revenge-5ef7f12ff26f4471b94836a250398c0b",
      "title": "mobile diner (burnout revenge)"
    },
    "generator": "Sketchfab-16.95.0",
    "version": "2.0"
  },
  "bufferViews": [
    {
      "buffer": 0,
      "byteLength": 220824,
      "name": "floatBufferViews",
      "target": 34963
    },
    {
      "buffer": 0,
      "byteLength": 279408,
      "byteOffset": 220824,
      "byteStride": 8,
      "name": "floatBufferViews",
      "target": 34962
    },
    {
      "buffer": 0,
      "byteLength": 419112,
      "byteOffset": 500232,
      "byteStride": 12,
      "name": "floatBufferViews",
      "target": 34962
    },
    {
      "buffer": 0,
      "byteLength": 26240,
      "byteOffset": 919344,
      "byteStride": 16,
      "name": "floatBufferViews",
      "target": 34962
    }
  ],
  "buffers": [
    {
      "byteLength": 945584,
      "uri": "scene.bin"
    }
  ],
  "images": [
    {
      "uri": "textures/Car3S1_mesh_0_submesh_0_baseColor.png"
    },
    {
      "uri": "textures/Car3S1_mesh_0_submesh_6_baseColor.png"
    },
    {
      "uri": "textures/Car3S1_mesh_0_submesh_7_baseColor.png"
    },
    {
      "uri": "textures/Car3S1_mesh_0_submesh_8_baseColor.png"
    },
    {
      "uri": "textures/Car3S1_mesh_3_submesh_2_baseColor.png"
    },
    {
      "uri": "textures/Car3S1_mesh_5_submesh_1_baseColor.png"
    },
    {
      "uri": "textures/Car3S1_mesh_8_submesh_0_baseColor.png"
    },
    {
      "uri": "textures/Car3S1_mesh_8_submesh_0_normal.png"
    },
    {
      "uri": "textures/Car3S1_mesh_8_submesh_1_baseColor.png"
    },
    {
      "uri": "textures/Car3S1_mesh_8_submesh_2_baseColor.png"
    }
  ],
  "materials": [
    {
      "doubleSided": true,
      "name": "Car3S1_mesh_0_submesh_0",
      "pbrMetallicRoughness": {
        "baseColorTexture": {
          "index": 0
        },
        "metallicFactor": 0.0,
        "roughnessFactor": 0.8040408205773457
      }
    },
    {
      "doubleSided": true,
      "name": "Car3S1_mesh_0_submesh_1",
      "pbrMetallicRoughness": {
        "baseColorTexture": {
          "index": 0
        },
        "metallicFactor": 0.0,
        "roughnessFactor": 0.8040408205773457
      }
    },
    {
      "doubleSided": true,
      "name": "Car3S1_mesh_0_submesh_2",
      "pbrMetallicRoughness": {
        "baseColorTexture": {
          "index": 0
        },
        "metallicFactor": 0.0,
        "roughnessFactor": 0.8040408205773457
      }
    },
    {
      "doubleSided": true,
      "name": "Car3S1_mesh_0_submesh_3",
      "pbrMetallicRoughness": {
        "baseColorTexture": {
          "index": 0
        },
        "metallicFactor": 0.0,
        "roughnessFactor": 0.8040408205773457
      }
    },
    {
      "doubleSided": true,
      "name": "Car3S1_mesh_0_submesh_4",
      "pbrMetallicRoughness": {
        "baseColorTexture": {
          "index": 0
        },
        "metallicFactor": 0.0,
        "roughnessFactor": 0.8040408205773457
      }
    },
    {
      "doubleSided": true,
      "name": "Car3S1_mesh_0_submesh_5",
      "pbrMetallicRoughness": {
        "baseColorTexture": {
          "index": 0
        },
        "metallicFactor": 0.0,
        "roughnessFactor": 0.19595917942265426
      }
    },
    {
      "doubleSided": true,
      "name": "Car3S1_mesh_0_submesh_6",
      "pbrMetallicRoughness": {
        "baseColorTexture": {
          "index": 1
        },
        "metallicFactor": 0.0,
        "roughnessFactor": 0.8040408205773457
      }
    },
    {
      "doubleSided": true,
      "name": "Car3S1_mesh_0_submesh_7",
      "pbrMetallicRoughness": {
        "baseColorTexture": {
          "index": 2
        },
        "metallicFactor": 0.0,
        "roughnessFactor": 0.8040408205773457
      }
    },
    {
      "doubleSided": true,
      "name": "Car3S1_mesh_0_submesh_8",
      "pbrMetallicRoughness": {
        "baseColorTexture": {
          "index": 3
        },
        "metallicFactor": 0.0,
        "roughnessFactor": 0.8040408205773457
      }
    },
    {
      "doubleSided": true,
      "name": "Car3S1_mesh_0_submesh_9",
      "pbrMetallicRoughness": {
        "baseColorTexture": {
          "index": 0
        },
        "metallicFactor": 0.0,
        "roughnessFactor": 0.8040408205773457
      }
    },
    {
      "alphaMode": "BLEND",
      "doubleSided": true,
      "name": "Car3S1_mesh_0_submesh_10",
      "pbrMetallicRoughness": {
        "baseColorFactor": [
          0.0,
          0.0,
          0.0,
          0.502087226658253
        ],
        "metallicFactor": 0.0,
        "roughnessFactor": 0.8040408205773457
      }
    },
    {
      "doubleSided": true,
      "name": "Car3S1_mesh_1_submesh_0",
      "pbrMetallicRoughness": {
        "baseColorTexture": {
          "index": 0
        },
        "metallicFactor": 0.0,
        "roughnessFactor": 0.8040408205773457
      }
    },
    {
      "alphaMode": "BLEND",
      "doubleSided": true,
      "name": "Car3S1_mesh_1_submesh_1",
      "pbrMetallicRoughness": {
        "baseColorFactor": [
          0.0,
          0.0,
          0.0,
          0.4292769943936121
        ],
        "metallicFactor": 0.0,
        "roughnessFactor": 0.8040408205773457
      }
    },
    {
      "doubleSided": true,
      "name": "Car3S1_mesh_2_submesh_0",
      "pbrMetallicRoughness": {
        "baseColorTexture": {
          "index": 0
        },
        "metallicFactor": 0.0,
        "roughnessFactor": 0.8040408205773457
      }
    },
    {
      "alphaMode": "BLEND",
      "doubleSided": true,
      "name": "Car3S1_mesh_2_submesh_1",
      "pbrMetallicRoughness": {
        "baseColorFactor": [
          0.0,
          0.0,
          0.0,
          0.5142222653690265
        ],
        "metallicFactor": 0.0,
        "roughnessFactor": 0.8040408205773457
      }
    },
    {
      "doubleSided": true,
      "name": "Car3S1_mesh_3_submesh_0",
      "pbrMetallicRoughness": {
        "baseColorTexture": {
          "index": 0
        },
        "metallicFactor": 0.0,
        "roughnessFactor": 0.19595917942265426
      }
    },
    {
      "doubleSided": true,
      "name": "Car3S1_mesh_3_submesh_1",
      "pbrMetallicRoughness": {
        "baseColorTexture": {
          "index": 0
        },
        "metallicFactor": 0.0,
        "roughnessFactor": 0.8040408205773457
      }
    },
    {
      "doubleSided": true,
      "name": "Car3S1_mesh_3_submesh_2",
      "pbrMetallicRoughness": {
        "baseColorTexture": {
          "index": 4
        },
        "metallicFactor": 0.0,
        "roughnessFactor": 0.8040408205773457
      }
    },
    {
      "doubleSided": true,
      "name": "Car3S1_mesh_4_submesh_0",
      "pbrMetallicRoughness": {
        "baseColorTexture": {
          "index": 0
        },
        "metallicFactor": 0.0,
        "roughnessFactor": 0.19595917942265426
      }
    },
    {
      "doubleSided": true,
      "name": "Car3S1_mesh_4_submesh_1",
      "pbrMetallicRoughness": {
        "baseColorTexture": {
          "index": 4
        },
        "metallicFactor": 0.0,
        "roughnessFactor": 0.8040408205773457
      }
    },
    {
      "doubleSided": true,
      "name": "Car3S1_mesh_5_submesh_0",
      "pbrMetallicRoughness": {
        "baseColorTexture": {
          "index": 0
        },
        "metallicFactor": 0.0,
        "roughnessFactor": 0.19595917942265426
      }
    },
    {
      "doubleSided": true,
      "name": "Car3S1_mesh_5_submesh_1",
      "pbrMetallicRoughness": {
        "baseColorTexture": {
          "index": 5
        },
        "metallicFactor": 0.0,
        "roughnessFactor": 0.8040408205773457
      }
    },
    {
      "doubleSided": true,
      "name": "Car3S1_mesh_6_submesh_0",
      "pbrMetallicRoughness": {
        "baseColorTexture": {
          "index": 0
        },
        "metallicFactor": 0.0,
        "roughnessFactor": 0.19595917942265426
      }
    },
    {
      "doubleSided": true,
      "name": "Car3S1_mesh_6_submesh_1",
      "pbrMetallicRoughness": {
        "baseColorTexture": {
          "index": 0
        },
        "metallicFactor": 0.0,
        "roughnessFactor": 0.8040408205773457
      }
    },
    {
      "doubleSided": true,
      "name": "Car3S1_mesh_7_submesh_0",
      "pbrMetallicRoughness": {
        "baseColorTexture": {
          "index": 0
        },
        "metallicFactor": 0.0,
        "roughnessFactor": 0.8040408205773457
      }
    },
    {
      "alphaMode": "BLEND",
      "doubleSided": true,
      "name": "Car3S1_mesh_7_submesh_1",
      "pbrMetallicRoughness": {
        "baseColorFactor": [
          0.0,
          0.0,
          0.0,
          0.49601970730286626
        ],
        "metallicFactor": 0.0,
        "roughnessFactor": 0.8040408205773457
      }
    },
    {
      "doubleSided": true,
      "name": "Car3S1_mesh_8_submesh_0",
      "normalTexture": {
        "index": 7
      },
      "pbrMetallicRoughness": {
        "baseColorTexture": {
          "index": 6
        },
        "metallicFactor": 0.0,
        "roughnessFactor": 0.8040408205773457
      }
    },
    {
      "doubleSided": true,
      "name": "Car3S1_mesh_8_submesh_1",
      "pbrMetallicRoughness": {
        "baseColorTexture": {
          "index": 8
        },
        "metallicFactor": 0.0,
        "roughnessFactor": 0.8040408205773457
      }
    },
    {
      "doubleSided": true,
      "name": "Car3S1_mesh_8_submesh_2",
      "pbrMetallicRoughness": {
        "baseColorTexture": {
          "index": 9
        },
        "metallicFactor": 0.0,
        "roughnessFactor": 0.8040408205773457
      }
    }
  ],
  "meshes": [
    {
      "name": "Car3S1_mesh_0_Car3S1_mesh_0_submesh_0_0",
      "primitives": [
        {
          "attributes": {
            "NORMAL": 1,
            "POSITION": 0,
            "TEXCOORD_0": 2,
            "TEXCOORD_1": 3
          },
          "indices": 4,
          "material": 0,
          "mode": 4
        }
      ]
    },
    {
      "name": "Car3S1_mesh_0_Car3S1_mesh_0_submesh_1_0",
      "primitives": [
        {
          "attributes": {
            "NORMAL": 6,
            "POSITION": 5,
            "TEXCOORD_0": 7,
            "TEXCOORD_1": 8
          },
          "indices": 9,
          "material": 1,
          "mode": 4
        }
      ]
    },
    {
      "name": "Car3S1_mesh_0_Car3S1_mesh_0_submesh_2_0",
      "primitives": [
        {
          "attributes": {
            "NORMAL": 11,
            "POSITION": 10,
            "TEXCOORD_0": 12,
            "TEXCOORD_1": 13
          },
          "indices": 14,
          "material": 2,
          "mode": 4
        }
      ]
    },
    {
      "name": "Car3S1_mesh_0_Car3S1_mesh_0_submesh_3_0",
      "primitives": [
        {
          "attributes": {
            "NORMAL": 16,
            "POSITION": 15,
            "TEXCOORD_0": 17,
            "TEXCOORD_1": 18
          },
          "indices": 19,
          "material": 3,
          "mode": 4
        }
      ]
    },
    {
      "name": "Car3S1_mesh_0_Car3S1_mesh_0_submesh_4_0",
      "primitives": [
        {
          "attributes": {
            "NORMAL": 21,
            "POSITION": 20,
            "TEXCOORD_0": 22,
            "TEXCOORD_1": 23
          },
          "indices": 24,
          "material": 4,
          "mode": 4
        }
      ]
    },
    {
      "name": "Car3S1_mesh_0_Car3S1_mesh_0_submesh_5_0",
      "primitives": [
        {
          "attributes": {
            "NORMAL": 26,
            "POSITION": 25,
            "TEXCOORD_0": 27,
            "TEXCOORD_1": 28
          },
          "indices": 29,
          "material": 5,
          "mode": 4
        }
      ]
    },
    {
      "name": "Car3S1_mesh_0_Car3S1_mesh_0_submesh_6_0",
      "primitives": [
        {
          "attributes": {
            "NORMAL": 31,
            "POSITION": 30,
            "TEXCOORD_0": 32,
            "TEXCOORD_1": 33
          },
          "indices": 34,
          "material": 6,
          "mode": 4
        }
      ]
    },
    {
      "name": "Car3S1_mesh_0_Car3S1_mesh_0_submesh_7_0",
      "primitives": [
        {
          "attributes": {
            "NORMAL": 36,
            "POSITION": 35,
            "TEXCOORD_0": 37,
            "TEXCOORD_1": 38
          },
          "indices": 39,
          "material": 7,
          "mode": 4
        }
      ]
    },
    {
      "name": "Car3S1_mesh_0_Car3S1_mesh_0_submesh_8_0",
      "primitives": [
        {
          "attributes": {
            "NORMAL": 41,
            "POSITION": 40,
            "TEXCOORD_0": 42,
            "TEXCOORD_1": 43
          },
          "indices": 44,
          "material": 8,
          "mode": 4
        }
      ]
    },
    {
      "name": "Car3S1_mesh_0_Car3S1_mesh_0_submesh_9_0",
      "primitives": [
        {
          "attributes": {
            "NORMAL": 46,
            "POSITION": 45,
            "TEXCOORD_0": 47,
            "TEXCOORD_1": 48
          },
          "indices": 49,
          "material": 9,
          "mode": 4
        }
      ]
    },
    {
      "name": "Car3S1_mesh_0_Car3S1_mesh_0_submesh_10_0",
      "primitives": [
        {
          "attributes": {
            "NORMAL": 51,
            "POSITION": 50,
            "TEXCOORD_0": 52,
            "TEXCOORD_1": 53
          },
          "indices": 54,
          "material": 10,
          "mode": 4
        }
      ]
    },
    {
      "name": "Car3S1_mesh_1_Car3S1_mesh_1_submesh_0_0",
      "primitives": [
        {
          "attributes": {
            "NORMAL": 56,
            "POSITION": 55,
            "TEXCOORD_0": 57,
            "TEXCOORD_1": 58
          },
          "indices": 59,
          "material": 11,
          "mode": 4
        }
      ]
    },
    {
      "name": "Car3S1_mesh_1_Car3S1_mesh_1_submesh_1_0",
      "primitives": [
        {
          "attributes": {
            "NORMAL": 61,
            "POSITION": 60,
            "TEXCOORD_0": 62,
            "TEXCOORD_1": 63
          },
          "indices": 64,
          "material": 12,
          "mode": 4
        }
      ]
    },
    {
      "name": "Car3S1_mesh_2_Car3S1_mesh_2_submesh_0_0",
      "primitives": [
        {
          "attributes": {
            "NORMAL": 66,
            "POSITION": 65,
            "TEXCOORD_0": 67,
            "TEXCOORD_1": 68
          },
          "indices": 69,
          "material": 13,
          "mode": 4
        }
      ]
    },
    {
      "name": "Car3S1_mesh_2_Car3S1_mesh_2_submesh_1_0",
      "primitives": [
        {
          "attributes": {
            "NORMAL": 71,
            "POSITION": 70,
            "TEXCOORD_0": 72,
            "TEXCOORD_1": 73
          },
          "indices": 74,
          "material": 14,
          "mode": 4
        }
      ]
    },
    {
      "name": "Car3S1_mesh_3_Car3S1_mesh_3_submesh_0_0",
      "primitives": [
        {
          "attributes": {
            "NORMAL": 76,
            "POSITION": 75,
            "TEXCOORD_0": 77,
            "TEXCOORD_1": 78
          },
          "indices": 79,
          "material": 15,
          "mode": 4
        }
      ]
    },
    {
      "name": "Car3S1_mesh_3_Car3S1_mesh_3_submesh_1_0",
      "primitives": [
        {
          "attributes": {
            "NORMAL": 81,
            "POSITION": 80,
            "TEXCOORD_0": 82,
            "TEXCOORD_1": 83
          },
          "indices": 84,
          "material": 16,
          "mode": 4
        }
      ]
    },
    {
      "name": "Car3S1_mesh_3_Car3S1_mesh_3_submesh_2_0",
      "primitives": [
        {
          "attributes": {
            "NORMAL": 86,
            "POSITION": 85,
            "TEXCOORD_0": 87,
            "TEXCOORD_1": 88
          },
          "indices": 89,
          "material": 17,
          "mode": 4
        }
      ]
    },
    {
      "name": "Car3S1_mesh_4_Car3S1_mesh_4_submesh_0_0",
      "primitives": [
        {
          "attributes": {
            "NORMAL": 91,
            "POSITION": 90,
            "TEXCOORD_0": 92,
            "TEXCOORD_1": 93
          },
          "indices": 94,
          "material": 18,
          "mode": 4
        }
      ]
    },
    {
      "name": "Car3S1_mesh_4_Car3S1_mesh_4_submesh_1_0",
      "primitives": [
        {
          "attributes": {
            "NORMAL": 96,
            "POSITION": 95,
            "TEXCOORD_0": 97,
            "TEXCOORD_1": 98
          },
          "indices": 99,
          "material": 19,
          "mode": 4
        }
      ]
    },
    {
      "name": "Car3S1_mesh_5_Car3S1_mesh_5_submesh_0_0",
      "primitives": [
        {
          "attributes": {
            "NORMAL": 101,
            "POSITION": 100,
            "TEXCOORD_0": 102,
            "TEXCOORD_1": 103
          },
          "indices": 104,
          "material": 20,
          "mode": 4
        }
      ]
    },
    {
      "name": "Car3S1_mesh_5_Car3S1_mesh_5_submesh_1_0",
      "primitives": [
        {
          "attributes": {
            "NORMAL": 106,
            "POSITION": 105,
            "TEXCOORD_0": 107,
            "TEXCOORD_1": 108
          },
          "indices": 109,
          "material": 21,
          "mode": 4
        }
      ]
    },
    {
      "name": "Car3S1_mesh_6_Car3S1_mesh_6_submesh_0_0",
      "primitives": [
        {
          "attributes": {
            "NORMAL": 111,
            "POSITION": 110,
            "TEXCOORD_0": 112,
            "TEXCOORD_1": 113
          },
          "indices": 114,
          "material": 22,
          "mode": 4
        }
      ]
    },
    {
      "name": "Car3S1_mesh_6_Car3S1_mesh_6_submesh_1_0",
      "primitives": [
        {
          "attributes": {
            "NORMAL": 116,
            "POSITION": 115,
            "TEXCOORD_0": 117,
            "TEXCOORD_1": 118
          },
          "indices": 119,
          "material": 23,
          "mode": 4
        }
      ]
    },
    {
      "name": "Car3S1_mesh_7_Car3S1_mesh_7_submesh_0_0",
      "primitives": [
        {
          "attributes": {
            "NORMAL": 121,
            "POSITION": 120,
            "TEXCOORD_0": 122,
            "TEXCOORD_1": 123
          },
          "indices": 124,
          "material": 24,
          "mode": 4
        }
      ]
    },
    {
      "name": "Car3S1_mesh_7_Car3S1_mesh_7_submesh_1_0",
      "primitives": [
        {
          "attributes": {
            "NORMAL": 126,
            "POSITION": 125,
            "TEXCOORD_0": 127,
            "TEXCOORD_1": 128
          },
          "indices": 129,
          "material": 25,
          "mode": 4
        }
      ]
    },
    {
      "name": "Car3S1_mesh_8_Car3S1_mesh_8_submesh_0_0",
      "primitives": [
        {
          "attributes": {
            "NORMAL": 131,
            "POSITION": 130,
            "TANGENT": 132,
            "TEXCOORD_0": 133,
            "TEXCOORD_1": 134
          },
          "indices": 135,
          "material": 26,
          "mode": 4
        }
      ]
    },
    {
      "name": "Car3S1_mesh_8_Car3S1_mesh_8_submesh_1_0",
      "primitives": [
        {
          "attributes": {
            "NORMAL": 137,
            "POSITION": 136,
            "TEXCOORD_0": 138,
            "TEXCOORD_1": 139
          },
          "indices": 140,
          "material": 27,
          "mode": 4
        }
      ]
    },
    {
      "name": "Car3S1_mesh_8_Car3S1_mesh_8_submesh_2_0",
      "primitives": [
        {
          "attributes": {
            "NORMAL": 142,
            "POSITION": 141,
            "TEXCOORD_0": 143,
            "TEXCOORD_1": 144
          },
          "indices": 145,
          "material": 28,
          "mode": 4
        }
      ]
    },
    {
      "name": "Car3S1_mesh_8.001_Car3S1_mesh_8_submesh_0_0",
      "primitives": [
        {
          "attributes": {
            "NORMAL": 147,
            "POSITION": 146,
            "TANGENT": 148,
            "TEXCOORD_0": 149,
            "TEXCOORD_1": 150
          },
          "indices": 151,
          "material": 26,
          "mode": 4
        }
      ]
    },
    {
      "name": "Car3S1_mesh_8.001_Car3S1_mesh_8_submesh_1_0",
      "primitives": [
        {
          "attributes": {
            "NORMAL": 153,
            "POSITION": 152,
            "TEXCOORD_0": 154,
            "TEXCOORD_1": 155
          },
          "indices": 156,
          "material": 27,
          "mode": 4
        }
      ]
    },
    {
      "name": "Car3S1_mesh_8.001_Car3S1_mesh_8_submesh_2_0",
      "primitives": [
        {
          "attributes": {
            "NORMAL": 158,
            "POSITION": 157,
            "TEXCOORD_0": 159,
            "TEXCOORD_1": 160
          },
          "indices": 161,
          "material": 28,
          "mode": 4
        }
      ]
    },
    {
      "name": "Car3S1_mesh_8.002_Car3S1_mesh_8_submesh_0_0",
      "primitives": [
        {
          "attributes": {
            "NORMAL": 163,
            "POSITION": 162,
            "TANGENT": 164,
            "TEXCOORD_0": 165,
            "TEXCOORD_1": 166
          },
          "indices": 167,
          "material": 26,
          "mode": 4
        }
      ]
    },
    {
      "name": "Car3S1_mesh_8.002_Car3S1_mesh_8_submesh_1_0",
      "primitives": [
        {
          "attributes": {
            "NORMAL": 169,
            "POSITION": 168,
            "TEXCOORD_0": 170,
            "TEXCOORD_1": 171
          },
          "indices": 172,
          "material": 27,
          "mode": 4
        }
      ]
    },
    {
      "name": "Car3S1_mesh_8.002_Car3S1_mesh_8_submesh_2_0",
      "primitives": [
        {
          "attributes": {
            "NORMAL": 174,
            "POSITION": 173,
            "TEXCOORD_0": 175,
            "TEXCOORD_1": 176
          },
          "indices": 177,
          "material": 28,
          "mode": 4
        }
      ]
    },
    {
      "name": "Car3S1_mesh_8.003_Car3S1_mesh_8_submesh_0_0",
      "primitives": [
        {
          "attributes": {
            "NORMAL": 179,
            "POSITION": 178,
            "TANGENT": 180,
            "TEXCOORD_0": 181,
            "TEXCOORD_1": 182
          },
          "indices": 183,
          "material": 26,
          "mode": 4
        }
      ]
    },
    {
      "name": "Car3S1_mesh_8.003_Car3S1_mesh_8_submesh_1_0",
      "primitives": [
        {
          "attributes": {
            "NORMAL": 185,
            "POSITION": 184,
            "TEXCOORD_0": 186,
            "TEXCOORD_1": 187
          },
          "indices": 188,
          "material": 27,
          "mode": 4
        }
      ]
    },
    {
      "name": "Car3S1_mesh_8.003_Car3S1_mesh_8_submesh_2_0",
      "primitives": [
        {
          "attributes": {
            "NORMAL": 190,
            "POSITION": 189,
            "TEXCOORD_0": 191,
            "TEXCOORD_1": 192
          },
          "indices": 193,
          "material": 28,
          "mode": 4
        }
      ]
    }
  ],
  "nodes": [
    {
      "children": [
        1
      ],
      "matrix": [
        1.0,
        0.0,
        0.0,
        0.0,
        0.0,
        2.220446049250313e-16,
        -1.0,
        0.0,
        0.0,
        1.0,
        2.220446049250313e-16,
        0.0,
        0.0,
        0.0,
        0.0,
        1.0
      ],
      "name": "Sketchfab_model"
    },
    {
      "children": [
        2
      ],
      "matrix": [
        0.009999999776482582,
        0.0,
        0.0,
        0.0,
        0.0,
        0.0,
        0.009999999776482582,
        0.0,
        0.0,
        -0.009999999776482582,
        0.0,
        0.0,
        0.0,
        0.0,
        0.0,
        1.0
      ],
      "name": "Car3S1.fbx"
    },
    {
      "children": [
        3,
        15,
        18,
        21,
        25,
        28,
        31,
        34,
        37,
        41,
        45,
        49
      ],
      "name": "RootNode"
    },
    {
      "children": [
        4,
        5,
        6,
        7,
        8,
        9,
        10,
        11,
        12,
        13,
        14
      ],
      "matrix": [
        100.0,
        0.0,
        0.0,
        0.0,
        0.0,
        99.99999999999866,
        1.6292067073209114e-05,
        0.0,
        0.0,
        -1.6292067073209114e-05,
        99.99999999999866,
        0.0,
        0.0,
        36.99119186401367,
        1.6169362879736582e-06,
        1.0
      ],
      "name": "Car3S1_mesh_0"
    },
    {
      "mesh": 0,
      "name": "Car3S1_mesh_0_Car3S1_mesh_0_submesh_0_0"
    },
    {
      "mesh": 1,
      "name": "Car3S1_mesh_0_Car3S1_mesh_0_submesh_1_0"
    },
    {
      "mesh": 2,
      "name": "Car3S1_mesh_0_Car3S1_mesh_0_submesh_2_0"
    },
    {
      "mesh": 3,
      "name": "Car3S1_mesh_0_Car3S1_mesh_0_submesh_3_0"
    },
    {
      "mesh": 4,
      "name": "Car3S1_mesh_0_Car3S1_mesh_0_submesh_4_0"
    },
    {
      "mesh": 5,
      "name": "Car3S1_mesh_0_Car3S1_mesh_0_submesh_5_0"
    },
    {
      "mesh": 6,
      "name": "Car3S1_mesh_0_Car3S1_mesh_0_submesh_6_0"
    },
    {
      "mesh": 7,
      "name": "Car3S1_mesh_0_Car3S1_mesh_0_submesh_7_0"
    },
    {
      "mesh": 8,
      "name": "Car3S1_mesh_0_Car3S1_mesh_0_submesh_8_0"
    },
    {
      "mesh": 9,
      "name": "Car3S1_mesh_0_Car3S1_mesh_0_submesh_9_0"
    },
    {
      "mesh": 10,
      "name": "Car3S1_mesh_0_Car3S1_mesh_0_submesh_10_0"
    },
    {
      "children": [
        16,
        17
      ],
      "matrix": [
        100.0,
        0.0,
        0.0,
        0.0,
        0.0,
        99.99999999999866,
        1.6292067073209114e-05,
        0.0,
        0.0,
        -1.6292067073209114e-05,
        99.99999999999866,
        0.0,
        86.0,
        100.9911880493164,
        88.00000762939453,
        1.0
      ],
      "name": "Car3S1_mesh_1"
    },
    {
      "mesh": 11,
      "name": "Car3S1_mesh_1_Car3S1_mesh_1_submesh_0_0"
    },
    {
      "mesh": 12,
      "name": "Car3S1_mesh_1_Car3S1_mesh_1_submesh_1_0"
    },
    {
      "children": [
        19,
        20
      ],
      "matrix": [
        100.0,
        0.0,
        0.0,
        0.0,
        0.0,
        99.99999999999866,
        1.6292067073209114e-05,
        0.0,
        0.0,
        -1.6292067073209114e-05,
        99.99999999999866,
        0.0,
        -84.0,
        102.99119567871094,
        90.0,
        1.0
      ],
      "name": "Car3S1_mesh_2"
    },
    {
      "mesh": 13,
      "name": "Car3S1_mesh_2_Car3S1_mesh_2_submesh_0_0"
    },
    {
      "mesh": 14,
      "name": "Car3S1_mesh_2_Car3S1_mesh_2_submesh_1_0"
    },
    {
      "children": [
        22,
        23,
        24
      ],
      "matrix": [
        100.0,
        0.0,
        0.0,
        0.0,
        0.0,
        99.99999999999866,
        1.6292067073209114e-05,
        0.0,
        0.0,
        -1.6292067073209114e-05,
        99.99999999999866,
        0.0,
        0.0,
        56.99117660522461,
        270.0,
        1.0
      ],
      "name": "Car3S1_mesh_3"
    },
    {
      "mesh": 15,
      "name": "Car3S1_mesh_3_Car3S1_mesh_3_submesh_0_0"
    },
    {
      "mesh": 16,
      "name": "Car3S1_mesh_3_Car3S1_mesh_3_submesh_1_0"
    },
    {
      "mesh": 17,
      "name": "Car3S1_mesh_3_Car3S1_mesh_3_submesh_2_0"
    },
    {
      "children": [
        26,
        27
      ],
      "matrix": [
        100.0,
        0.0,
        0.0,
        0.0,
        0.0,
        99.99999999999866,
        1.6292067073209114e-05,
        0.0,
        0.0,
        -1.6292067073209114e-05,
        99.99999999999866,
        0.0,
        0.0,
        48.9911994934082,
        -238.00001525878906,
        1.0
      ],
      "name": "Car3S1_mesh_4"
    },
    {
      "mesh": 18,
      "name": "Car3S1_mesh_4_Car3S1_mesh_4_submesh_0_0"
    },
    {
      "mesh": 19,
      "name": "Car3S1_mesh_4_Car3S1_mesh_4_submesh_1_0"
    },
    {
      "children": [
        29,
        30
      ],
      "matrix": [
        100.0,
        0.0,
        0.0,
        0.0,
        0.0,
        99.99999999999866,
        1.6292067073209114e-05,
        0.0,
        0.0,
        -1.6292067073209114e-05,
        99.99999999999866,
        0.0,
        0.0,
        124.99118041992188,
        248.0,
        1.0
      ],
      "name": "Car3S1_mesh_5"
    },
    {
      "mesh": 20,
      "name": "Car3S1_mesh_5_Car3S1_mesh_5_submesh_0_0"
    },
    {
      "mesh": 21,
      "name": "Car3S1_mesh_5_Car3S1_mesh_5_submesh_1_0"
    },
    {
      "children": [
        32,
        33
      ],
      "matrix": [
        100.0,
        0.0,
        0.0,
        0.0,
        0.0,
        99.99999999999866,
        1.6292067073209114e-05,
        0.0,
        0.0,
        -1.6292067073209114e-05,
        99.99999999999866,
        0.0,
        0.0,
        126.99120330810547,
        -268.0,
        1.0
      ],
      "name": "Car3S1_mesh_6"
    },
    {
      "mesh": 22,
      "name": "Car3S1_mesh_6_Car3S1_mesh_6_submesh_0_0"
    },
    {
      "mesh": 23,
      "name": "Car3S1_mesh_6_Car3S1_mesh_6_submesh_1_0"
    },
    {
      "children": [
        35,
        36
      ],
      "matrix": [
        100.0,
        0.0,
        0.0,
        0.0,
        0.0,
        99.99999999999866,
        1.6292067073209114e-05,
        0.0,
        0.0,
        -1.6292067073209114e-05,
        99.99999999999866,
        0.0,
        0.0,
        151.99118041992188,
        180.0,
        1.0
      ],
      "name": "Car3S1_mesh_7"
    },
    {
      "mesh": 24,
      "name": "Car3S1_mesh_7_Car3S1_mesh_7_submesh_0_0"
    },
    {
      "mesh": 25,
      "name": "Car3S1_mesh_7_Car3S1_mesh_7_submesh_1_0"
    },
    {
      "children": [
        38,
        39,
        40
      ],
      "matrix": [
        100.0,
        0.0,
        0.0,
        0.0,
        0.0,
        99.99999999999866,
        1.6292067073209114e-05,
        0.0,
        0.0,
        -1.6292067073209114e-05,
        99.99999999999866,
        0.0,
        -88.0,
        36.991180419921875,
        213.3098602294922,
        1.0
      ],
      "name": "Car3S1_mesh_8"
    },
    {
      "mesh": 26,
      "name": "Car3S1_mesh_8_Car3S1_mesh_8_submesh_0_0"
    },
    {
      "mesh": 27,
      "name": "Car3S1_mesh_8_Car3S1_mesh_8_submesh_1_0"
    },
    {
      "mesh": 28,
      "name": "Car3S1_mesh_8_Car3S1_mesh_8_submesh_2_0"
    },
    {
      "children": [
        42,
        43,
        44
      ],
      "matrix": [
        -99.99999999999851,
        -8.742277669593944e-06,
        1.5099579909783714e-05,
        0.0,
        -8.742278809580394e-06,
        99.99999999999933,
        -7.5497886731563165e-06,
        0.0,
        -1.5099579249760125e-05,
        -7.549789993203577e-06,
        -99.99999999999861,
        0.0,
        88.0,
        36.991180419921875,
        213.3098602294922,
        1.0
      ],
      "name": "Car3S1_mesh_8.001"
    },
    {
      "mesh": 29,
      "name": "Car3S1_mesh_8.001_Car3S1_mesh_8_submesh_0_0"
    },
    {
      "mesh": 30,
      "name": "Car3S1_mesh_8.001_Car3S1_mesh_8_submesh_1_0"
    },
    {
      "mesh": 31,
      "name": "Car3S1_mesh_8.001_Car3S1_mesh_8_submesh_2_0"
    },
    {
      "children": [
        46,
        47,
        48
      ],
      "matrix": [
        100.0,
        0.0,
        0.0,
        0.0,
        0.0,
        99.99999999999866,
        1.6292067073209114e-05,
        0.0,
        0.0,
        -1.6292067073209114e-05,
        99.99999999999866,
        0.0,
        -88.0,
        36.99119567871094,
        -110.54373931884766,
        1.0
      ],
      "name": "Car3S1_mesh_8.002"
    },
    {
      "mesh": 32,
      "name": "Car3S1_mesh_8.002_Car3S1_mesh_8_submesh_0_0"
    },
    {
      "mesh": 33,
      "name": "Car3S1_mesh_8.002_Car3S1_mesh_8_submesh_1_0"
    },
    {
      "mesh": 34,
      "name": "Car3S1_mesh_8.002_Car3S1_mesh_8_submesh_2_0"
    },
    {
      "children": [
        50,
        51,
        52
      ],
      "matrix": [
        -99.99999999999851,
        -8.742277669593944e-06,
        1.5099579909783714e-05,
        0.0,
        -8.742278809580394e-06,
        99.99999999999933,
        -7.5497886731563165e-06,
        0.0,
        -1.5099579249760125e-05,
        -7.549789993203577e-06,
        -99.99999999999861,
        0.0,
        88.0,
        36.99119567871094,
        -110.54373931884766,
        1.0
      ],
      "name": "Car3S1_mesh_8.003"
    },
    {
      "mesh": 35,
      "name": "Car3S1_mesh_8.003_Car3S1_mesh_8_submesh_0_0"
    },
    {
      "mesh": 36,
      "name": "Car3S1_mesh_8.003_Car3S1_mesh_8_submesh_1_0"
    },
    {
      "mesh": 37,
      "name": "Car3S1_mesh_8.003_Car3S1_mesh_8_submesh_2_0"
    }
  ],
  "samplers": [
    {
      "magFilter": 9729,
      "minFilter": 9987,
      "wrapS": 10497,
      "wrapT": 10497
    }
  ],
  "scene": 0,
  "scenes": [
    {
      "name": "Sketchfab_Scene",
      "nodes": [
        0
      ]
    }
  ],
  "textures": [
    {
      "sampler": 0,
      "source": 0
    },
    {
      "sampler": 0,
      "source": 1
    },
    {
      "sampler": 0,
      "source": 2
    },
    {
      "sampler": 0,
      "source": 3
    },
    {
      "sampler": 0,
      "source": 4
    },
    {
      "sampler": 0,
      "source": 5
    },
    {
      "sampler": 0,
      "source": 6
    },
    {
      "sampler": 0,
      "source": 7
    },
    {
      "sampler": 0,
      "source": 8
    },
    {
      "sampler": 0,
      "source": 9
    }
  ]
}
