{
  "accessors": [
    {
      "bufferView": 2,
      "componentType": 5126,
      "count": 49984,
      "max": [
        3.8194000720977783,
        5.440199851989746,
        9.3681001663208
      ],
      "min": [
        -3.8183000087738037,
        -0.04639999940991402,
        -0.003599999938160181
      ],
      "type": "VEC3"
    },
    {
      "bufferView": 2,
      "byteOffset": 599808,
      "componentType": 5126,
      "count": 49984,
      "max": [
        1.0,
        1.0,
        1.0
      ],
      "min": [
        -1.0,
        -1.0,
        -1.0
      ],
      "type": "VEC3"
    },
    {
      "bufferView": 1,
      "componentType": 5126,
      "count": 49984,
      "max": [
        2.6249001026153564,
        1.9993000030517578
      ],
      "min": [
        0.0020000000949949026,
        1.0006999969482422
      ],
      "type": "VEC2"
    },
    {
      "bufferView": 0,
      "componentType": 5125,
      "count": 166536,
      "type": "SCALAR"
    }
  ],
  "asset": {
    "extras": {
      "author": "Muhamad Mirza Arrafi (https://sketchfab.com/nazidefenseforceofficial)",
      "license": "CC-BY-4.0 (http://creativecommons.org/licenses/by/4.0/)",
      "source": "https://sketchfab.com/3d-models/blue-archive-kaiser-pmc-military-robots-0e4d8553a9314787a5207b3da2e79b98",
      "title": "[Blue Archive] Kaiser PMC Military Robots"
    },
    "generator": "Sketchfab-16.59.0",
    "version": "2.0"
  },
  "bufferViews": [
    {
      "buffer": 0,
      "byteLength": 666144,
      "name": "floatBufferViews",
      "target": 34963
    },
    {
      "buffer": 0,
      "byteLength": 399872,
      "byteOffset": 666144,
      "byteStride": 8,
      "name": "floatBufferViews",
      "target": 34962
    },
    {
      "buffer": 0,
      "byteLength": 1199616,
      "byteOffset": 1066016,
      "byteStride": 12,
      "name": "floatBufferViews",
      "target": 34962
    }
  ],
  "buffers": [
    {
      "byteLength": 2265632,
      "uri": "scene.bin"
    }
  ],
  "images": [
    {
      "uri": "textures/NewMat01_baseColor.jpeg"
    }
  ],
  "materials": [
    {
      "doubleSided": true,
      "name": "NewMat01",
      "pbrMetallicRoughness": {
        "baseColorTexture": {
          "index": 0
        },
        "metallicFactor": 0.0,
        "roughnessFactor": 0.30000000000000004
      }
    }
  ],
  "meshes": [
    {
      "name": "Object_0",
      "primitives": [
        {
          "attributes": {
            "NORMAL": 1,
            "POSITION": 0,
            "TEXCOORD_0": 2
          },
          "indices": 3,
          "material": 0,
          "mode": 4
        }
      ]
    }
  ],
  "nodes": [
    {
      "children": [
        1
      ],
      "matrix": [
        1.0,
        0.0,
        0.0,
        0.0,
        0.0,
        2.220446049250313e-16,
        -1.0,
        0.0,
        0.0,
        1.0,
        2.220446049250313e-16,
        0.0,
        0.0,
        0.0,
        0.0,
        1.0
      ],
      "name": "Sketchfab_model"
    },
    {
      "children": [
        2
      ],
      "name": "Kaiser PMC Military Robots Blue Archive.obj.cleaner.materialmerger.gles"
    },
    {
      "mesh": 0,
      "name": "Object_2"
    }
  ],
  "samplers": [
    {
      "magFilter": 9729,
      "minFilter": 9987,
      "wrapS": 10497,
      "wrapT": 10497
    }
  ],
  "scene": 0,
  "scenes": [
    {
      "name": "Sketchfab_Scene",
      "nodes": [
        0
      ]
    }
  ],
  "textures": [
    {
      "sampler": 0,
      "source": 0
    }
  ]
}
