{
  "accessors": [
    {
      "bufferView": 2,
      "componentType": 5126,
      "count": 437,
      "max": [
        1291.3843994140625,
        838.2863159179688,
        -182.51397705078125
      ],
      "min": [
        1125.246337890625,
        244.20343017578125,
        -776.5968627929688
      ],
      "type": "VEC3"
    },
    {
      "bufferView": 2,
      "byteOffset": 5244,
      "componentType": 5126,
      "count": 437,
      "max": [
        1.0,
        1.0,
        1.0
      ],
      "min": [
        -3.7927591165498598e-06,
        -1.0,
        -1.0
      ],
      "type": "VEC3"
    },
    {
      "bufferView": 3,
      "componentType": 5126,
      "count": 437,
      "max": [
        0.9990129470825195,
        0.48729509115219116,
        3.396845158931683e-06,
        1.0
      ],
      "min": [
        -0.9990129470825195,
        -0.480988472700119,
        -1.0,
        1.0
      ],
      "type": "VEC4"
    },
    {
      "bufferView": 1,
      "componentType": 5126,
      "count": 437,
      "max": [
        0.9999998807907104,
        0.9999998807907104
      ],
      "min": [
        1.3532962839235552e-07,
        1.65074709457258e-07
      ],
      "type": "VEC2"
    },
    {
      "bufferView": 1,
      "byteOffset": 3496,
      "componentType": 5126,
      "count": 437,
      "max": [
        0.9999999403953552,
        1.0
      ],
      "min": [
        5.960464477539063e-08,
        2.9802322387695313e-08
      ],
      "type": "VEC2"
    },
    {
      "bufferView": 0,
      "componentType": 5125,
      "count": 1188,
      "type": "SCALAR"
    },
    {
      "bufferView": 2,
      "byteOffset": 10488,
      "componentType": 5126,
      "count": 954,
      "max": [
        1240.33203125,
        1066.3741455078125,
        45.573936462402344
      ],
      "min": [
        897.5576171875,
        16.115474700927734,
        -1004.6845703125
      ],
      "type": "VEC3"
    },
    {
      "bufferView": 2,
      "byteOffset": 21936,
      "componentType": 5126,
      "count": 954,
      "max": [
        0.9951751828193665,
        1.0,
        1.0
      ],
      "min": [
        -0.9951752424240112,
        -1.0,
        -1.0
      ],
      "type": "VEC3"
    },
    {
      "bufferView": 3,
      "byteOffset": 6992,
      "componentType": 5126,
      "count": 954,
      "max": [
        0.7892627716064453,
        1.0,
        1.0,
        1.0
      ],
      "min": [
        -0.7892639636993408,
        -1.0,
        -1.0,
        -1.0
      ],
      "type": "VEC4"
    },
    {
      "bufferView": 1,
      "byteOffset": 6992,
      "componentType": 5126,
      "count": 954,
      "max": [
        1.0,
        1.0
      ],
      "min": [
        0.0,
        0.0
      ],
      "type": "VEC2"
    },
    {
      "bufferView": 1,
      "byteOffset": 14624,
      "componentType": 5126,
      "count": 954,
      "max": [
        1240.33203125,
        1066.3741455078125
      ],
      "min": [
        897.5576171875,
        16.115474700927734
      ],
      "type": "VEC2"
    },
    {
      "bufferView": 0,
      "byteOffset": 4752,
      "componentType": 5125,
      "count": 4320,
      "type": "SCALAR"
    },
    {
      "bufferView": 2,
      "byteOffset": 33384,
      "componentType": 5126,
      "count": 664,
      "max": [
        1309.727294921875,
        719.1387329101563,
        -301.66156005859375
      ],
      "min": [
        1278.496826171875,
        363.3509521484375,
        -657.4492797851563
      ],
      "type": "VEC3"
    },
    {
      "bufferView": 2,
      "byteOffset": 41352,
      "componentType": 5126,
      "count": 664,
      "max": [
        1.0,
        0.9947896599769592,
        0.9947896599769592
      ],
      "min": [
        -1.4279360584623646e-05,
        -0.9947896599769592,
        -0.9947896599769592
      ],
      "type": "VEC3"
    },
    {
      "bufferView": 1,
      "byteOffset": 22256,
      "componentType": 5126,
      "count": 664,
      "max": [
        0.08524999767541885,
        0.513700008392334
      ],
      "min": [
        0.07769999653100967,
        0.5066999793052673
      ],
      "type": "VEC2"
    },
    {
      "bufferView": 1,
      "byteOffset": 27568,
      "componentType": 5126,
      "count": 664,
      "max": [
        0.8336489796638489,
        0.8302697539329529
      ],
      "min": [
        0.46406853199005127,
        0.3487265110015869
      ],
      "type": "VEC2"
    },
    {
      "bufferView": 0,
      "byteOffset": 22032,
      "componentType": 5125,
      "count": 1248,
      "type": "SCALAR"
    }
  ],
  "asset": {
    "extras": {
      "author": "Adelprince69 (https://sketchfab.com/Adelprince69)",
      "license": "CC-BY-4.0 (http://creativecommons.org/licenses/by/4.0/)",
      "source": "https://sketchfab.com/3d-models/truck-tire-4c2bbcb76cc0401580c164d826c54eaf",
      "title": "Truck Tire"
    },
    "generator": "Sketchfab-14.65.0",
    "version": "2.0"
  },
  "bufferViews": [
    {
      "buffer": 0,
      "byteLength": 27024,
      "name": "floatBufferViews",
      "target": 34963
    },
    {
      "buffer": 0,
      "byteLength": 32880,
      "byteOffset": 27024,
      "byteStride": 8,
      "name": "floatBufferViews",
      "target": 34962
    },
    {
      "buffer": 0,
      "byteLength": 49320,
      "byteOffset": 59904,
      "byteStride": 12,
      "name": "floatBufferViews",
      "target": 34962
    },
    {
      "buffer": 0,
      "byteLength": 22256,
      "byteOffset": 109224,
      "byteStride": 16,
      "name": "floatBufferViews",
      "target": 34962
    }
  ],
  "buffers": [
    {
      "byteLength": 131480,
      "uri": "scene.bin"
    }
  ],
  "extensionsUsed": [
    "KHR_materials_specular"
  ],
  "images": [
    {
      "uri": "textures/Material_338_metallicRoughness.png"
    },
    {
      "uri": "textures/Material_338_normal.png"
    },
    {
      "uri": "textures/Material_276_baseColor.jpeg"
    },
    {
      "uri": "textures/Material_276_metallicRoughness.png"
    },
    {
      "uri": "textures/Material_276_normal.png"
    },
    {
      "uri": "textures/Material_276_specularf0.png"
    }
  ],
  "materials": [
    {
      "doubleSided": true,
      "extensions": {
        "KHR_materials_specular": {
          "specularColorFactor": [
            1.0,
            1.0,
            1.0
          ],
          "specularFactor": 0.14324662976885347
        }
      },
      "name": "Material_338",
      "normalTexture": {
        "index": 1
      },
      "occlusionTexture": {
        "index": 0
      },
      "pbrMetallicRoughness": {
        "baseColorFactor": [
          0.7729021452363412,
          0.7729021452363412,
          0.7729021452363412,
          1.0
        ],
        "metallicRoughnessTexture": {
          "index": 0
        },
        "roughnessFactor": 0.4328881668838978
      }
    },
    {
      "doubleSided": true,
      "extensions": {
        "KHR_materials_specular": {
          "specularColorFactor": [
            1.0,
            1.0,
            1.0
          ],
          "specularFactor": 1.0,
          "specularTexture": {
            "index": 5
          }
        }
      },
      "name": "Material_276",
      "normalTexture": {
        "index": 4
      },
      "pbrMetallicRoughness": {
        "baseColorTexture": {
          "index": 2
        },
        "metallicFactor": 0.6028951560601195,
        "metallicRoughnessTexture": {
          "index": 3
        },
        "roughnessFactor": 0.9555022447219126
      }
    },
    {
      "doubleSided": true,
      "extensions": {
        "KHR_materials_specular": {
          "specularColorFactor": [
            1.0,
            1.0,
            1.0
          ],
          "specularFactor": 0.4014053911105234
        }
      },
      "name": "Material_291",
      "pbrMetallicRoughness": {
        "baseColorFactor": [
          0.8421642519377648,
          0.8421642519377648,
          0.8421642519377648,
          1.0
        ],
        "roughnessFactor": 0.2943639534810505
      }
    }
  ],
  "meshes": [
    {
      "name": "Object021_Material #338_0",
      "primitives": [
        {
          "attributes": {
            "NORMAL": 1,
            "POSITION": 0,
            "TANGENT": 2,
            "TEXCOORD_0": 3,
            "TEXCOORD_1": 4
          },
          "indices": 5,
          "material": 0,
          "mode": 4
        }
      ]
    },
    {
      "name": "Object021_Material #276_0",
      "primitives": [
        {
          "attributes": {
            "NORMAL": 7,
            "POSITION": 6,
            "TANGENT": 8,
            "TEXCOORD_0": 9,
            "TEXCOORD_1": 10
          },
          "indices": 11,
          "material": 1,
          "mode": 4
        }
      ]
    },
    {
      "name": "Object021_Material #291_0",
      "primitives": [
        {
          "attributes": {
            "NORMAL": 13,
            "POSITION": 12,
            "TEXCOORD_0": 14,
            "TEXCOORD_1": 15
          },
          "indices": 16,
          "material": 2,
          "mode": 4
        }
      ]
    }
  ],
  "nodes": [
    {
      "children": [
        1
      ],
      "matrix": [
        1.0,
        0.0,
        0.0,
        0.0,
        0.0,
        2.220446049250313e-16,
        -1.0,
        0.0,
        0.0,
        1.0,
        2.220446049250313e-16,
        0.0,
        0.0,
        0.0,
        0.0,
        1.0
      ],
      "name": "Sketchfab_model"
    },
    {
      "children": [
        2
      ],
      "matrix": [
        0.0010000000474974513,
        0.0,
        0.0,
        0.0,
        0.0,
        0.0,
        0.0010000000474974513,
        0.0,
        0.0,
        -0.0010000000474974513,
        0.0,
        0.0,
        0.0,
        0.0,
        0.0,
        1.0
      ],
      "name": "b9c90b0354d14e7a8f02ffd3812bf81b.fbx"
    },
    {
      "children": [
        3
      ],
      "name": "RootNode"
    },
    {
      "children": [
        4
      ],
      "matrix": [
        1.0,
        0.0,
        0.0,
        0.0,
        0.0,
        0.9999999999999867,
        1.6292068050205372e-07,
        0.0,
        0.0,
        -1.6292068050205372e-07,
        0.9999999999999867,
        0.0,
        0.0,
        0.0,
        0.0,
        1.0
      ],
      "name": "Object021"
    },
    {
      "children": [
        5,
        6,
        7
      ],
      "matrix": [
        -1.0604581832885742,
        6.999274509553643e-15,
        -1.2986867197939696e-16,
        0.0,
        6.999274520907097e-15,
        1.0604581832885702,
        -9.270819867119178e-08,
        0.0,
        1.2986806008338586e-16,
        -9.270819867119178e-08,
        -1.0604581832885702,
        0.0,
        1133.5712890625,
        -573.9675903320313,
        -508.5483093261719,
        1.0
      ],
      "name": "Object_4"
    },
    {
      "mesh": 0,
      "name": "Object021_Material #338_0"
    },
    {
      "mesh": 1,
      "name": "Object021_Material #276_0"
    },
    {
      "mesh": 2,
      "name": "Object021_Material #291_0"
    }
  ],
  "samplers": [
    {
      "magFilter": 9729,
      "minFilter": 9987,
      "wrapS": 10497,
      "wrapT": 10497
    }
  ],
  "scene": 0,
  "scenes": [
    {
      "name": "Sketchfab_Scene",
      "nodes": [
        0
      ]
    }
  ],
  "textures": [
    {
      "sampler": 0,
      "source": 0
    },
    {
      "sampler": 0,
      "source": 1
    },
    {
      "sampler": 0,
      "source": 2
    },
    {
      "sampler": 0,
      "source": 3
    },
    {
      "sampler": 0,
      "source": 4
    },
    {
      "sampler": 0,
      "source": 5
    }
  ]
}
