{
  "accessors": [
    {
      "bufferView": 3,
      "componentType": 5126,
      "count": 14840,
      "max": [
        0.9313663840293884,
        1.6536589860916138,
        2.6677746772766113
      ],
      "min": [
        -1.0235023498535156,
        0.05769900232553482,
        -1.326304316520691
      ],
      "type": "VEC3"
    },
    {
      "bufferView": 3,
      "byteOffset": 178080,
      "componentType": 5126,
      "count": 14840,
      "max": [
        1.0,
        1.0,
        1.0
      ],
      "min": [
        -1.0,
        -1.0,
        -1.0
      ],
      "type": "VEC3"
    },
    {
      "bufferView": 4,
      "componentType": 5126,
      "count": 14840,
      "max": [
        1.0,
        1.0,
        1.0,
        1.0
      ],
      "min": [
        1.0,
        1.0,
        1.0,
        0.501960813999176
      ],
      "type": "VEC4"
    },
    {
      "bufferView": 2,
      "componentType": 5126,
      "count": 14840,
      "max": [
        0.986328125,
        0.99169921875
      ],
      "min": [
        0.004974365234375,
        0.007648468017578125
      ],
      "type": "VEC2"
    },
    {
      "bufferView": 1,
      "componentType": 5125,
      "count": 40674,
      "type": "SCALAR"
    },
    {
      "bufferView": 3,
      "byteOffset": 356160,
      "componentType": 5126,
      "count": 432,
      "max": [
        0.8787623643875122,
        0.662395715713501,
        1.716827392578125
      ],
      "min": [
        -0.8787623643875122,
        0.003812396200373769,
        -1.0959312915802002
      ],
      "type": "VEC3"
    },
    {
      "bufferView": 3,
      "byteOffset": 361344,
      "componentType": 5126,
      "count": 432,
      "max": [
        1.0,
        1.0,
        0.999823272228241
      ],
      "min": [
        -1.0,
        -1.0,
        -0.9998233914375305
      ],
      "type": "VEC3"
    },
    {
      "bufferView": 4,
      "byteOffset": 237440,
      "componentType": 5126,
      "count": 432,
      "max": [
        1.0,
        1.0,
        1.0,
        1.0
      ],
      "min": [
        1.0,
        1.0,
        1.0,
        1.0
      ],
      "type": "VEC4"
    },
    {
      "bufferView": 2,
      "byteOffset": 118720,
      "componentType": 5126,
      "count": 432,
      "max": [
        0.9912109375,
        5.16796875
      ],
      "min": [
        0.012542724609375,
        -13.578125
      ],
      "type": "VEC2"
    },
    {
      "bufferView": 1,
      "byteOffset": 162696,
      "componentType": 5125,
      "count": 1248,
      "type": "SCALAR"
    },
    {
      "bufferView": 5,
      "componentType": 5126,
      "count": 96,
      "max": [
        100.0,
        0.0004178332455921918,
        1.0,
        0.0,
        0.00043415615800768137,
        100.0,
        1.0000001192092896,
        0.0,
        1.0,
        0.9999995827674866,
        100.0,
        0.0,
        1.2361735105514526,
        1.5793521404266357,
        0.7800099849700928,
        1.0
      ],
      "min": [
        -0.9514709115028381,
        -0.30773866176605225,
        -1.0,
        0.0,
        -0.9999998211860657,
        -1.0000001192092896,
        -5.336007689038524e-07,
        0.0,
        -1.0,
        -0.7964463829994202,
        -2.84114207715902e-07,
        0.0,
        -1.5052820444107056,
        -1.959189772605896,
        -1.620766282081604,
        1.0
      ],
      "type": "MAT4"
    },
    {
      "bufferView": 0,
      "componentType": 5123,
      "count": 14840,
      "type": "VEC4"
    },
    {
      "bufferView": 4,
      "byteOffset": 244352,
      "componentType": 5126,
      "count": 14840,
      "max": [
        1.0,
        0.49997588992118835,
        0.0,
        0.0
      ],
      "min": [
        0.500024139881134,
        0.0,
        0.0,
        0.0
      ],
      "type": "VEC4"
    },
    {
      "bufferView": 0,
      "byteOffset": 118720,
      "componentType": 5123,
      "count": 432,
      "type": "VEC4"
    },
    {
      "bufferView": 4,
      "byteOffset": 481792,
      "componentType": 5126,
      "count": 432,
      "max": [
        1.0,
        0.5,
        0.0,
        0.0
      ],
      "min": [
        0.5,
        0.0,
        0.0,
        0.0
      ],
      "type": "VEC4"
    }
  ],
  "asset": {
    "extras": {
      "author": "VuckyZ (https://sketchfab.com/VuckyZ123)",
      "license": "CC-BY-NC-SA-4.0 (http://creativecommons.org/licenses/by-nc-sa/4.0/)",
      "source": "https://sketchfab.com/3d-models/toramaru-rigged-blue-archive-edd66fc07f8c4164afa033472ed3be7a",
      "title": "Toramaru (Rigged) | Blue Archive"
    },
    "generator": "Sketchfab-17.8.0",
    "version": "2.0"
  },
  "bufferViews": [
    {
      "buffer": 0,
      "byteLength": 122176,
      "byteStride": 8,
      "name": "shortBufferViews",
      "target": 34962
    },
    {
      "buffer": 0,
      "byteLength": 167688,
      "byteOffset": 122176,
      "name": "floatBufferViews",
      "target": 34963
    },
    {
      "buffer": 0,
      "byteLength": 122176,
      "byteOffset": 289864,
      "byteStride": 8,
      "name": "floatBufferViews",
      "target": 34962
    },
    {
      "buffer": 0,
      "byteLength": 366528,
      "byteOffset": 412040,
      "byteStride": 12,
      "name": "floatBufferViews",
      "target": 34962
    },
    {
      "buffer": 0,
      "byteLength": 488704,
      "byteOffset": 778568,
      "byteStride": 16,
      "name": "floatBufferViews",
      "target": 34962
    },
    {
      "buffer": 0,
      "byteLength": 6144,
      "byteOffset": 1267272,
      "name": "floatBufferViews"
    }
  ],
  "buffers": [
    {
      "byteLength": 1273416,
      "uri": "scene.bin"
    }
  ],
  "extensionsUsed": [
    "KHR_materials_specular"
  ],
  "images": [
    {
      "uri": "textures/CH0156_Tank_01_baseColor.png"
    },
    {
      "uri": "textures/CH0156_Tank_01_metallicRoughness.png"
    },
    {
      "uri": "textures/CH0164_Tank_02_baseColor.png"
    },
    {
      "uri": "textures/CH0164_Tank_02_metallicRoughness.png"
    }
  ],
  "materials": [
    {
      "doubleSided": true,
      "extensions": {
        "KHR_materials_specular": {
          "specularColorFactor": [
            1.0,
            1.0,
            1.0
          ],
          "specularFactor": 0.0
        }
      },
      "name": "CH0156_Tank_01",
      "pbrMetallicRoughness": {
        "baseColorTexture": {
          "index": 0
        },
        "metallicRoughnessTexture": {
          "index": 1
        },
        "roughnessFactor": 0.5
      }
    },
    {
      "doubleSided": true,
      "extensions": {
        "KHR_materials_specular": {
          "specularColorFactor": [
            1.0,
            1.0,
            1.0
          ],
          "specularFactor": 0.0
        }
      },
      "name": "CH0164_Tank_02",
      "pbrMetallicRoughness": {
        "baseColorTexture": {
          "index": 2
        },
        "metallicRoughnessTexture": {
          "index": 3
        },
        "roughnessFactor": 0.5
      }
    }
  ],
  "meshes": [
    {
      "name": "CH0156_Tank_CH0156_Tank_01_0",
      "primitives": [
        {
          "attributes": {
            "COLOR_0": 2,
            "JOINTS_0": 11,
            "NORMAL": 1,
            "POSITION": 0,
            "TEXCOORD_0": 3,
            "WEIGHTS_0": 12
          },
          "indices": 4,
          "material": 0,
          "mode": 4
        }
      ]
    },
    {
      "name": "CH0156_Tank_CH0164_Tank_02_0",
      "primitives": [
        {
          "attributes": {
            "COLOR_0": 7,
            "JOINTS_0": 13,
            "NORMAL": 6,
            "POSITION": 5,
            "TEXCOORD_0": 8,
            "WEIGHTS_0": 14
          },
          "indices": 9,
          "material": 1,
          "mode": 4
        }
      ]
    }
  ],
  "nodes": [
    {
      "children": [
        1
      ],
      "matrix": [
        1.0,
        0.0,
        0.0,
        0.0,
        0.0,
        2.220446049250313e-16,
        -1.0,
        0.0,
        0.0,
        1.0,
        2.220446049250313e-16,
        0.0,
        0.0,
        0.0,
        0.0,
        1.0
      ],
      "name": "Sketchfab_model"
    },
    {
      "children": [
        2
      ],
      "matrix": [
        0.009999999776482582,
        0.0,
        0.0,
        0.0,
        0.0,
        0.0,
        0.009999999776482582,
        0.0,
        0.0,
        -0.009999999776482582,
        0.0,
        0.0,
        0.0,
        0.0,
        0.0,
        1.0
      ],
      "name": "CH0156_Tank.fbx"
    },
    {
      "children": [
        3
      ],
      "name": "RootNode"
    },
    {
      "children": [
        4
      ],
      "matrix": [
        100.0,
        0.0,
        0.0,
        0.0,
        0.0,
        99.9999999999999,
        4.371138828673792e-06,
        0.0,
        0.0,
        -4.371138828673792e-06,
        99.9999999999999,
        0.0,
        0.0,
        0.0,
        0.0,
        1.0
      ],
      "name": "Armature"
    },
    {
      "children": [
        5,
        102,
        103,
        101
      ],
      "name": "Object_4"
    },
    {
      "children": [
        6
      ],
      "name": "_rootJoint"
    },
    {
      "children": [
        7
      ],
      "name": "CH0156_Mesh_01"
    },
    {
      "children": [
        8
      ],
      "name": "bone_root_02",
      "rotation": [
        5.7601148739649943e-08,
        -0.7071066498756409,
        5.760113097608155e-08,
        0.70710688829422
      ],
      "translation": [
        5.383553602911206e-09,
        5.1203844330854083e-23,
        2.8610227786884934e-07
      ]
    },
    {
      "children": [
        9,
        49,
        52,
        55,
        58,
        61,
        64,
        67,
        70,
        73,
        76,
        79,
        82,
        85,
        88,
        91,
        94,
        97,
        99
      ],
      "name": "Tank_Move_03",
      "rotation": [
        1.4210854715202004e-14,
        7.105427357601002e-15,
        -1.6543713225256422e-23,
        1.0
      ],
      "scale": [
        1.0,
        0.9999999403953552,
        1.0
      ],
      "translation": [
        -3.051757460070803e-07,
        -1.403711558752571e-23,
        -3.613225373739169e-14
      ]
    },
    {
      "children": [
        10
      ],
      "name": "Body_sp_04",
      "rotation": [
        7.105427357601002e-13,
        -7.105427357601002e-15,
        3.2095112638036815e-22,
        1.0
      ],
      "translation": [
        0.16550949215888977,
        0.7335625886917114,
        -2.797372644636198e-08
      ]
    },
    {
      "children": [
        11,
        29,
        31,
        33,
        36,
        39,
        42,
        45,
        47
      ],
      "name": "Bone_Body_05",
      "rotation": [
        -7.105427357601002e-13,
        -4.371156236970819e-08,
        7.12154978271904e-15,
        1.0
      ],
      "translation": [
        5.960467319710006e-08,
        -3.219646771412954e-15,
        -7.791075518071011e-08
      ]
    },
    {
      "children": [
        12
      ],
      "name": "Head_sp_06",
      "rotation": [
        -6.857125455890608e-23,
        -1.5881867761018131e-22,
        6.385834328909374e-22,
        1.0
      ],
      "translation": [
        0.1048186868429184,
        0.45063745975494385,
        -4.8121208351403766e-08
      ]
    },
    {
      "children": [
        13,
        15,
        17,
        25,
        27
      ],
      "name": "Bone_Head_07",
      "rotation": [
        -7.105427357601002e-15,
        -1.7205356741102976e-22,
        2.752857078576476e-21,
        1.0
      ],
      "translation": [
        3.858025010572419e-14,
        -4.440892098500626e-15,
        -1.5987211554602254e-14
      ]
    },
    {
      "children": [
        14
      ],
      "name": "bone_hatch_L_08",
      "rotation": [
        0.41601118445396423,
        0.5717822313308716,
        0.5717818140983582,
        -0.4160114824771881
      ],
      "scale": [
        1.0000001192092896,
        1.0000001192092896,
        1.0
      ],
      "translation": [
        -0.13291333615779877,
        0.4365662932395935,
        -0.4499044120311737
      ]
    },
    {
      "name": "bone_hatch_L_end_063",
      "rotation": [
        -1.0587911840678754e-22,
        -5.877471754111438e-39,
        5.551115123125783e-17,
        1.0
      ],
      "translation": [
        -5.551115123125783e-17,
        0.5202928185462952,
        2.220446049250313e-16
      ]
    },
    {
      "children": [
        16
      ],
      "name": "bone_hatch_R_09",
      "rotation": [
        -4.988567781083475e-09,
        9.291628711826771e-15,
        1.0,
        -7.549790126404332e-08
      ],
      "scale": [
        1.0,
        1.0,
        0.9999998807907104
      ],
      "translation": [
        0.14956726133823395,
        0.39515191316604614,
        0.42278337478637695
      ]
    },
    {
      "name": "bone_hatch_R_end_064",
      "rotation": [
        -3.684283665514092e-23,
        -1.3234889800848443e-23,
        6.617444900424222e-24,
        1.0
      ],
      "translation": [
        0.0,
        0.5202927589416504,
        -5.551115123125783e-17
      ]
    },
    {
      "children": [
        18
      ],
      "name": "Head_Misale_sp_010",
      "rotation": [
        -6.857229585530097e-23,
        -1.3234889800848443e-22,
        2.0514079191315086e-22,
        1.0
      ],
      "translation": [
        0.6691292524337769,
        0.058142662048339844,
        -0.0006001068977639079
      ]
    },
    {
      "children": [
        19
      ],
      "name": "Bone_Head_Misale_011",
      "rotation": [
        5.959909188391066e-08,
        1.7763568394002505e-14,
        1.2568739892447351e-14,
        1.0
      ],
      "scale": [
        1.0,
        1.0000003576278687,
        1.0000001192092896
      ],
      "translation": [
        6.441991384775747e-11,
        -9.777778586794739e-11,
        8.645447735489142e-08
      ]
    },
    {
      "children": [
        20,
        22
      ],
      "name": "bone_tank_barrel_012",
      "rotation": [
        0.9999998807907104,
        0.00019575799524318427,
        0.00042744993697851896,
        -8.178873578401635e-09
      ],
      "scale": [
        0.9999999403953552,
        0.9999999403953552,
        1.0000001192092896
      ],
      "translation": [
        0.5652890801429749,
        -0.006379604339599609,
        0.0003615782188717276
      ]
    },
    {
      "children": [
        21
      ],
      "name": "Fire_01_013",
      "rotation": [
        0.4997279644012451,
        0.4993581473827362,
        0.500330924987793,
        0.5005820393562317
      ],
      "scale": [
        1.0000001192092896,
        1.0000001192092896,
        1.0
      ],
      "translation": [
        1.1631089448928833,
        0.0006399123230949044,
        0.0012466387124732137
      ]
    },
    {
      "name": "Fire_01_end_065",
      "rotation": [
        1.6263032587282567e-19,
        2.168404344971009e-19,
        7.72917564369549e-21,
        1.0
      ],
      "translation": [
        2.220446049250313e-16,
        0.808819591999054,
        0.0
      ]
    },
    {
      "children": [
        23
      ],
      "name": "bone_panel_01_014",
      "rotation": [
        0.7069520354270935,
        0.7072610855102539,
        0.0005685489159077406,
        0.0005683425115421414
      ],
      "scale": [
        1.0000001192092896,
        1.0000008344650269,
        1.000000238418579
      ],
      "translation": [
        0.45453503727912903,
        0.00015936153067741543,
        0.0007310318178497255
      ]
    },
    {
      "children": [
        24
      ],
      "name": "bone_panel_02_015",
      "rotation": [
        -1.5023688890170028e-11,
        7.467539919758792e-10,
        1.4916207646820112e-06,
        1.0
      ],
      "scale": [
        0.9999996423721313,
        0.9999995231628418,
        0.9999998807907104
      ],
      "translation": [
        0.1498498171567917,
        1.4474814634013455e-05,
        5.339859399100533e-08
      ]
    },
    {
      "name": "bone_panel_02_end_066",
      "rotation": [
        6.726232628759122e-44,
        -1.9852334701272664e-23,
        3.3881317890172014e-21,
        1.0
      ],
      "translation": [
        2.220446049250313e-16,
        0.14984990656375885,
        -2.168404344971009e-19
      ]
    },
    {
      "children": [
        26
      ],
      "name": "character_root_016",
      "rotation": [
        -0.5000001192092896,
        0.4999999701976776,
        0.5,
        0.5000001192092896
      ],
      "translation": [
        -0.22084824740886688,
        0.08618982136249542,
        -0.2525601089000702
      ]
    },
    {
      "name": "character_root_end_067",
      "rotation": [
        -3.1554436208840472e-30,
        1.570499157766001e-23,
        -6.617444900424222e-24,
        1.0
      ],
      "translation": [
        5.551115123125783e-17,
        0.363742470741272,
        2.220446049250313e-16
      ]
    },
    {
      "children": [
        28
      ],
      "name": "St_point_017",
      "rotation": [
        -0.5000000596046448,
        0.49999991059303284,
        0.49999988079071045,
        0.5000001192092896
      ],
      "translation": [
        -0.043514199554920197,
        -0.004822436720132828,
        0.3420790731906891
      ]
    },
    {
      "name": "St_point_end_068",
      "rotation": [
        -0.0,
        -1.0577267898256788e-24,
        -1.3234889800848443e-23,
        1.0
      ],
      "translation": [
        0.0,
        0.5202927589416504,
        0.0
      ]
    },
    {
      "children": [
        30
      ],
      "name": "bone_L_shield_018",
      "rotation": [
        -0.44457322359085083,
        0.8957425355911255,
        -3.6461764807427244e-07,
        -3.640326440290664e-08
      ],
      "scale": [
        1.0,
        1.000000238418579,
        1.0
      ],
      "translation": [
        -1.1893640756607056,
        -0.08830690383911133,
        -0.7174654603004456
      ]
    },
    {
      "name": "bone_L_shield_end_069",
      "rotation": [
        -1.3234889800848443e-23,
        -1.819797347616661e-23,
        -0.0,
        1.0
      ],
      "translation": [
        0.0,
        1.1676002740859985,
        -1.1102230246251565e-16
      ]
    },
    {
      "children": [
        32
      ],
      "name": "bone_R_shield_019",
      "rotation": [
        -0.444573312997818,
        0.8957424759864807,
        -3.64617619652563e-07,
        -3.640323598119721e-08
      ],
      "scale": [
        1.0,
        0.9999999403953552,
        1.0
      ],
      "translation": [
        -1.1893638372421265,
        -0.08830684423446655,
        0.7174704670906067
      ]
    },
    {
      "name": "bone_R_shield_end_070",
      "rotation": [
        -4.1359030627651384e-23,
        -1.4889251025954498e-23,
        5.551115123125783e-17,
        1.0
      ],
      "translation": [
        -1.1102230246251565e-16,
        1.167600154876709,
        0.0
      ]
    },
    {
      "children": [
        34
      ],
      "name": "L_Tire_00_020",
      "rotation": [
        -6.857125455890608e-23,
        -1.5881867761018131e-22,
        6.385834328909374e-22,
        1.0
      ],
      "translation": [
        1.300723671913147,
        -0.3202612102031708,
        -0.7366507053375244
      ]
    },
    {
      "children": [
        35
      ],
      "name": "L_Tire_00_T_021",
      "rotation": [
        -8.146237462369754e-08,
        1.1514352107254228e-21,
        2.63374307036884e-21,
        1.0
      ],
      "translation": [
        -4.017839216885477e-08,
        1.7800755358621245e-07,
        1.495727133260516e-07
      ]
    },
    {
      "name": "L_Tire_00_T_end_071",
      "rotation": [
        -9.229672591085838e-29,
        -0.0,
        6.617444900424222e-24,
        1.0
      ],
      "translation": [
        0.0,
        0.009999990463256836,
        0.0
      ]
    },
    {
      "children": [
        37
      ],
      "name": "L_Tire_09_022",
      "rotation": [
        -6.857125455890608e-23,
        -1.5881867761018131e-22,
        6.385834328909374e-22,
        1.0
      ],
      "translation": [
        -1.0147827863693237,
        -0.41275644302368164,
        -0.780009388923645
      ]
    },
    {
      "children": [
        38
      ],
      "name": "L_Tire_09_T_023",
      "rotation": [
        -8.146095353822602e-08,
        -1.6820795423200252e-08,
        -1.4901132772138226e-08,
        1.0
      ],
      "translation": [
        8.36825790884177e-08,
        -7.870374574281414e-09,
        3.5434478462548213e-08
      ]
    },
    {
      "name": "L_Tire_09_T_end_072",
      "rotation": [
        -2.216699143671043e-28,
        -2.6469779601696886e-23,
        -0.0,
        1.0
      ],
      "translation": [
        0.0,
        0.009999990463256836,
        0.0
      ]
    },
    {
      "children": [
        40
      ],
      "name": "R_Tire_00_024",
      "rotation": [
        -6.857125455890608e-23,
        -1.5881867761018131e-22,
        6.385834328909374e-22,
        1.0
      ],
      "translation": [
        1.3007241487503052,
        -0.3202612102031708,
        0.7366500496864319
      ]
    },
    {
      "children": [
        41
      ],
      "name": "R_Tire_00_T_025",
      "rotation": [
        -8.14595324527545e-08,
        1.1249654311237259e-21,
        2.630434347918628e-21,
        1.0
      ],
      "translation": [
        4.017850585569249e-08,
        1.7962015874672943e-07,
        1.495728128020346e-07
      ]
    },
    {
      "name": "R_Tire_00_T_end_073",
      "rotation": [
        -7.415292509077511e-29,
        -0.0,
        3.308722450212111e-24,
        1.0
      ],
      "translation": [
        -2.220446049250313e-16,
        0.009999990463256836,
        -1.1102230246251565e-16
      ]
    },
    {
      "children": [
        43
      ],
      "name": "R_Tire_09_026",
      "rotation": [
        -6.857125455890608e-23,
        -1.5881867761018131e-22,
        6.385834328909374e-22,
        1.0
      ],
      "translation": [
        -1.0147825479507446,
        -0.4127563238143921,
        0.7800104022026062
      ]
    },
    {
      "children": [
        44
      ],
      "name": "R_Tire_09_T_027",
      "rotation": [
        -8.146095353822602e-08,
        -1.6820795423200252e-08,
        -1.4901132772138226e-08,
        1.0
      ],
      "translation": [
        3.552662164452158e-08,
        7.87056286810639e-09,
        3.543454596410811e-08
      ]
    },
    {
      "name": "R_Tire_09_T_end_074",
      "rotation": [
        -2.216699143671043e-28,
        -2.6469779601696886e-23,
        -0.0,
        1.0
      ],
      "translation": [
        0.0,
        0.009999990463256836,
        0.0
      ]
    },
    {
      "children": [
        46
      ],
      "name": "L_Tire_Track_U_M_028",
      "rotation": [
        4.371132789060539e-08,
        1.0,
        -6.57237393397736e-08,
        1.9470718370939721e-07
      ],
      "translation": [
        0.12824317812919617,
        -0.18333572149276733,
        -0.7236652970314026
      ]
    },
    {
      "name": "L_Tire_Track_U_M_end_075",
      "rotation": [
        1.5642685765643845e-24,
        1.3234889800848443e-23,
        -1.3234889800848443e-23,
        1.0
      ],
      "translation": [
        -5.551115123125783e-17,
        1.167600154876709,
        0.0
      ]
    },
    {
      "children": [
        48
      ],
      "name": "R_Tire_Track_U_M_00",
      "rotation": [
        4.371132789060539e-08,
        1.0,
        -6.57237393397736e-08,
        1.9470718370939721e-07
      ],
      "translation": [
        0.1282433271408081,
        -0.18333548307418823,
        0.7236699461936951
      ]
    },
    {
      "name": "R_Tire_Track_U_M_end_076",
      "rotation": [
        1.5642685765643845e-24,
        1.3234889800848443e-23,
        -1.3234889800848443e-23,
        1.0
      ],
      "translation": [
        5.551115123125783e-17,
        1.167600154876709,
        0.0
      ]
    },
    {
      "children": [
        50
      ],
      "name": "R_Tire_06_029",
      "rotation": [
        -1.3924577637419966e-22,
        -7.105427357601002e-15,
        3.639594695233322e-23,
        1.0
      ],
      "translation": [
        -0.04746834561228752,
        0.2732499837875366,
        0.7162097692489624
      ]
    },
    {
      "children": [
        51
      ],
      "name": "R_Tire_06_T_030",
      "rotation": [
        -8.146041352574684e-08,
        -6.053235779290844e-08,
        -1.4901114120391412e-08,
        1.0
      ],
      "translation": [
        5.053860974157942e-08,
        -2.5238835466012688e-09,
        5.8442006789505285e-09
      ]
    },
    {
      "name": "R_Tire_06_T_end_077",
      "rotation": [
        -7.099748146989106e-30,
        -1.3234889800848443e-23,
        1.3234889800848443e-23,
        1.0
      ],
      "translation": [
        0.0,
        0.009999990463256836,
        0.0
      ]
    },
    {
      "children": [
        53
      ],
      "name": "R_Tire_07_031",
      "rotation": [
        -1.3924577637419966e-22,
        -7.105427357601002e-15,
        3.639594695233322e-23,
        1.0
      ],
      "translation": [
        -0.2907087504863739,
        0.2732499837875366,
        0.7800000905990601
      ]
    },
    {
      "children": [
        54
      ],
      "name": "R_Tire_07_T_032",
      "rotation": [
        -8.146059826685814e-08,
        -6.053235779290844e-08,
        -1.4901114120391412e-08,
        1.0
      ],
      "translation": [
        5.674461789340057e-08,
        7.868890428142095e-09,
        1.808819405368922e-08
      ]
    },
    {
      "name": "R_Tire_07_T_end_078",
      "rotation": [
        -5.048709793414476e-29,
        -0.0,
        1.3234889800848443e-23,
        1.0
      ],
      "translation": [
        0.0,
        0.009999990463256836,
        1.1102230246251565e-16
      ]
    },
    {
      "children": [
        56
      ],
      "name": "R_Tire_08_033",
      "rotation": [
        -1.3924577637419966e-22,
        -7.105427357601002e-15,
        3.639594695233322e-23,
        1.0
      ],
      "translation": [
        -0.5319777727127075,
        0.2732499837875366,
        0.7162098288536072
      ]
    },
    {
      "children": [
        57
      ],
      "name": "R_Tire_08_T_034",
      "rotation": [
        -8.146024299549026e-08,
        -6.053235779290844e-08,
        -1.4901114120391412e-08,
        1.0
      ],
      "translation": [
        3.9362724635338964e-08,
        -2.5238637846314305e-09,
        3.071602705517762e-08
      ]
    },
    {
      "name": "R_Tire_08_T_end_079",
      "rotation": [
        1.0255191767873153e-29,
        -1.3234889800848443e-23,
        6.617444900424222e-24,
        1.0
      ],
      "translation": [
        -1.1102230246251565e-16,
        0.009999990463256836,
        0.0
      ]
    },
    {
      "children": [
        59
      ],
      "name": "L_Tire_08_035",
      "rotation": [
        -1.3924577637419966e-22,
        -7.105427357601002e-15,
        3.639594695233322e-23,
        1.0
      ],
      "translation": [
        -0.531977653503418,
        0.2732499837875366,
        -0.7162101864814758
      ]
    },
    {
      "children": [
        60
      ],
      "name": "L_Tire_08_T_036",
      "rotation": [
        -8.146041352574684e-08,
        -6.053235779290844e-08,
        -1.4901114120391412e-08,
        1.0
      ],
      "translation": [
        7.984660754800643e-08,
        2.5238460210630365e-09,
        3.0715952448190365e-08
      ]
    },
    {
      "name": "L_Tire_08_T_end_080",
      "rotation": [
        -7.099748146989106e-30,
        -1.3234889800848443e-23,
        1.3234889800848443e-23,
        1.0
      ],
      "translation": [
        1.1102230246251565e-16,
        0.009999990463256836,
        0.0
      ]
    },
    {
      "children": [
        62
      ],
      "name": "L_Tire_07_037",
      "rotation": [
        -1.3924577637419966e-22,
        -7.105427357601002e-15,
        3.639594695233322e-23,
        1.0
      ],
      "translation": [
        -0.29070883989334106,
        0.273159921169281,
        -0.7799999117851257
      ]
    },
    {
      "children": [
        63
      ],
      "name": "L_Tire_07_T_038",
      "rotation": [
        -8.146024299549026e-08,
        -6.053235779290844e-08,
        -1.4901114120391412e-08,
        1.0
      ],
      "translation": [
        6.24646006031071e-08,
        -7.868821150225358e-09,
        1.8102749521631267e-08
      ]
    },
    {
      "name": "L_Tire_07_T_end_081",
      "rotation": [
        1.0255191767873153e-29,
        -1.3234889800848443e-23,
        6.617444900424222e-24,
        1.0
      ],
      "translation": [
        5.551115123125783e-17,
        0.009999990463256836,
        2.220446049250313e-16
      ]
    },
    {
      "children": [
        65
      ],
      "name": "L_Tire_06_039",
      "rotation": [
        -1.3924577637419966e-22,
        -7.105427357601002e-15,
        3.639594695233322e-23,
        1.0
      ],
      "translation": [
        -0.047468408942222595,
        0.27324986457824707,
        -0.7162102460861206
      ]
    },
    {
      "children": [
        66
      ],
      "name": "L_Tire_06_T_040",
      "rotation": [
        -8.146024299549026e-08,
        -6.053235779290844e-08,
        -1.4901114120391412e-08,
        1.0
      ],
      "translation": [
        5.749489417894438e-08,
        2.523826259093198e-09,
        5.844113637465398e-09
      ]
    },
    {
      "name": "L_Tire_06_T_end_082",
      "rotation": [
        1.0255191767873153e-29,
        -1.3234889800848443e-23,
        6.617444900424222e-24,
        1.0
      ],
      "translation": [
        -6.938893903907228e-18,
        0.009999990463256836,
        0.0
      ]
    },
    {
      "children": [
        68
      ],
      "name": "R_Tire_05_041",
      "rotation": [
        -1.3924577637419966e-22,
        -7.105427357601002e-15,
        3.639594695233322e-23,
        1.0
      ],
      "translation": [
        0.19252191483974457,
        0.2731599807739258,
        0.7799999713897705
      ]
    },
    {
      "children": [
        69
      ],
      "name": "R_Tire_05_T_042",
      "rotation": [
        -8.146006535980632e-08,
        -6.053235779290844e-08,
        -1.4901114120391412e-08,
        1.0
      ],
      "translation": [
        -1.7761143666916723e-08,
        7.868849571934788e-09,
        -7.017963099542612e-09
      ]
    },
    {
      "name": "R_Tire_05_T_end_083",
      "rotation": [
        -2.208810534618833e-29,
        -0.0,
        0.0,
        1.0
      ],
      "translation": [
        0.0,
        0.009999990463256836,
        0.0
      ]
    },
    {
      "children": [
        71
      ],
      "name": "R_Tire_04_043",
      "rotation": [
        -1.3924577637419966e-22,
        -7.105427357601002e-15,
        3.639594695233322e-23,
        1.0
      ],
      "translation": [
        0.43282726407051086,
        0.2732500433921814,
        0.7162099480628967
      ]
    },
    {
      "children": [
        72
      ],
      "name": "R_Tire_04_T_044",
      "rotation": [
        -8.146024299549026e-08,
        -6.053235779290844e-08,
        -1.4901114120391412e-08,
        1.0
      ],
      "translation": [
        9.56040402400049e-09,
        -1.2173316576991056e-07,
        3.975656426291607e-08
      ]
    },
    {
      "name": "R_Tire_04_T_end_084",
      "rotation": [
        1.0255191767873153e-29,
        -1.3234889800848443e-23,
        6.617444900424222e-24,
        1.0
      ],
      "translation": [
        0.0,
        0.009999990463256836,
        1.1102230246251565e-16
      ]
    },
    {
      "children": [
        74
      ],
      "name": "R_Tire_03_045",
      "rotation": [
        -1.3924577637419966e-22,
        -7.105427357601002e-15,
        3.639594695233322e-23,
        1.0
      ],
      "translation": [
        0.6761415004730225,
        0.2731599807739258,
        0.7800000309944153
      ]
    },
    {
      "children": [
        75
      ],
      "name": "R_Tire_03_T_046",
      "rotation": [
        -8.146024299549026e-08,
        -6.053235779290844e-08,
        -1.4901114120391412e-08,
        1.0
      ],
      "translation": [
        2.694235412548096e-08,
        7.868836249258493e-09,
        2.754159567075476e-08
      ]
    },
    {
      "name": "R_Tire_03_T_end_085",
      "rotation": [
        1.0255191767873153e-29,
        -1.3234889800848443e-23,
        6.617444900424222e-24,
        1.0
      ],
      "translation": [
        -2.220446049250313e-16,
        0.009999990463256836,
        1.1102230246251565e-16
      ]
    },
    {
      "children": [
        77
      ],
      "name": "R_Tire_02_047",
      "rotation": [
        -1.3924577637419966e-22,
        -7.105427357601002e-15,
        3.639594695233322e-23,
        1.0
      ],
      "translation": [
        0.9127674698829651,
        0.2732468843460083,
        0.7162100672721863
      ]
    },
    {
      "children": [
        78
      ],
      "name": "R_Tire_02_T_048",
      "rotation": [
        -8.146095353822602e-08,
        -6.053235779290844e-08,
        -1.4901130107602967e-08,
        1.0
      ],
      "translation": [
        3.9362724635338964e-08,
        -2.523858899650122e-09,
        1.3995578029835087e-08
      ]
    },
    {
      "name": "R_Tire_02_T_end_086",
      "rotation": [
        2.2245877527232533e-28,
        1.3234889800848443e-23,
        -0.0,
        1.0
      ],
      "translation": [
        0.0,
        0.009999990463256836,
        1.1102230246251565e-16
      ]
    },
    {
      "children": [
        80
      ],
      "name": "R_Tire_01_049",
      "rotation": [
        -1.3924577637419966e-22,
        -7.105427357601002e-15,
        3.639594695233322e-23,
        1.0
      ],
      "translation": [
        1.1540865898132324,
        0.2731565237045288,
        0.779999852180481
      ]
    },
    {
      "children": [
        81
      ],
      "name": "R_Tire_01_T_050",
      "rotation": [
        -1.1126327592592133e-07,
        -6.327347534806904e-08,
        2.98023579148321e-08,
        1.0
      ],
      "translation": [
        8.654703975707889e-08,
        7.868809603905902e-09,
        1.3922409891620191e-09
      ]
    },
    {
      "name": "R_Tire_01_T_end_087",
      "rotation": [
        3.5409086693067163e-25,
        -1.3234889800848443e-23,
        0.0,
        1.0
      ],
      "translation": [
        0.0,
        0.009999990463256836,
        1.1102230246251565e-16
      ]
    },
    {
      "children": [
        83
      ],
      "name": "L_Tire_05_051",
      "rotation": [
        -1.3924577637419966e-22,
        -7.105427357601002e-15,
        3.639594695233322e-23,
        1.0
      ],
      "translation": [
        0.19252179563045502,
        0.27315980195999146,
        -0.7799999713897705
      ]
    },
    {
      "children": [
        84
      ],
      "name": "L_Tire_05_T_052",
      "rotation": [
        -8.14604206311742e-08,
        -6.053235779290844e-08,
        -1.4901114120391412e-08,
        1.0
      ],
      "translation": [
        -1.2041160957210195e-08,
        -7.868847795577949e-09,
        -7.018055470098261e-09
      ]
    },
    {
      "name": "L_Tire_05_T_end_088",
      "rotation": [
        6.310887241768095e-30,
        0.0,
        6.617444900424222e-24,
        1.0
      ],
      "translation": [
        2.7755575615628914e-17,
        0.009999990463256836,
        1.1102230246251565e-16
      ]
    },
    {
      "children": [
        86
      ],
      "name": "L_Tire_04_053",
      "rotation": [
        -1.3924577637419966e-22,
        -7.105427357601002e-15,
        3.639594695233322e-23,
        1.0
      ],
      "translation": [
        0.43282726407051086,
        0.27324986457824707,
        -0.7162100672721863
      ]
    },
    {
      "children": [
        87
      ],
      "name": "L_Tire_04_T_054",
      "rotation": [
        -8.146024299549026e-08,
        -6.053235779290844e-08,
        -1.4901114120391412e-08,
        1.0
      ],
      "translation": [
        -9.560343627867951e-09,
        -1.464877783519114e-07,
        3.9756500314069854e-08
      ]
    },
    {
      "name": "L_Tire_04_T_end_089",
      "rotation": [
        1.0255191767873153e-29,
        -1.3234889800848443e-23,
        6.617444900424222e-24,
        1.0
      ],
      "translation": [
        5.551115123125783e-17,
        0.009999990463256836,
        0.0
      ]
    },
    {
      "children": [
        89
      ],
      "name": "L_Tire_03_055",
      "rotation": [
        -1.3924577637419966e-22,
        -7.105427357601002e-15,
        3.639594695233322e-23,
        1.0
      ],
      "translation": [
        0.6761414408683777,
        0.273159921169281,
        -0.7799999117851257
      ]
    },
    {
      "children": [
        90
      ],
      "name": "L_Tire_03_T_056",
      "rotation": [
        -8.146024299549026e-08,
        -6.053235779290844e-08,
        -1.4901114120391412e-08,
        1.0
      ],
      "translation": [
        -2.694232215105785e-08,
        -7.868861118254245e-09,
        2.7541496194771753e-08
      ]
    },
    {
      "name": "L_Tire_03_T_end_090",
      "rotation": [
        1.0255191767873153e-29,
        -1.3234889800848443e-23,
        6.617444900424222e-24,
        1.0
      ],
      "translation": [
        -1.1102230246251565e-16,
        0.009999990463256836,
        1.1102230246251565e-16
      ]
    },
    {
      "children": [
        92
      ],
      "name": "L_Tire_02_057",
      "rotation": [
        -1.3924577637419966e-22,
        -7.105427357601002e-15,
        3.639594695233322e-23,
        1.0
      ],
      "translation": [
        0.9127673506736755,
        0.273246705532074,
        -0.7162057161331177
      ]
    },
    {
      "children": [
        93
      ],
      "name": "L_Tire_02_T_058",
      "rotation": [
        -8.146095353822602e-08,
        -6.053235779290844e-08,
        -1.4901114120391412e-08,
        1.0
      ],
      "translation": [
        7.984578331843295e-08,
        2.524540132498032e-09,
        1.3995496317420475e-08
      ]
    },
    {
      "name": "L_Tire_02_T_end_091",
      "rotation": [
        1.672385119068545e-28,
        1.3234889800848443e-23,
        -0.0,
        1.0
      ],
      "translation": [
        0.0,
        0.009999990463256836,
        1.1102230246251565e-16
      ]
    },
    {
      "children": [
        95
      ],
      "name": "L_Tire_01_059",
      "rotation": [
        -1.3924577637419966e-22,
        -7.105427357601002e-15,
        3.639594695233322e-23,
        1.0
      ],
      "translation": [
        1.1540865898132324,
        0.27315640449523926,
        -0.7800000905990601
      ]
    },
    {
      "children": [
        96
      ],
      "name": "L_Tire_01_T_060",
      "rotation": [
        -1.1126327592592133e-07,
        -6.327347534806904e-08,
        2.9802372125686816e-08,
        1.0
      ],
      "translation": [
        3.2662377691394795e-08,
        -7.86890197446155e-09,
        1.3921486186063703e-09
      ]
    },
    {
      "name": "L_Tire_01_T_end_092",
      "rotation": [
        1.1120892458428123e-23,
        1.3234889800848443e-23,
        -1.6543612251060553e-24,
        1.0
      ],
      "translation": [
        -2.220446049250313e-16,
        0.009999990463256836,
        -1.1102230246251565e-16
      ]
    },
    {
      "children": [
        98
      ],
      "name": "R_Tire_Track_D_M_061",
      "rotation": [
        4.371131723246435e-08,
        1.0,
        -9.850867854765966e-08,
        1.9470718370939721e-07
      ],
      "scale": [
        1.0,
        0.9999997615814209,
        1.0
      ],
      "translation": [
        0.2762264907360077,
        0.02506435103714466,
        0.7236699461936951
      ]
    },
    {
      "name": "R_Tire_Track_D_M_end_093",
      "rotation": [
        -4.841336405232692e-24,
        -0.0,
        0.0,
        1.0
      ],
      "translation": [
        0.0,
        0.9617194533348083,
        1.1102230246251565e-16
      ]
    },
    {
      "children": [
        100
      ],
      "name": "L_Tire_Track_D_M_062",
      "rotation": [
        4.371131723246435e-08,
        1.0,
        -9.850867854765966e-08,
        1.9470718370939721e-07
      ],
      "scale": [
        1.0,
        0.9999997615814209,
        1.0
      ],
      "translation": [
        0.2762264907360077,
        0.02506411448121071,
        -0.723665177822113
      ]
    },
    {
      "name": "L_Tire_Track_D_M_end_094",
      "rotation": [
        -4.841336405232692e-24,
        -0.0,
        0.0,
        1.0
      ],
      "translation": [
        5.551115123125783e-17,
        0.9617194533348083,
        1.1102230246251565e-16
      ]
    },
    {
      "matrix": [
        100.0,
        -2.1520770873553566e-26,
        4.923379005915621e-19,
        0.0,
        4.92337900591563e-19,
        4.37113885700149e-06,
        -100.0,
        0.0,
        -2.4069495715119318e-33,
        100.0,
        4.37113885700149e-06,
        0.0,
        -1.256992021581027e-06,
        5.533855365317438e-08,
        -1.4711659422031216e-06,
        1.0
      ],
      "name": "Object_101"
    },
    {
      "mesh": 0,
      "name": "Object_102",
      "skin": 0
    },
    {
      "mesh": 1,
      "name": "Object_103",
      "skin": 0
    }
  ],
  "samplers": [
    {
      "magFilter": 9729,
      "minFilter": 9987,
      "wrapS": 10497,
      "wrapT": 10497
    }
  ],
  "scene": 0,
  "scenes": [
    {
      "name": "Sketchfab_Scene",
      "nodes": [
        0
      ]
    }
  ],
  "skins": [
    {
      "inverseBindMatrices": 10,
      "joints": [
        5,
        6,
        7,
        8,
        9,
        10,
        11,
        12,
        13,
        14,
        15,
        16,
        17,
        18,
        19,
        20,
        21,
        22,
        23,
        24,
        25,
        26,
        27,
        28,
        29,
        30,
        31,
        32,
        33,
        34,
        35,
        36,
        37,
        38,
        39,
        40,
        41,
        42,
        43,
        44,
        45,
        46,
        47,
        48,
        49,
        50,
        51,
        52,
        53,
        54,
        55,
        56,
        57,
        58,
        59,
        60,
        61,
        62,
        63,
        64,
        65,
        66,
        67,
        68,
        69,
        70,
        71,
        72,
        73,
        74,
        75,
        76,
        77,
        78,
        79,
        80,
        81,
        82,
        83,
        84,
        85,
        86,
        87,
        88,
        89,
        90,
        91,
        92,
        93,
        94,
        95,
        96,
        97,
        98,
        99,
        100
      ],
      "skeleton": 5
    }
  ],
  "textures": [
    {
      "sampler": 0,
      "source": 0
    },
    {
      "sampler": 0,
      "source": 1
    },
    {
      "sampler": 0,
      "source": 2
    },
    {
      "sampler": 0,
      "source": 3
    }
  ]
}
