{
  "accessors": [
    {
      "bufferView": 2,
      "componentType": 5126,
      "count": 14,
      "max": [
        36.01072311401367,
        15.0,
        38.643924713134766
      ],
      "min": [
        -23.662384033203125,
        15.0,
        -5.0
      ],
      "type": "VEC3"
    },
    {
      "bufferView": 2,
      "byteOffset": 168,
      "componentType": 5126,
      "count": 14,
      "max": [
        0.0,
        1.0,
        0.0
      ],
      "min": [
        0.0,
        1.0,
        0.0
      ],
      "type": "VEC3"
    },
    {
      "bufferView": 1,
      "componentType": 5126,
      "count": 14,
      "max": [
        0.0,
        1.0
      ],
      "min": [
        0.0,
        1.0
      ],
      "type": "VEC2"
    },
    {
      "bufferView": 1,
      "byteOffset": 112,
      "componentType": 5126,
      "count": 14,
      "max": [
        1.0,
        1.0
      ],
      "min": [
        0.0,
        0.0
      ],
      "type": "VEC2"
    },
    {
      "bufferView": 1,
      "byteOffset": 224,
      "componentType": 5126,
      "count": 14,
      "max": [
        0.0,
        1.0
      ],
      "min": [
        0.0,
        1.0
      ],
      "type": "VEC2"
    },
    {
      "bufferView": 1,
      "byteOffset": 336,
      "componentType": 5126,
      "count": 14,
      "max": [
        0.0,
        1.0
      ],
      "min": [
        0.0,
        1.0
      ],
      "type": "VEC2"
    },
    {
      "bufferView": 0,
      "componentType": 5125,
      "count": 36,
      "type": "SCALAR"
    },
    {
      "bufferView": 2,
      "byteOffset": 336,
      "componentType": 5126,
      "count": 65532,
      "max": [
        37.6724853515625,
        26.677440643310547,
        40.44985580444336
      ],
      "min": [
        -22.14484214782715,
        0.0,
        -6.805930137634277
      ],
      "type": "VEC3"
    },
    {
      "bufferView": 2,
      "byteOffset": 786720,
      "componentType": 5126,
      "count": 65532,
      "max": [
        1.0,
        1.0,
        1.0
      ],
      "min": [
        -1.0,
        -1.0,
        -1.0
      ],
      "type": "VEC3"
    },
    {
      "bufferView": 3,
      "componentType": 5126,
      "count": 65532,
      "max": [
        1.0,
        1.0,
        1.0,
        1.0
      ],
      "min": [
        -1.0,
        -1.0,
        -1.0,
        -1.0
      ],
      "type": "VEC4"
    },
    {
      "bufferView": 1,
      "byteOffset": 448,
      "componentType": 5126,
      "count": 65532,
      "max": [
        1.834671974182129,
        8.104509353637695
      ],
      "min": [
        -1.864626169204712,
        -3.5732502937316895
      ],
      "type": "VEC2"
    },
    {
      "bufferView": 1,
      "byteOffset": 524704,
      "componentType": 5126,
      "count": 65532,
      "max": [
        1.834671974182129,
        8.104509353637695
      ],
      "min": [
        -1.864626169204712,
        -3.5732502937316895
      ],
      "type": "VEC2"
    },
    {
      "bufferView": 1,
      "byteOffset": 1048960,
      "componentType": 5126,
      "count": 65532,
      "max": [
        1.834671974182129,
        8.104509353637695
      ],
      "min": [
        -1.864626169204712,
        -3.5732502937316895
      ],
      "type": "VEC2"
    },
    {
      "bufferView": 1,
      "byteOffset": 1573216,
      "componentType": 5126,
      "count": 65532,
      "max": [
        1.4683752059936523,
        2.4934539794921875
      ],
      "min": [
        -0.1905648112297058,
        -1.4556901454925537
      ],
      "type": "VEC2"
    },
    {
      "bufferView": 1,
      "byteOffset": 2097472,
      "componentType": 5126,
      "count": 65532,
      "max": [
        0.9484707117080688,
        1.0
      ],
      "min": [
        0.0,
        0.000499427318572998
      ],
      "type": "VEC2"
    },
    {
      "bufferView": 1,
      "byteOffset": 2621728,
      "componentType": 5126,
      "count": 65532,
      "max": [
        1.1056630611419678,
        1.0948543548583984
      ],
      "min": [
        -0.10566306114196777,
        -0.12859082221984863
      ],
      "type": "VEC2"
    },
    {
      "bufferView": 1,
      "byteOffset": 3145984,
      "componentType": 5126,
      "count": 65532,
      "max": [
        1.834671974182129,
        8.104509353637695
      ],
      "min": [
        -1.864626169204712,
        -3.5732502937316895
      ],
      "type": "VEC2"
    },
    {
      "bufferView": 0,
      "byteOffset": 144,
      "componentType": 5125,
      "count": 178974,
      "type": "SCALAR"
    },
    {
      "bufferView": 2,
      "byteOffset": 1573104,
      "componentType": 5126,
      "count": 12018,
      "max": [
        37.294837951660156,
        12.905470848083496,
        39.92803955078125
      ],
      "min": [
        -19.91037368774414,
        2.1922285556793213,
        -6.481339454650879
      ],
      "type": "VEC3"
    },
    {
      "bufferView": 2,
      "byteOffset": 1717320,
      "componentType": 5126,
      "count": 12018,
      "max": [
        1.0,
        1.0,
        1.0
      ],
      "min": [
        -1.0,
        -1.0,
        -1.0
      ],
      "type": "VEC3"
    },
    {
      "bufferView": 3,
      "byteOffset": 1048512,
      "componentType": 5126,
      "count": 12018,
      "max": [
        1.0,
        1.0,
        1.0,
        1.0
      ],
      "min": [
        -1.0,
        -1.0,
        -1.0,
        -1.0
      ],
      "type": "VEC4"
    },
    {
      "bufferView": 1,
      "byteOffset": 3670240,
      "componentType": 5126,
      "count": 12018,
      "max": [
        1.2204678058624268,
        1.582636833190918
      ],
      "min": [
        -0.582636833190918,
        -0.3046233654022217
      ],
      "type": "VEC2"
    },
    {
      "bufferView": 1,
      "byteOffset": 3766384,
      "componentType": 5126,
      "count": 12018,
      "max": [
        1.2204678058624268,
        1.582636833190918
      ],
      "min": [
        -0.582636833190918,
        -0.3046233654022217
      ],
      "type": "VEC2"
    },
    {
      "bufferView": 1,
      "byteOffset": 3862528,
      "componentType": 5126,
      "count": 12018,
      "max": [
        1.2204678058624268,
        1.582636833190918
      ],
      "min": [
        -0.582636833190918,
        -0.3046233654022217
      ],
      "type": "VEC2"
    },
    {
      "bufferView": 1,
      "byteOffset": 3958672,
      "componentType": 5126,
      "count": 12018,
      "max": [
        1.4169626235961914,
        2.3165957927703857
      ],
      "min": [
        -0.003444850444793701,
        -1.300816535949707
      ],
      "type": "VEC2"
    },
    {
      "bufferView": 1,
      "byteOffset": 4054816,
      "componentType": 5126,
      "count": 12018,
      "max": [
        0.0,
        1.0
      ],
      "min": [
        0.0,
        1.0
      ],
      "type": "VEC2"
    },
    {
      "bufferView": 1,
      "byteOffset": 4150960,
      "componentType": 5126,
      "count": 12018,
      "max": [
        1.196437120437622,
        1.0948543548583984
      ],
      "min": [
        -0.10566306114196777,
        -0.19643712043762207
      ],
      "type": "VEC2"
    },
    {
      "bufferView": 1,
      "byteOffset": 4247104,
      "componentType": 5126,
      "count": 12018,
      "max": [
        1.2204678058624268,
        1.582636833190918
      ],
      "min": [
        -0.582636833190918,
        -0.3046233654022217
      ],
      "type": "VEC2"
    },
    {
      "bufferView": 0,
      "byteOffset": 716040,
      "componentType": 5125,
      "count": 33552,
      "type": "SCALAR"
    },
    {
      "bufferView": 2,
      "byteOffset": 1861536,
      "componentType": 5126,
      "count": 200,
      "max": [
        36.10899353027344,
        1.989645004272461,
        38.7421989440918
      ],
      "min": [
        -21.61941146850586,
        0.43250590562820435,
        -5.098275661468506
      ],
      "type": "VEC3"
    },
    {
      "bufferView": 2,
      "byteOffset": 1863936,
      "componentType": 5126,
      "count": 200,
      "max": [
        1.0,
        0.0,
        1.0
      ],
      "min": [
        -1.0,
        0.0,
        -1.0
      ],
      "type": "VEC3"
    },
    {
      "bufferView": 1,
      "byteOffset": 4343248,
      "componentType": 5126,
      "count": 200,
      "max": [
        0.0,
        1.0
      ],
      "min": [
        0.0,
        1.0
      ],
      "type": "VEC2"
    },
    {
      "bufferView": 1,
      "byteOffset": 4344848,
      "componentType": 5126,
      "count": 200,
      "max": [
        0.8193808197975159,
        0.38592880964279175
      ],
      "min": [
        0.09719020128250122,
        0.10402363538742065
      ],
      "type": "VEC2"
    },
    {
      "bufferView": 1,
      "byteOffset": 4346448,
      "componentType": 5126,
      "count": 200,
      "max": [
        0.0,
        1.0
      ],
      "min": [
        0.0,
        1.0
      ],
      "type": "VEC2"
    },
    {
      "bufferView": 1,
      "byteOffset": 4348048,
      "componentType": 5126,
      "count": 200,
      "max": [
        0.0,
        1.0
      ],
      "min": [
        0.0,
        1.0
      ],
      "type": "VEC2"
    },
    {
      "bufferView": 0,
      "byteOffset": 850248,
      "componentType": 5125,
      "count": 300,
      "type": "SCALAR"
    },
    {
      "bufferView": 2,
      "byteOffset": 1866336,
      "componentType": 5126,
      "count": 5888,
      "max": [
        36.103031158447266,
        14.995935440063477,
        39.21323013305664
      ],
      "min": [
        -23.754697799682617,
        2.9959352016448975,
        -5.5693039894104
      ],
      "type": "VEC3"
    },
    {
      "bufferView": 2,
      "byteOffset": 1936992,
      "componentType": 5126,
      "count": 5888,
      "max": [
        1.0,
        1.0,
        1.0
      ],
      "min": [
        -1.0,
        -1.0,
        -1.0
      ],
      "type": "VEC3"
    },
    {
      "bufferView": 3,
      "byteOffset": 1240800,
      "componentType": 5126,
      "count": 5888,
      "max": [
        1.0,
        1.0,
        1.0,
        1.0
      ],
      "min": [
        -1.0,
        -1.0,
        -1.0,
        1.0
      ],
      "type": "VEC4"
    },
    {
      "bufferView": 1,
      "byteOffset": 4349648,
      "componentType": 5126,
      "count": 5888,
      "max": [
        1.0,
        1.0
      ],
      "min": [
        -5.960464477539063e-08,
        -0.030492305755615234
      ],
      "type": "VEC2"
    },
    {
      "bufferView": 1,
      "byteOffset": 4396752,
      "componentType": 5126,
      "count": 5888,
      "max": [
        0.0,
        1.0
      ],
      "min": [
        0.0,
        1.0
      ],
      "type": "VEC2"
    },
    {
      "bufferView": 1,
      "byteOffset": 4443856,
      "componentType": 5126,
      "count": 5888,
      "max": [
        0.0,
        1.0
      ],
      "min": [
        0.0,
        1.0
      ],
      "type": "VEC2"
    },
    {
      "bufferView": 1,
      "byteOffset": 4490960,
      "componentType": 5126,
      "count": 5888,
      "max": [
        0.999245285987854,
        1.0
      ],
      "min": [
        -2.9940302681552566e-08,
        5.960464477539063e-08
      ],
      "type": "VEC2"
    },
    {
      "bufferView": 1,
      "byteOffset": 4538064,
      "componentType": 5126,
      "count": 5888,
      "max": [
        1.0,
        1.0
      ],
      "min": [
        -5.960464477539063e-08,
        -0.030492305755615234
      ],
      "type": "VEC2"
    },
    {
      "bufferView": 1,
      "byteOffset": 4585168,
      "componentType": 5126,
      "count": 5888,
      "max": [
        1.0,
        1.0
      ],
      "min": [
        -5.960464477539063e-08,
        -0.030492305755615234
      ],
      "type": "VEC2"
    },
    {
      "bufferView": 1,
      "byteOffset": 4632272,
      "componentType": 5126,
      "count": 5888,
      "max": [
        1.0,
        1.0
      ],
      "min": [
        -5.960464477539063e-08,
        -0.030492305755615234
      ],
      "type": "VEC2"
    },
    {
      "bufferView": 0,
      "byteOffset": 851448,
      "componentType": 5125,
      "count": 12384,
      "type": "SCALAR"
    },
    {
      "bufferView": 2,
      "byteOffset": 2007648,
      "componentType": 5126,
      "count": 992,
      "max": [
        36.11520767211914,
        14.278356552124023,
        38.63996505737305
      ],
      "min": [
        -23.76687240600586,
        3.7135143280029297,
        -5.104489326477051
      ],
      "type": "VEC3"
    },
    {
      "bufferView": 2,
      "byteOffset": 2019552,
      "componentType": 5126,
      "count": 992,
      "max": [
        1.0,
        0.0,
        1.0
      ],
      "min": [
        -1.0,
        0.0,
        -1.0
      ],
      "type": "VEC3"
    },
    {
      "bufferView": 1,
      "byteOffset": 4679376,
      "componentType": 5126,
      "count": 992,
      "max": [
        0.0,
        1.0
      ],
      "min": [
        0.0,
        1.0
      ],
      "type": "VEC2"
    },
    {
      "bufferView": 1,
      "byteOffset": 4687312,
      "componentType": 5126,
      "count": 992,
      "max": [
        0.7608070373535156,
        0.7608070373535156
      ],
      "min": [
        0.23919299244880676,
        0.23919296264648438
      ],
      "type": "VEC2"
    },
    {
      "bufferView": 1,
      "byteOffset": 4695248,
      "componentType": 5126,
      "count": 992,
      "max": [
        0.0,
        1.0
      ],
      "min": [
        0.0,
        1.0
      ],
      "type": "VEC2"
    },
    {
      "bufferView": 1,
      "byteOffset": 4703184,
      "componentType": 5126,
      "count": 992,
      "max": [
        0.8482086658477783,
        0.6034286022186279
      ],
      "min": [
        0.07578001916408539,
        0.027503371238708496
      ],
      "type": "VEC2"
    },
    {
      "bufferView": 0,
      "byteOffset": 900984,
      "componentType": 5125,
      "count": 1488,
      "type": "SCALAR"
    },
    {
      "bufferView": 2,
      "byteOffset": 2031456,
      "componentType": 5126,
      "count": 10920,
      "max": [
        36.515647888183594,
        14.350333213806152,
        34.057334899902344
      ],
      "min": [
        -24.167314529418945,
        3.6415371894836426,
        -5.50493049621582
      ],
      "type": "VEC3"
    },
    {
      "bufferView": 2,
      "byteOffset": 2162496,
      "componentType": 5126,
      "count": 10920,
      "max": [
        1.0,
        1.0,
        1.0
      ],
      "min": [
        -1.0,
        -1.0,
        -1.0
      ],
      "type": "VEC3"
    },
    {
      "bufferView": 1,
      "byteOffset": 4711120,
      "componentType": 5126,
      "count": 10920,
      "max": [
        0.0,
        1.0
      ],
      "min": [
        0.0,
        1.0
      ],
      "type": "VEC2"
    },
    {
      "bufferView": 1,
      "byteOffset": 4798480,
      "componentType": 5126,
      "count": 10920,
      "max": [
        0.6911875605583191,
        0.7543070316314697
      ],
      "min": [
        0.30881232023239136,
        0.1847083568572998
      ],
      "type": "VEC2"
    },
    {
      "bufferView": 1,
      "byteOffset": 4885840,
      "componentType": 5126,
      "count": 10920,
      "max": [
        0.0,
        1.0
      ],
      "min": [
        0.0,
        1.0
      ],
      "type": "VEC2"
    },
    {
      "bufferView": 1,
      "byteOffset": 4973200,
      "componentType": 5126,
      "count": 10920,
      "max": [
        0.960567057132721,
        1.0
      ],
      "min": [
        0.18629854917526245,
        0.0788196325302124
      ],
      "type": "VEC2"
    },
    {
      "bufferView": 0,
      "byteOffset": 906936,
      "componentType": 5125,
      "count": 24000,
      "type": "SCALAR"
    },
    {
      "bufferView": 2,
      "byteOffset": 2293536,
      "componentType": 5126,
      "count": 30208,
      "max": [
        36.07072448730469,
        15.0,
        38.70392608642578
      ],
      "min": [
        -23.72447967529297,
        3.0,
        -5.068308353424072
      ],
      "type": "VEC3"
    },
    {
      "bufferView": 2,
      "byteOffset": 2656032,
      "componentType": 5126,
      "count": 30208,
      "max": [
        0.9982157945632935,
        0.9954044818878174,
        0.9982157945632935
      ],
      "min": [
        -0.9982108473777771,
        -0.9954044818878174,
        -0.9982098937034607
      ],
      "type": "VEC3"
    },
    {
      "bufferView": 3,
      "byteOffset": 1335008,
      "componentType": 5126,
      "count": 30208,
      "max": [
        0.9999520182609558,
        0.998345673084259,
        0.9993153810501099,
        1.0
      ],
      "min": [
        -0.9999520182609558,
        -0.998345673084259,
        -0.9993153810501099,
        1.0
      ],
      "type": "VEC4"
    },
    {
      "bufferView": 1,
      "byteOffset": 5060560,
      "componentType": 5126,
      "count": 30208,
      "max": [
        0.8450084328651428,
        2.0000007152557373
      ],
      "min": [
        0.1549915373325348,
        -1.0
      ],
      "type": "VEC2"
    },
    {
      "bufferView": 1,
      "byteOffset": 5302224,
      "componentType": 5126,
      "count": 30208,
      "max": [
        0.0,
        1.0
      ],
      "min": [
        0.0,
        1.0
      ],
      "type": "VEC2"
    },
    {
      "bufferView": 1,
      "byteOffset": 5543888,
      "componentType": 5126,
      "count": 30208,
      "max": [
        0.0,
        1.0
      ],
      "min": [
        0.0,
        1.0
      ],
      "type": "VEC2"
    },
    {
      "bufferView": 1,
      "byteOffset": 5785552,
      "componentType": 5126,
      "count": 30208,
      "max": [
        0.0,
        1.0
      ],
      "min": [
        0.0,
        1.0
      ],
      "type": "VEC2"
    },
    {
      "bufferView": 1,
      "byteOffset": 6027216,
      "componentType": 5126,
      "count": 30208,
      "max": [
        0.8450084328651428,
        2.0000007152557373
      ],
      "min": [
        0.1549915373325348,
        -1.0
      ],
      "type": "VEC2"
    },
    {
      "bufferView": 1,
      "byteOffset": 6268880,
      "componentType": 5126,
      "count": 30208,
      "max": [
        0.8450084328651428,
        2.0000007152557373
      ],
      "min": [
        0.1549915373325348,
        -1.0
      ],
      "type": "VEC2"
    },
    {
      "bufferView": 1,
      "byteOffset": 6510544,
      "componentType": 5126,
      "count": 30208,
      "max": [
        0.8450084328651428,
        2.0000007152557373
      ],
      "min": [
        0.1549915373325348,
        -1.0
      ],
      "type": "VEC2"
    },
    {
      "bufferView": 0,
      "byteOffset": 1002936,
      "componentType": 5125,
      "count": 73920,
      "type": "SCALAR"
    },
    {
      "bufferView": 2,
      "byteOffset": 3018528,
      "componentType": 5126,
      "count": 336,
      "max": [
        30.97883415222168,
        7.423656463623047,
        40.35134506225586
      ],
      "min": [
        -17.205411911010742,
        3.303945302963257,
        -6.7074198722839355
      ],
      "type": "VEC3"
    },
    {
      "bufferView": 2,
      "byteOffset": 3022560,
      "componentType": 5126,
      "count": 336,
      "max": [
        1.0,
        1.0,
        1.0
      ],
      "min": [
        -1.0,
        -1.0,
        -1.0
      ],
      "type": "VEC3"
    },
    {
      "bufferView": 1,
      "byteOffset": 6752208,
      "componentType": 5126,
      "count": 336,
      "max": [
        0.0,
        1.0
      ],
      "min": [
        0.0,
        1.0
      ],
      "type": "VEC2"
    },
    {
      "bufferView": 1,
      "byteOffset": 6754896,
      "componentType": 5126,
      "count": 336,
      "max": [
        3.4475131034851074,
        3.4475128650665283
      ],
      "min": [
        -2.4475128650665283,
        -2.4475131034851074
      ],
      "type": "VEC2"
    },
    {
      "bufferView": 1,
      "byteOffset": 6757584,
      "componentType": 5126,
      "count": 336,
      "max": [
        0.0,
        1.0
      ],
      "min": [
        0.0,
        1.0
      ],
      "type": "VEC2"
    },
    {
      "bufferView": 1,
      "byteOffset": 6760272,
      "componentType": 5126,
      "count": 336,
      "max": [
        0.0,
        1.0
      ],
      "min": [
        0.0,
        1.0
      ],
      "type": "VEC2"
    },
    {
      "bufferView": 0,
      "byteOffset": 1298616,
      "componentType": 5125,
      "count": 504,
      "type": "SCALAR"
    },
    {
      "bufferView": 2,
      "byteOffset": 3026592,
      "componentType": 5126,
      "count": 65532,
      "max": [
        37.49087142944336,
        9.465858459472656,
        40.25387954711914
      ],
      "min": [
        -17.138914108276367,
        3.3475921154022217,
        -5.3553266525268555
      ],
      "type": "VEC3"
    },
    {
      "bufferView": 2,
      "byteOffset": 3812976,
      "componentType": 5126,
      "count": 65532,
      "max": [
        1.0,
        1.0,
        1.0
      ],
      "min": [
        -1.0,
        -1.0,
        -1.0
      ],
      "type": "VEC3"
    },
    {
      "bufferView": 1,
      "byteOffset": 6762960,
      "componentType": 5126,
      "count": 65532,
      "max": [
        0.0,
        1.0
      ],
      "min": [
        0.0,
        1.0
      ],
      "type": "VEC2"
    },
    {
      "bufferView": 1,
      "byteOffset": 7287216,
      "componentType": 5126,
      "count": 65532,
      "max": [
        0.0,
        1.0
      ],
      "min": [
        0.0,
        1.0
      ],
      "type": "VEC2"
    },
    {
      "bufferView": 1,
      "byteOffset": 7811472,
      "componentType": 5126,
      "count": 65532,
      "max": [
        0.0,
        1.0
      ],
      "min": [
        0.0,
        1.0
      ],
      "type": "VEC2"
    },
    {
      "bufferView": 1,
      "byteOffset": 8335728,
      "componentType": 5126,
      "count": 65532,
      "max": [
        0.0,
        1.0
      ],
      "min": [
        0.0,
        1.0
      ],
      "type": "VEC2"
    },
    {
      "bufferView": 0,
      "byteOffset": 1300632,
      "componentType": 5125,
      "count": 108186,
      "type": "SCALAR"
    },
    {
      "bufferView": 2,
      "byteOffset": 4599360,
      "componentType": 5126,
      "count": 65532,
      "max": [
        0.5990206003189087,
        7.348374366760254,
        40.26959991455078
      ],
      "min": [
        -19.155689239501953,
        3.3475921154022217,
        4.106797218322754
      ],
      "type": "VEC3"
    },
    {
      "bufferView": 2,
      "byteOffset": 5385744,
      "componentType": 5126,
      "count": 65532,
      "max": [
        1.0,
        1.0,
        1.0
      ],
      "min": [
        -1.0,
        -1.0,
        -1.0
      ],
      "type": "VEC3"
    },
    {
      "bufferView": 1,
      "byteOffset": 8859984,
      "componentType": 5126,
      "count": 65532,
      "max": [
        0.0,
        1.0
      ],
      "min": [
        0.0,
        1.0
      ],
      "type": "VEC2"
    },
    {
      "bufferView": 1,
      "byteOffset": 9384240,
      "componentType": 5126,
      "count": 65532,
      "max": [
        0.0,
        1.0
      ],
      "min": [
        0.0,
        1.0
      ],
      "type": "VEC2"
    },
    {
      "bufferView": 1,
      "byteOffset": 9908496,
      "componentType": 5126,
      "count": 65532,
      "max": [
        0.0,
        1.0
      ],
      "min": [
        0.0,
        1.0
      ],
      "type": "VEC2"
    },
    {
      "bufferView": 1,
      "byteOffset": 10432752,
      "componentType": 5126,
      "count": 65532,
      "max": [
        0.0,
        1.0
      ],
      "min": [
        0.0,
        1.0
      ],
      "type": "VEC2"
    },
    {
      "bufferView": 0,
      "byteOffset": 1733376,
      "componentType": 5125,
      "count": 91860,
      "type": "SCALAR"
    },
    {
      "bufferView": 2,
      "byteOffset": 6172128,
      "componentType": 5126,
      "count": 65532,
      "max": [
        31.041831970214844,
        9.465858459472656,
        40.26959991455078
      ],
      "min": [
        -6.60995626449585,
        3.3475921154022217,
        1.0079762935638428
      ],
      "type": "VEC3"
    },
    {
      "bufferView": 2,
      "byteOffset": 6958512,
      "componentType": 5126,
      "count": 65532,
      "max": [
        1.0,
        1.0,
        1.0
      ],
      "min": [
        -1.0,
        -1.0,
        -1.0
      ],
      "type": "VEC3"
    },
    {
      "bufferView": 1,
      "byteOffset": 10957008,
      "componentType": 5126,
      "count": 65532,
      "max": [
        0.0,
        1.0
      ],
      "min": [
        0.0,
        1.0
      ],
      "type": "VEC2"
    },
    {
      "bufferView": 1,
      "byteOffset": 11481264,
      "componentType": 5126,
      "count": 65532,
      "max": [
        0.0,
        1.0
      ],
      "min": [
        0.0,
        1.0
      ],
      "type": "VEC2"
    },
    {
      "bufferView": 1,
      "byteOffset": 12005520,
      "componentType": 5126,
      "count": 65532,
      "max": [
        0.0,
        1.0
      ],
      "min": [
        0.0,
        1.0
      ],
      "type": "VEC2"
    },
    {
      "bufferView": 1,
      "byteOffset": 12529776,
      "componentType": 5126,
      "count": 65532,
      "max": [
        0.0,
        1.0
      ],
      "min": [
        0.0,
        1.0
      ],
      "type": "VEC2"
    },
    {
      "bufferView": 0,
      "byteOffset": 2100816,
      "componentType": 5125,
      "count": 118602,
      "type": "SCALAR"
    },
    {
      "bufferView": 2,
      "byteOffset": 7744896,
      "componentType": 5126,
      "count": 60036,
      "max": [
        6.60995626449585,
        9.465858459472656,
        1.1941404342651367
      ],
      "min": [
        -17.25458526611328,
        3.3475921154022217,
        -6.625675201416016
      ],
      "type": "VEC3"
    },
    {
      "bufferView": 2,
      "byteOffset": 8465328,
      "componentType": 5126,
      "count": 60036,
      "max": [
        1.0,
        1.0,
        1.0
      ],
      "min": [
        -1.0,
        -1.0,
        -1.0
      ],
      "type": "VEC3"
    },
    {
      "bufferView": 1,
      "byteOffset": 13054032,
      "componentType": 5126,
      "count": 60036,
      "max": [
        0.0,
        1.0
      ],
      "min": [
        0.0,
        1.0
      ],
      "type": "VEC2"
    },
    {
      "bufferView": 1,
      "byteOffset": 13534320,
      "componentType": 5126,
      "count": 60036,
      "max": [
        0.0,
        1.0
      ],
      "min": [
        0.0,
        1.0
      ],
      "type": "VEC2"
    },
    {
      "bufferView": 1,
      "byteOffset": 14014608,
      "componentType": 5126,
      "count": 60036,
      "max": [
        0.0,
        1.0
      ],
      "min": [
        0.0,
        1.0
      ],
      "type": "VEC2"
    },
    {
      "bufferView": 1,
      "byteOffset": 14494896,
      "componentType": 5126,
      "count": 60036,
      "max": [
        0.0,
        1.0
      ],
      "min": [
        0.0,
        1.0
      ],
      "type": "VEC2"
    },
    {
      "bufferView": 0,
      "byteOffset": 2575224,
      "componentType": 5125,
      "count": 89928,
      "type": "SCALAR"
    },
    {
      "bufferView": 2,
      "byteOffset": 9185760,
      "componentType": 5126,
      "count": 144,
      "max": [
        37.543975830078125,
        9.760160446166992,
        40.177181243896484
      ],
      "min": [
        -19.109830856323242,
        3.303945302963257,
        -6.533255577087402
      ],
      "type": "VEC3"
    },
    {
      "bufferView": 2,
      "byteOffset": 9187488,
      "componentType": 5126,
      "count": 144,
      "max": [
        1.0,
        1.0,
        1.0
      ],
      "min": [
        -1.0,
        -1.0,
        -1.0
      ],
      "type": "VEC3"
    },
    {
      "bufferView": 1,
      "byteOffset": 14975184,
      "componentType": 5126,
      "count": 144,
      "max": [
        3.012101888656616,
        9.140538215637207
      ],
      "min": [
        -2.012101411819458,
        -8.140539169311523
      ],
      "type": "VEC2"
    },
    {
      "bufferView": 1,
      "byteOffset": 14976336,
      "componentType": 5126,
      "count": 144,
      "max": [
        0.0,
        1.0
      ],
      "min": [
        0.0,
        1.0
      ],
      "type": "VEC2"
    },
    {
      "bufferView": 1,
      "byteOffset": 14977488,
      "componentType": 5126,
      "count": 144,
      "max": [
        0.0,
        1.0
      ],
      "min": [
        0.0,
        1.0
      ],
      "type": "VEC2"
    },
    {
      "bufferView": 1,
      "byteOffset": 14978640,
      "componentType": 5126,
      "count": 144,
      "max": [
        0.0,
        1.0
      ],
      "min": [
        0.0,
        1.0
      ],
      "type": "VEC2"
    },
    {
      "bufferView": 0,
      "byteOffset": 2934936,
      "componentType": 5125,
      "count": 216,
      "type": "SCALAR"
    },
    {
      "bufferView": 2,
      "byteOffset": 9189216,
      "componentType": 5126,
      "count": 55542,
      "max": [
        36.6393928527832,
        13.368760108947754,
        39.109153747558594
      ],
      "min": [
        -24.12761116027832,
        2.549624443054199,
        -5.4652276039123535
      ],
      "type": "VEC3"
    },
    {
      "bufferView": 2,
      "byteOffset": 9855720,
      "componentType": 5126,
      "count": 55542,
      "max": [
        1.0,
        0.9999998807907104,
        1.0
      ],
      "min": [
        -1.0,
        -1.0,
        -1.0
      ],
      "type": "VEC3"
    },
    {
      "bufferView": 3,
      "byteOffset": 1818336,
      "componentType": 5126,
      "count": 55542,
      "max": [
        1.0,
        1.0,
        1.0,
        1.0
      ],
      "min": [
        -1.0,
        -1.0,
        -1.0,
        1.0
      ],
      "type": "VEC4"
    },
    {
      "bufferView": 1,
      "byteOffset": 14979792,
      "componentType": 5126,
      "count": 55542,
      "max": [
        0.8750000596046448,
        1.0
      ],
      "min": [
        0.0,
        0.0
      ],
      "type": "VEC2"
    },
    {
      "bufferView": 1,
      "byteOffset": 15424128,
      "componentType": 5126,
      "count": 55542,
      "max": [
        0.0,
        1.0
      ],
      "min": [
        0.0,
        1.0
      ],
      "type": "VEC2"
    },
    {
      "bufferView": 1,
      "byteOffset": 15868464,
      "componentType": 5126,
      "count": 55542,
      "max": [
        0.0,
        1.0
      ],
      "min": [
        0.0,
        1.0
      ],
      "type": "VEC2"
    },
    {
      "bufferView": 1,
      "byteOffset": 16312800,
      "componentType": 5126,
      "count": 55542,
      "max": [
        1.0931042432785034,
        1.1713433265686035
      ],
      "min": [
        0.07402601838111877,
        -0.08943498134613037
      ],
      "type": "VEC2"
    },
    {
      "bufferView": 1,
      "byteOffset": 16757136,
      "componentType": 5126,
      "count": 55542,
      "max": [
        0.8750000596046448,
        1.0
      ],
      "min": [
        0.0,
        0.0
      ],
      "type": "VEC2"
    },
    {
      "bufferView": 1,
      "byteOffset": 17201472,
      "componentType": 5126,
      "count": 55542,
      "max": [
        0.8750000596046448,
        1.0
      ],
      "min": [
        0.0,
        0.0
      ],
      "type": "VEC2"
    },
    {
      "bufferView": 0,
      "byteOffset": 2935800,
      "componentType": 5125,
      "count": 113568,
      "type": "SCALAR"
    },
    {
      "bufferView": 2,
      "byteOffset": 10522224,
      "componentType": 5126,
      "count": 51222,
      "max": [
        36.315670013427734,
        16.006732940673828,
        38.94887161254883
      ],
      "min": [
        -23.98281478881836,
        15.0,
        -5.3049468994140625
      ],
      "type": "VEC3"
    },
    {
      "bufferView": 2,
      "byteOffset": 11136888,
      "componentType": 5126,
      "count": 51222,
      "max": [
        1.0,
        1.0,
        1.0
      ],
      "min": [
        -1.0,
        -1.0,
        -1.0
      ],
      "type": "VEC3"
    },
    {
      "bufferView": 3,
      "byteOffset": 2707008,
      "componentType": 5126,
      "count": 51222,
      "max": [
        1.0,
        1.0,
        1.0,
        1.0
      ],
      "min": [
        -1.0,
        -1.0,
        -1.0,
        1.0
      ],
      "type": "VEC4"
    },
    {
      "bufferView": 1,
      "byteOffset": 17645808,
      "componentType": 5126,
      "count": 51222,
      "max": [
        1.0,
        1.0
      ],
      "min": [
        -2.6908303141226497e-08,
        0.0
      ],
      "type": "VEC2"
    },
    {
      "bufferView": 1,
      "byteOffset": 18055584,
      "componentType": 5126,
      "count": 51222,
      "max": [
        1.0,
        1.0
      ],
      "min": [
        -2.6908303141226497e-08,
        0.0
      ],
      "type": "VEC2"
    },
    {
      "bufferView": 1,
      "byteOffset": 18465360,
      "componentType": 5126,
      "count": 51222,
      "max": [
        1.0,
        1.0
      ],
      "min": [
        -2.6908303141226497e-08,
        0.0
      ],
      "type": "VEC2"
    },
    {
      "bufferView": 1,
      "byteOffset": 18875136,
      "componentType": 5126,
      "count": 51222,
      "max": [
        0.0,
        1.0
      ],
      "min": [
        0.0,
        1.0
      ],
      "type": "VEC2"
    },
    {
      "bufferView": 1,
      "byteOffset": 19284912,
      "componentType": 5126,
      "count": 51222,
      "max": [
        0.0,
        1.0
      ],
      "min": [
        0.0,
        1.0
      ],
      "type": "VEC2"
    },
    {
      "bufferView": 1,
      "byteOffset": 19694688,
      "componentType": 5126,
      "count": 51222,
      "max": [
        0.0,
        1.0
      ],
      "min": [
        0.0,
        1.0
      ],
      "type": "VEC2"
    },
    {
      "bufferView": 1,
      "byteOffset": 20104464,
      "componentType": 5126,
      "count": 51222,
      "max": [
        1.0,
        1.0
      ],
      "min": [
        -2.6908303141226497e-08,
        0.0
      ],
      "type": "VEC2"
    },
    {
      "bufferView": 0,
      "byteOffset": 3390072,
      "componentType": 5125,
      "count": 105537,
      "type": "SCALAR"
    },
    {
      "bufferView": 2,
      "byteOffset": 11751552,
      "componentType": 5126,
      "count": 27284,
      "max": [
        36.565887451171875,
        3.0684525966644287,
        39.19908905029297
      ],
      "min": [
        -24.245624542236328,
        -1.1641532182693481e-10,
        -5.778206825256348
      ],
      "type": "VEC3"
    },
    {
      "bufferView": 2,
      "byteOffset": 12078960,
      "componentType": 5126,
      "count": 27284,
      "max": [
        1.0,
        1.0,
        1.0
      ],
      "min": [
        -1.0,
        -1.0,
        -1.0
      ],
      "type": "VEC3"
    },
    {
      "bufferView": 3,
      "byteOffset": 3526560,
      "componentType": 5126,
      "count": 27284,
      "max": [
        1.0,
        1.0,
        1.0,
        1.0
      ],
      "min": [
        -1.0,
        -1.0,
        -1.0,
        1.0
      ],
      "type": "VEC4"
    },
    {
      "bufferView": 1,
      "byteOffset": 20514240,
      "componentType": 5126,
      "count": 27284,
      "max": [
        1.0,
        1.0
      ],
      "min": [
        -1.2729542753220358e-08,
        0.0
      ],
      "type": "VEC2"
    },
    {
      "bufferView": 1,
      "byteOffset": 20732512,
      "componentType": 5126,
      "count": 27284,
      "max": [
        1.0,
        1.0
      ],
      "min": [
        -1.2729542753220358e-08,
        0.0
      ],
      "type": "VEC2"
    },
    {
      "bufferView": 1,
      "byteOffset": 20950784,
      "componentType": 5126,
      "count": 27284,
      "max": [
        1.0,
        1.0
      ],
      "min": [
        -1.2729542753220358e-08,
        0.0
      ],
      "type": "VEC2"
    },
    {
      "bufferView": 1,
      "byteOffset": 21169056,
      "componentType": 5126,
      "count": 27284,
      "max": [
        0.0,
        1.0
      ],
      "min": [
        0.0,
        1.0
      ],
      "type": "VEC2"
    },
    {
      "bufferView": 1,
      "byteOffset": 21387328,
      "componentType": 5126,
      "count": 27284,
      "max": [
        0.0,
        1.0
      ],
      "min": [
        0.0,
        1.0
      ],
      "type": "VEC2"
    },
    {
      "bufferView": 1,
      "byteOffset": 21605600,
      "componentType": 5126,
      "count": 27284,
      "max": [
        0.0,
        1.0
      ],
      "min": [
        0.0,
        1.0
      ],
      "type": "VEC2"
    },
    {
      "bufferView": 1,
      "byteOffset": 21823872,
      "componentType": 5126,
      "count": 27284,
      "max": [
        1.0,
        1.0
      ],
      "min": [
        -1.2729542753220358e-08,
        0.0
      ],
      "type": "VEC2"
    },
    {
      "bufferView": 0,
      "byteOffset": 3812220,
      "componentType": 5125,
      "count": 55596,
      "type": "SCALAR"
    }
  ],
  "asset": {
    "extras": {
      "author": "abhayexe (https://sketchfab.com/abhayexe)",
      "license": "SKETCHFAB Standard (https://sketchfab.com/licenses)",
      "source": "https://sketchfab.com/3d-models/building-3ccdf7a027024466847026d15ed534d7",
      "title": "Building"
    },
    "generator": "Sketchfab-16.85.0",
    "version": "2.0"
  },
  "bufferViews": [
    {
      "buffer": 0,
      "byteLength": 4034604,
      "name": "floatBufferViews",
      "target": 34963
    },
    {
      "buffer": 0,
      "byteLength": 22042144,
      "byteOffset": 4034604,
      "byteStride": 8,
      "name": "floatBufferViews",
      "target": 34962
    },
    {
      "buffer": 0,
      "byteLength": 12406368,
      "byteOffset": 26076748,
      "byteStride": 12,
      "name": "floatBufferViews",
      "target": 34962
    },
    {
      "buffer": 0,
      "byteLength": 3963104,
      "byteOffset": 38483116,
      "byteStride": 16,
      "name": "floatBufferViews",
      "target": 34962
    }
  ],
  "buffers": [
    {
      "byteLength": 42446220,
      "uri": "scene.bin"
    }
  ],
  "extensionsUsed": [
    "KHR_texture_transform"
  ],
  "images": [
    {
      "uri": "textures/Old_White_Metal_baseColor.jpeg"
    },
    {
      "uri": "textures/Old_White_Metal_metallicRoughness.png"
    },
    {
      "uri": "textures/Old_White_Metal_normal.jpeg"
    },
    {
      "uri": "textures/Stone_wall_baseColor.jpeg"
    },
    {
      "uri": "textures/Stone_wall_metallicRoughness.png"
    },
    {
      "uri": "textures/Stone_wall_normal.jpeg"
    },
    {
      "uri": "textures/Concrete.002_baseColor.jpeg"
    },
    {
      "uri": "textures/Concrete.002_metallicRoughness.png"
    },
    {
      "uri": "textures/Concrete.002_normal.jpeg"
    },
    {
      "uri": "textures/Gun_Metal_metallicRoughness.png"
    },
    {
      "uri": "textures/Gun_Metal_normal.jpeg"
    },
    {
      "uri": "textures/Concrete.003_baseColor.jpeg"
    },
    {
      "uri": "textures/Concrete.003_metallicRoughness.png"
    },
    {
      "uri": "textures/Concrete.003_normal.jpeg"
    },
    {
      "uri": "textures/Concrete_baseColor.jpeg"
    },
    {
      "uri": "textures/Concrete_metallicRoughness.png"
    },
    {
      "uri": "textures/Concrete_normal.jpeg"
    }
  ],
  "materials": [
    {
      "doubleSided": true,
      "name": "proxy_mat_roof",
      "pbrMetallicRoughness": {
        "baseColorFactor": [
          0.0420278,
          0.0420278,
          0.0420278,
          1.0
        ],
        "metallicFactor": 0.0,
        "roughnessFactor": 0.858209
      }
    },
    {
      "doubleSided": true,
      "name": "Old_White_Metal",
      "normalTexture": {
        "extensions": {
          "KHR_texture_transform": {
            "offset": [
              0,
              -1
            ],
            "scale": [
              2,
              2
            ]
          }
        },
        "index": 2,
        "texCoord": 2
      },
      "pbrMetallicRoughness": {
        "baseColorTexture": {
          "extensions": {
            "KHR_texture_transform": {
              "offset": [
                0,
                -1
              ],
              "scale": [
                2,
                2
              ]
            }
          },
          "index": 0
        },
        "metallicRoughnessTexture": {
          "extensions": {
            "KHR_texture_transform": {
              "offset": [
                0,
                -1
              ],
              "scale": [
                2,
                2
              ]
            }
          },
          "index": 1,
          "texCoord": 1
        }
      }
    },
    {
      "doubleSided": true,
      "name": "proxy_mat_general_reflective",
      "pbrMetallicRoughness": {
        "baseColorFactor": [
          0.0272096,
          0.0272096,
          0.0272096,
          1.0
        ],
        "metallicFactor": 0.0,
        "roughnessFactor": 0.039801
      }
    },
    {
      "doubleSided": true,
      "name": "Stone_wall",
      "normalTexture": {
        "index": 5
      },
      "pbrMetallicRoughness": {
        "baseColorTexture": {
          "index": 3
        },
        "metallicFactor": 0.0,
        "metallicRoughnessTexture": {
          "index": 4
        }
      }
    },
    {
      "doubleSided": true,
      "name": "Blur_Translucent_Glass_glass"
    },
    {
      "doubleSided": true,
      "name": "Material.003",
      "pbrMetallicRoughness": {
        "roughnessFactor": 0.3
      }
    },
    {
      "doubleSided": true,
      "name": "Concrete.002",
      "normalTexture": {
        "index": 8
      },
      "pbrMetallicRoughness": {
        "baseColorTexture": {
          "index": 6
        },
        "metallicFactor": 0.0,
        "metallicRoughnessTexture": {
          "index": 7
        }
      }
    },
    {
      "doubleSided": true,
      "name": "proxy_mat_white.001",
      "pbrMetallicRoughness": {
        "baseColorFactor": [
          0.248065,
          1.0,
          0.652183,
          1.0
        ],
        "metallicFactor": 0.0,
        "roughnessFactor": 0.858209
      }
    },
    {
      "doubleSided": true,
      "emissiveFactor": [
        1.0,
        1.0,
        1.0
      ],
      "name": "Material.001",
      "pbrMetallicRoughness": {
        "baseColorFactor": [
          0.8,
          0.8,
          0.8,
          1.0
        ],
        "metallicFactor": 0.0,
        "roughnessFactor": 0.5
      }
    },
    {
      "doubleSided": true,
      "name": "proxy_mat_white",
      "pbrMetallicRoughness": {
        "baseColorFactor": [
          0.120404,
          0.238585,
          0.438501,
          1.0
        ],
        "metallicFactor": 0.0,
        "roughnessFactor": 0.858209
      }
    },
    {
      "doubleSided": true,
      "name": "Gun_Metal",
      "normalTexture": {
        "index": 10
      },
      "pbrMetallicRoughness": {
        "baseColorFactor": [
          0.348984,
          0.376423,
          0.388982,
          1.0
        ],
        "metallicRoughnessTexture": {
          "index": 9
        }
      }
    },
    {
      "doubleSided": true,
      "name": "Concrete.003",
      "normalTexture": {
        "extensions": {
          "KHR_texture_transform": {
            "offset": [
              -0.057564,
              0.00165818
            ],
            "rotation": 0.0575959
          }
        },
        "index": 13,
        "texCoord": 2
      },
      "pbrMetallicRoughness": {
        "baseColorTexture": {
          "extensions": {
            "KHR_texture_transform": {
              "offset": [
                -0.057564,
                0.00165818
              ],
              "rotation": 0.0575959
            }
          },
          "index": 11
        },
        "metallicFactor": 0.0,
        "metallicRoughnessTexture": {
          "extensions": {
            "KHR_texture_transform": {
              "offset": [
                -0.057564,
                0.00165818
              ],
              "rotation": 0.0575959
            }
          },
          "index": 12,
          "texCoord": 1
        }
      }
    },
    {
      "doubleSided": true,
      "name": "Concrete",
      "normalTexture": {
        "index": 16,
        "texCoord": 2
      },
      "pbrMetallicRoughness": {
        "baseColorTexture": {
          "index": 14
        },
        "metallicFactor": 0.0,
        "metallicRoughnessTexture": {
          "index": 15,
          "texCoord": 1
        }
      }
    }
  ],
  "meshes": [
    {
      "name": "Object_0",
      "primitives": [
        {
          "attributes": {
            "NORMAL": 1,
            "POSITION": 0,
            "TEXCOORD_0": 2,
            "TEXCOORD_1": 3,
            "TEXCOORD_2": 4,
            "TEXCOORD_3": 5
          },
          "indices": 6,
          "material": 0,
          "mode": 4
        }
      ]
    },
    {
      "name": "Object_1",
      "primitives": [
        {
          "attributes": {
            "NORMAL": 8,
            "POSITION": 7,
            "TANGENT": 9,
            "TEXCOORD_0": 10,
            "TEXCOORD_1": 11,
            "TEXCOORD_2": 12,
            "TEXCOORD_3": 13,
            "TEXCOORD_4": 14,
            "TEXCOORD_5": 15,
            "TEXCOORD_6": 16
          },
          "indices": 17,
          "material": 1,
          "mode": 4
        }
      ]
    },
    {
      "name": "Object_2",
      "primitives": [
        {
          "attributes": {
            "NORMAL": 19,
            "POSITION": 18,
            "TANGENT": 20,
            "TEXCOORD_0": 21,
            "TEXCOORD_1": 22,
            "TEXCOORD_2": 23,
            "TEXCOORD_3": 24,
            "TEXCOORD_4": 25,
            "TEXCOORD_5": 26,
            "TEXCOORD_6": 27
          },
          "indices": 28,
          "material": 1,
          "mode": 4
        }
      ]
    },
    {
      "name": "Object_3",
      "primitives": [
        {
          "attributes": {
            "NORMAL": 30,
            "POSITION": 29,
            "TEXCOORD_0": 31,
            "TEXCOORD_1": 32,
            "TEXCOORD_2": 33,
            "TEXCOORD_3": 34
          },
          "indices": 35,
          "material": 2,
          "mode": 4
        }
      ]
    },
    {
      "name": "Object_4",
      "primitives": [
        {
          "attributes": {
            "NORMAL": 37,
            "POSITION": 36,
            "TANGENT": 38,
            "TEXCOORD_0": 39,
            "TEXCOORD_1": 40,
            "TEXCOORD_2": 41,
            "TEXCOORD_3": 42,
            "TEXCOORD_4": 43,
            "TEXCOORD_5": 44,
            "TEXCOORD_6": 45
          },
          "indices": 46,
          "material": 3,
          "mode": 4
        }
      ]
    },
    {
      "name": "Object_5",
      "primitives": [
        {
          "attributes": {
            "NORMAL": 48,
            "POSITION": 47,
            "TEXCOORD_0": 49,
            "TEXCOORD_1": 50,
            "TEXCOORD_2": 51,
            "TEXCOORD_3": 52
          },
          "indices": 53,
          "material": 4,
          "mode": 4
        }
      ]
    },
    {
      "name": "Object_6",
      "primitives": [
        {
          "attributes": {
            "NORMAL": 55,
            "POSITION": 54,
            "TEXCOORD_0": 56,
            "TEXCOORD_1": 57,
            "TEXCOORD_2": 58,
            "TEXCOORD_3": 59
          },
          "indices": 60,
          "material": 5,
          "mode": 4
        }
      ]
    },
    {
      "name": "Object_7",
      "primitives": [
        {
          "attributes": {
            "NORMAL": 62,
            "POSITION": 61,
            "TANGENT": 63,
            "TEXCOORD_0": 64,
            "TEXCOORD_1": 65,
            "TEXCOORD_2": 66,
            "TEXCOORD_3": 67,
            "TEXCOORD_4": 68,
            "TEXCOORD_5": 69,
            "TEXCOORD_6": 70
          },
          "indices": 71,
          "material": 6,
          "mode": 4
        }
      ]
    },
    {
      "name": "Object_8",
      "primitives": [
        {
          "attributes": {
            "NORMAL": 73,
            "POSITION": 72,
            "TEXCOORD_0": 74,
            "TEXCOORD_1": 75,
            "TEXCOORD_2": 76,
            "TEXCOORD_3": 77
          },
          "indices": 78,
          "material": 7,
          "mode": 4
        }
      ]
    },
    {
      "name": "Object_9",
      "primitives": [
        {
          "attributes": {
            "NORMAL": 80,
            "POSITION": 79,
            "TEXCOORD_0": 81,
            "TEXCOORD_1": 82,
            "TEXCOORD_2": 83,
            "TEXCOORD_3": 84
          },
          "indices": 85,
          "material": 8,
          "mode": 4
        }
      ]
    },
    {
      "name": "Object_10",
      "primitives": [
        {
          "attributes": {
            "NORMAL": 87,
            "POSITION": 86,
            "TEXCOORD_0": 88,
            "TEXCOORD_1": 89,
            "TEXCOORD_2": 90,
            "TEXCOORD_3": 91
          },
          "indices": 92,
          "material": 8,
          "mode": 4
        }
      ]
    },
    {
      "name": "Object_11",
      "primitives": [
        {
          "attributes": {
            "NORMAL": 94,
            "POSITION": 93,
            "TEXCOORD_0": 95,
            "TEXCOORD_1": 96,
            "TEXCOORD_2": 97,
            "TEXCOORD_3": 98
          },
          "indices": 99,
          "material": 8,
          "mode": 4
        }
      ]
    },
    {
      "name": "Object_12",
      "primitives": [
        {
          "attributes": {
            "NORMAL": 101,
            "POSITION": 100,
            "TEXCOORD_0": 102,
            "TEXCOORD_1": 103,
            "TEXCOORD_2": 104,
            "TEXCOORD_3": 105
          },
          "indices": 106,
          "material": 8,
          "mode": 4
        }
      ]
    },
    {
      "name": "Object_13",
      "primitives": [
        {
          "attributes": {
            "NORMAL": 108,
            "POSITION": 107,
            "TEXCOORD_0": 109,
            "TEXCOORD_1": 110,
            "TEXCOORD_2": 111,
            "TEXCOORD_3": 112
          },
          "indices": 113,
          "material": 9,
          "mode": 4
        }
      ]
    },
    {
      "name": "Object_14",
      "primitives": [
        {
          "attributes": {
            "NORMAL": 115,
            "POSITION": 114,
            "TANGENT": 116,
            "TEXCOORD_0": 117,
            "TEXCOORD_1": 118,
            "TEXCOORD_2": 119,
            "TEXCOORD_3": 120,
            "TEXCOORD_4": 121,
            "TEXCOORD_5": 122
          },
          "indices": 123,
          "material": 10,
          "mode": 4
        }
      ]
    },
    {
      "name": "Object_15",
      "primitives": [
        {
          "attributes": {
            "NORMAL": 125,
            "POSITION": 124,
            "TANGENT": 126,
            "TEXCOORD_0": 127,
            "TEXCOORD_1": 128,
            "TEXCOORD_2": 129,
            "TEXCOORD_3": 130,
            "TEXCOORD_4": 131,
            "TEXCOORD_5": 132,
            "TEXCOORD_6": 133
          },
          "indices": 134,
          "material": 11,
          "mode": 4
        }
      ]
    },
    {
      "name": "Object_16",
      "primitives": [
        {
          "attributes": {
            "NORMAL": 136,
            "POSITION": 135,
            "TANGENT": 137,
            "TEXCOORD_0": 138,
            "TEXCOORD_1": 139,
            "TEXCOORD_2": 140,
            "TEXCOORD_3": 141,
            "TEXCOORD_4": 142,
            "TEXCOORD_5": 143,
            "TEXCOORD_6": 144
          },
          "indices": 145,
          "material": 12,
          "mode": 4
        }
      ]
    }
  ],
  "nodes": [
    {
      "children": [
        1
      ],
      "matrix": [
        1.0,
        0.0,
        0.0,
        0.0,
        0.0,
        2.220446049250313e-16,
        -1.0,
        0.0,
        0.0,
        1.0,
        2.220446049250313e-16,
        0.0,
        0.0,
        0.0,
        0.0,
        1.0
      ],
      "name": "Sketchfab_model"
    },
    {
      "children": [
        2
      ],
      "name": "root"
    },
    {
      "children": [
        3
      ],
      "matrix": [
        1.0,
        0.0,
        0.0,
        0.0,
        0.0,
        2.220446049250313e-16,
        1.0,
        0.0,
        0.0,
        -1.0,
        2.220446049250313e-16,
        0.0,
        0.0,
        0.0,
        0.0,
        1.0
      ],
      "name": "GLTF_SceneRootNode"
    },
    {
      "children": [
        4,
        5,
        6,
        7,
        8,
        9,
        10,
        11,
        12,
        13,
        14,
        15,
        16,
        17,
        18,
        19,
        20
      ],
      "matrix": [
        1.0,
        0.0,
        0.0,
        0.0,
        0.0,
        1.0,
        0.0,
        0.0,
        0.0,
        0.0,
        1.0,
        0.0,
        -38.0,
        0.0,
        -12.0,
        1.0
      ],
      "name": "Plane_0"
    },
    {
      "mesh": 0,
      "name": "Object_4"
    },
    {
      "mesh": 1,
      "name": "Object_5"
    },
    {
      "mesh": 2,
      "name": "Object_6"
    },
    {
      "mesh": 3,
      "name": "Object_7"
    },
    {
      "mesh": 4,
      "name": "Object_8"
    },
    {
      "mesh": 5,
      "name": "Object_9"
    },
    {
      "mesh": 6,
      "name": "Object_10"
    },
    {
      "mesh": 7,
      "name": "Object_11"
    },
    {
      "mesh": 8,
      "name": "Object_12"
    },
    {
      "mesh": 9,
      "name": "Object_13"
    },
    {
      "mesh": 10,
      "name": "Object_14"
    },
    {
      "mesh": 11,
      "name": "Object_15"
    },
    {
      "mesh": 12,
      "name": "Object_16"
    },
    {
      "mesh": 13,
      "name": "Object_17"
    },
    {
      "mesh": 14,
      "name": "Object_18"
    },
    {
      "mesh": 15,
      "name": "Object_19"
    },
    {
      "mesh": 16,
      "name": "Object_20"
    }
  ],
  "samplers": [
    {
      "magFilter": 9729,
      "minFilter": 9987,
      "wrapS": 10497,
      "wrapT": 10497
    }
  ],
  "scene": 0,
  "scenes": [
    {
      "name": "Sketchfab_Scene",
      "nodes": [
        0
      ]
    }
  ],
  "textures": [
    {
      "sampler": 0,
      "source": 0
    },
    {
      "sampler": 0,
      "source": 1
    },
    {
      "sampler": 0,
      "source": 2
    },
    {
      "sampler": 0,
      "source": 3
    },
    {
      "sampler": 0,
      "source": 4
    },
    {
      "sampler": 0,
      "source": 5
    },
    {
      "sampler": 0,
      "source": 6
    },
    {
      "sampler": 0,
      "source": 7
    },
    {
      "sampler": 0,
      "source": 8
    },
    {
      "sampler": 0,
      "source": 9
    },
    {
      "sampler": 0,
      "source": 10
    },
    {
      "sampler": 0,
      "source": 11
    },
    {
      "sampler": 0,
      "source": 12
    },
    {
      "sampler": 0,
      "source": 13
    },
    {
      "sampler": 0,
      "source": 14
    },
    {
      "sampler": 0,
      "source": 15
    },
    {
      "sampler": 0,
      "source": 16
    }
  ]
}
