{
  "accessors": [
    {
      "bufferView": 2,
      "componentType": 5126,
      "count": 124,
      "max": [
        1.1595356464385986,
        2.0,
        0.9869071245193481
      ],
      "min": [
        -1.1595356464385986,
        -1.7583885192871094,
        -0.9869071245193481
      ],
      "type": "VEC3"
    },
    {
      "bufferView": 2,
      "byteOffset": 1488,
      "componentType": 5126,
      "count": 124,
      "max": [
        0.7220817804336548,
        1.0,
        1.0
      ],
      "min": [
        -0.7220817804336548,
        -1.0,
        -1.0
      ],
      "type": "VEC3"
    },
    {
      "bufferView": 3,
      "componentType": 5126,
      "count": 124,
      "max": [
        0.6902692914009094,
        1.0,
        1.0,
        1.0
      ],
      "min": [
        -1.0,
        -1.0,
        -1.0,
        1.0
      ],
      "type": "VEC4"
    },
    {
      "bufferView": 1,
      "componentType": 5126,
      "count": 124,
      "max": [
        0.9932191967964172,
        0.9930060505867004
      ],
      "min": [
        0.0011641944292932749,
        0.09890591353178024
      ],
      "type": "VEC2"
    },
    {
      "bufferView": 0,
      "componentType": 5125,
      "count": 192,
      "type": "SCALAR"
    },
    {
      "bufferView": 2,
      "byteOffset": 2976,
      "componentType": 5126,
      "count": 396,
      "max": [
        2.7973430156707764,
        2.0,
        0.9869071245193481
      ],
      "min": [
        -2.7973430156707764,
        -2.0,
        -0.9869071245193481
      ],
      "type": "VEC3"
    },
    {
      "bufferView": 2,
      "byteOffset": 7728,
      "componentType": 5126,
      "count": 396,
      "max": [
        1.0,
        1.0,
        1.0
      ],
      "min": [
        -1.0,
        -1.0,
        -1.0
      ],
      "type": "VEC3"
    },
    {
      "bufferView": 3,
      "byteOffset": 1984,
      "componentType": 5126,
      "count": 396,
      "max": [
        0.9563023447990417,
        1.0,
        1.0,
        1.0
      ],
      "min": [
        -1.0,
        -1.0,
        -1.0,
        1.0
      ],
      "type": "VEC4"
    },
    {
      "bufferView": 1,
      "byteOffset": 992,
      "componentType": 5126,
      "count": 396,
      "max": [
        0.9932191967964172,
        0.9933850765228271
      ],
      "min": [
        0.0011640590382739902,
        0.0011640590382739902
      ],
      "type": "VEC2"
    },
    {
      "bufferView": 0,
      "byteOffset": 768,
      "componentType": 5125,
      "count": 660,
      "type": "SCALAR"
    },
    {
      "bufferView": 2,
      "byteOffset": 12480,
      "componentType": 5126,
      "count": 316,
      "max": [
        0.9324530363082886,
        1.917920708656311,
        1.1059070825576782
      ],
      "min": [
        -0.9324530363082886,
        -1.804986596107483,
        -1.1059070825576782
      ],
      "type": "VEC3"
    },
    {
      "bufferView": 2,
      "byteOffset": 16272,
      "componentType": 5126,
      "count": 316,
      "max": [
        1.0,
        1.0,
        1.0
      ],
      "min": [
        -1.0,
        -1.0,
        -1.0
      ],
      "type": "VEC3"
    },
    {
      "bufferView": 3,
      "byteOffset": 8320,
      "componentType": 5126,
      "count": 316,
      "max": [
        1.0,
        1.0,
        1.0,
        1.0
      ],
      "min": [
        -1.0,
        -1.0,
        -1.0,
        1.0
      ],
      "type": "VEC4"
    },
    {
      "bufferView": 1,
      "byteOffset": 4160,
      "componentType": 5126,
      "count": 316,
      "max": [
        0.940654456615448,
        0.9748462438583374
      ],
      "min": [
        0.0011640590382739902,
        0.0011640590382739902
      ],
      "type": "VEC2"
    },
    {
      "bufferView": 0,
      "byteOffset": 3408,
      "componentType": 5125,
      "count": 744,
      "type": "SCALAR"
    },
    {
      "bufferView": 2,
      "byteOffset": 20064,
      "componentType": 5126,
      "count": 288,
      "max": [
        0.42678630352020264,
        0.29216712713241577,
        1.0641820430755615
      ],
      "min": [
        -4.314123630523682,
        -0.37868452072143555,
        -1.0641820430755615
      ],
      "type": "VEC3"
    },
    {
      "bufferView": 2,
      "byteOffset": 23520,
      "componentType": 5126,
      "count": 288,
      "max": [
        1.0,
        1.0,
        1.0
      ],
      "min": [
        -1.0,
        -0.9999884963035583,
        -1.0
      ],
      "type": "VEC3"
    },
    {
      "bufferView": 3,
      "byteOffset": 13376,
      "componentType": 5126,
      "count": 288,
      "max": [
        1.0,
        1.0,
        1.0,
        1.0
      ],
      "min": [
        -1.0,
        -1.0,
        -1.0,
        1.0
      ],
      "type": "VEC4"
    },
    {
      "bufferView": 1,
      "byteOffset": 6688,
      "componentType": 5126,
      "count": 288,
      "max": [
        0.9922483563423157,
        0.9879593849182129
      ],
      "min": [
        0.018828781321644783,
        0.0011640590382739902
      ],
      "type": "VEC2"
    },
    {
      "bufferView": 0,
      "byteOffset": 6384,
      "componentType": 5125,
      "count": 528,
      "type": "SCALAR"
    },
    {
      "bufferView": 2,
      "byteOffset": 26976,
      "componentType": 5126,
      "count": 448,
      "max": [
        0.20348668098449707,
        0.18982625007629395,
        0.21886734664440155
      ],
      "min": [
        -5.561199188232422,
        -3.949655055999756,
        -0.9926167130470276
      ],
      "type": "VEC3"
    },
    {
      "bufferView": 2,
      "byteOffset": 32352,
      "componentType": 5126,
      "count": 448,
      "max": [
        1.0,
        1.0,
        1.0
      ],
      "min": [
        -1.0,
        -1.0,
        -1.0
      ],
      "type": "VEC3"
    },
    {
      "bufferView": 3,
      "byteOffset": 17984,
      "componentType": 5126,
      "count": 448,
      "max": [
        1.0,
        1.0,
        1.0,
        1.0
      ],
      "min": [
        -1.0,
        -1.0,
        -1.0,
        1.0
      ],
      "type": "VEC4"
    },
    {
      "bufferView": 1,
      "byteOffset": 8992,
      "componentType": 5126,
      "count": 448,
      "max": [
        0.9988359212875366,
        0.9955638647079468
      ],
      "min": [
        0.0011640590382739902,
        0.0011640590382739902
      ],
      "type": "VEC2"
    },
    {
      "bufferView": 0,
      "byteOffset": 8496,
      "componentType": 5125,
      "count": 672,
      "type": "SCALAR"
    },
    {
      "bufferView": 2,
      "byteOffset": 37728,
      "componentType": 5126,
      "count": 192,
      "max": [
        0.37906399369239807,
        0.0876312255859375,
        0.25590020418167114
      ],
      "min": [
        -3.7507104873657227,
        -0.059265851974487305,
        -1.7237982749938965
      ],
      "type": "VEC3"
    },
    {
      "bufferView": 2,
      "byteOffset": 40032,
      "componentType": 5126,
      "count": 192,
      "max": [
        1.0,
        1.0,
        1.0
      ],
      "min": [
        -1.0,
        -1.0,
        -1.0
      ],
      "type": "VEC3"
    },
    {
      "bufferView": 3,
      "byteOffset": 25152,
      "componentType": 5126,
      "count": 192,
      "max": [
        1.0,
        1.0,
        1.0,
        1.0
      ],
      "min": [
        -1.0,
        -1.0,
        -1.0,
        1.0
      ],
      "type": "VEC4"
    },
    {
      "bufferView": 1,
      "byteOffset": 12576,
      "componentType": 5126,
      "count": 192,
      "max": [
        0.9930029511451721,
        0.9842309951782227
      ],
      "min": [
        0.17867141962051392,
        0.0011640590382739902
      ],
      "type": "VEC2"
    },
    {
      "bufferView": 0,
      "byteOffset": 11184,
      "componentType": 5125,
      "count": 336,
      "type": "SCALAR"
    },
    {
      "bufferView": 2,
      "byteOffset": 42336,
      "componentType": 5126,
      "count": 260,
      "max": [
        0.38465484976768494,
        0.09871949255466461,
        0.098719522356987
      ],
      "min": [
        -3.7547144889831543,
        -0.09871949255466461,
        -0.098719522356987
      ],
      "type": "VEC3"
    },
    {
      "bufferView": 2,
      "byteOffset": 45456,
      "componentType": 5126,
      "count": 260,
      "max": [
        1.0,
        1.0,
        1.0
      ],
      "min": [
        -1.0,
        -1.0,
        -1.0
      ],
      "type": "VEC3"
    },
    {
      "bufferView": 3,
      "byteOffset": 28224,
      "componentType": 5126,
      "count": 260,
      "max": [
        1.0,
        9.93610046862159e-06,
        0.6344320774078369,
        1.0
      ],
      "min": [
        -1.0,
        -0.7730845212936401,
        -0.9569709897041321,
        1.0
      ],
      "type": "VEC4"
    },
    {
      "bufferView": 1,
      "byteOffset": 14112,
      "componentType": 5126,
      "count": 260,
      "max": [
        0.8378012180328369,
        0.9255334734916687
      ],
      "min": [
        0.0005155145772732794,
        0.0005155145772732794
      ],
      "type": "VEC2"
    },
    {
      "bufferView": 0,
      "byteOffset": 12528,
      "componentType": 5125,
      "count": 744,
      "type": "SCALAR"
    },
    {
      "bufferView": 2,
      "byteOffset": 48576,
      "componentType": 5126,
      "count": 522,
      "max": [
        0.4626813232898712,
        0.12720583379268646,
        0.12720586359500885
      ],
      "min": [
        -0.4626813232898712,
        -0.12720583379268646,
        -0.12720586359500885
      ],
      "type": "VEC3"
    },
    {
      "bufferView": 2,
      "byteOffset": 54840,
      "componentType": 5126,
      "count": 522,
      "max": [
        1.0,
        1.0,
        1.0
      ],
      "min": [
        -1.0,
        -1.0,
        -1.0
      ],
      "type": "VEC3"
    },
    {
      "bufferView": 3,
      "byteOffset": 32384,
      "componentType": 5126,
      "count": 522,
      "max": [
        1.0,
        0.9865522980690002,
        0.9569408297538757,
        1.0
      ],
      "min": [
        -1.0,
        -0.9569563865661621,
        -0.4607105255126953,
        1.0
      ],
      "type": "VEC4"
    },
    {
      "bufferView": 1,
      "byteOffset": 16192,
      "componentType": 5126,
      "count": 522,
      "max": [
        0.9743240475654602,
        0.933814287185669
      ],
      "min": [
        0.0005155145772732794,
        0.0005155145772732794
      ],
      "type": "VEC2"
    },
    {
      "bufferView": 0,
      "byteOffset": 15504,
      "componentType": 5125,
      "count": 1524,
      "type": "SCALAR"
    },
    {
      "bufferView": 2,
      "byteOffset": 61104,
      "componentType": 5126,
      "count": 96,
      "max": [
        0.7329570055007935,
        2.070059299468994,
        1.024641752243042
      ],
      "min": [
        -0.7329570055007935,
        1.9260333776474,
        -1.024641752243042
      ],
      "type": "VEC3"
    },
    {
      "bufferView": 2,
      "byteOffset": 62256,
      "componentType": 5126,
      "count": 96,
      "max": [
        1.0,
        1.0,
        1.0
      ],
      "min": [
        -1.0,
        -1.0,
        -1.0
      ],
      "type": "VEC3"
    },
    {
      "bufferView": 3,
      "byteOffset": 40736,
      "componentType": 5126,
      "count": 96,
      "max": [
        1.0,
        1.0,
        0.07980118691921234,
        1.0
      ],
      "min": [
        -1.0,
        -0.9999827742576599,
        -1.0,
        1.0
      ],
      "type": "VEC4"
    },
    {
      "bufferView": 1,
      "byteOffset": 20368,
      "componentType": 5126,
      "count": 96,
      "max": [
        0.9788474440574646,
        0.9465304017066956
      ],
      "min": [
        0.07118796557188034,
        0.0011640590382739902
      ],
      "type": "VEC2"
    },
    {
      "bufferView": 0,
      "byteOffset": 21600,
      "componentType": 5125,
      "count": 168,
      "type": "SCALAR"
    },
    {
      "bufferView": 2,
      "byteOffset": 63408,
      "componentType": 5126,
      "count": 176,
      "max": [
        0.3912956416606903,
        -1.6300458908081055,
        0.5103135704994202
      ],
      "min": [
        -0.3912956714630127,
        -1.8049864768981934,
        -0.5103135704994202
      ],
      "type": "VEC3"
    },
    {
      "bufferView": 2,
      "byteOffset": 65520,
      "componentType": 5126,
      "count": 176,
      "max": [
        1.0,
        1.0,
        0.9986984729766846
      ],
      "min": [
        -1.0,
        -1.0,
        -0.9986984729766846
      ],
      "type": "VEC3"
    },
    {
      "bufferView": 3,
      "byteOffset": 42272,
      "componentType": 5126,
      "count": 176,
      "max": [
        0.7071071863174438,
        1.0,
        1.0,
        1.0
      ],
      "min": [
        -1.0,
        -1.0,
        -1.0,
        1.0
      ],
      "type": "VEC4"
    },
    {
      "bufferView": 1,
      "byteOffset": 21136,
      "componentType": 5126,
      "count": 176,
      "max": [
        0.9713886976242065,
        0.9791008234024048
      ],
      "min": [
        0.036688387393951416,
        0.27722427248954773
      ],
      "type": "VEC2"
    },
    {
      "bufferView": 0,
      "byteOffset": 22272,
      "componentType": 5125,
      "count": 456,
      "type": "SCALAR"
    },
    {
      "bufferView": 2,
      "byteOffset": 67632,
      "componentType": 5126,
      "count": 60,
      "max": [
        0.270284503698349,
        -0.2509140372276306,
        0.06902241706848145
      ],
      "min": [
        -4.15762186050415,
        -0.3723069727420807,
        0.00021092593669891357
      ],
      "type": "VEC3"
    },
    {
      "bufferView": 2,
      "byteOffset": 68352,
      "componentType": 5126,
      "count": 60,
      "max": [
        1.0,
        0.9999875426292419,
        0.9999914765357971
      ],
      "min": [
        -1.0,
        -0.9999843835830688,
        -0.9999914765357971
      ],
      "type": "VEC3"
    },
    {
      "bufferView": 3,
      "byteOffset": 45088,
      "componentType": 5126,
      "count": 60,
      "max": [
        3.4895629141828977e-07,
        0.9999914765357971,
        0.9999914765357971,
        1.0
      ],
      "min": [
        -1.0,
        -0.9999914169311523,
        -0.9999914765357971,
        1.0
      ],
      "type": "VEC4"
    },
    {
      "bufferView": 1,
      "byteOffset": 22544,
      "componentType": 5126,
      "count": 60,
      "max": [
        0.9760295152664185,
        0.9799566268920898
      ],
      "min": [
        0.2170283943414688,
        0.0005155145772732794
      ],
      "type": "VEC2"
    },
    {
      "bufferView": 0,
      "byteOffset": 24096,
      "componentType": 5125,
      "count": 96,
      "type": "SCALAR"
    },
    {
      "bufferView": 2,
      "byteOffset": 69072,
      "componentType": 5126,
      "count": 60,
      "max": [
        0.270284503698349,
        -0.2509140372276306,
        -0.008246200159192085
      ],
      "min": [
        -4.15445613861084,
        -0.3723069727420807,
        -0.07705794274806976
      ],
      "type": "VEC3"
    },
    {
      "bufferView": 2,
      "byteOffset": 69792,
      "componentType": 5126,
      "count": 60,
      "max": [
        1.0,
        0.9999875426292419,
        0.9999914765357971
      ],
      "min": [
        -1.0,
        -0.9999843835830688,
        -0.9999914765357971
      ],
      "type": "VEC3"
    },
    {
      "bufferView": 3,
      "byteOffset": 46048,
      "componentType": 5126,
      "count": 60,
      "max": [
        1.0,
        0.9999914765357971,
        0.9999915361404419,
        1.0
      ],
      "min": [
        -1.0,
        -0.6136385202407837,
        -0.9999915361404419,
        1.0
      ],
      "type": "VEC4"
    },
    {
      "bufferView": 1,
      "byteOffset": 23024,
      "componentType": 5126,
      "count": 60,
      "max": [
        0.9994844794273376,
        0.9919362664222717
      ],
      "min": [
        0.0005155145772732794,
        0.0005155145772732794
      ],
      "type": "VEC2"
    },
    {
      "bufferView": 0,
      "byteOffset": 24480,
      "componentType": 5125,
      "count": 96,
      "type": "SCALAR"
    }
  ],
  "asset": {
    "extras": {
      "author": "paladin402 (https://sketchfab.com/paladin402)",
      "license": "CC-BY-4.0 (http://creativecommons.org/licenses/by/4.0/)",
      "source": "https://sketchfab.com/3d-models/med-kit-red-4254dea2a29242629acbd266334ca578",
      "title": "Med Kit Red"
    },
    "generator": "Sketchfab-15.9.0",
    "version": "2.0"
  },
  "bufferViews": [
    {
      "buffer": 0,
      "byteLength": 24864,
      "name": "floatBufferViews",
      "target": 34963
    },
    {
      "buffer": 0,
      "byteLength": 23504,
      "byteOffset": 24864,
      "byteStride": 8,
      "name": "floatBufferViews",
      "target": 34962
    },
    {
      "buffer": 0,
      "byteLength": 70512,
      "byteOffset": 48368,
      "byteStride": 12,
      "name": "floatBufferViews",
      "target": 34962
    },
    {
      "buffer": 0,
      "byteLength": 47008,
      "byteOffset": 118880,
      "byteStride": 16,
      "name": "floatBufferViews",
      "target": 34962
    }
  ],
  "buffers": [
    {
      "byteLength": 165888,
      "uri": "scene.bin"
    }
  ],
  "images": [
    {
      "uri": "textures/white_baseColor.png"
    },
    {
      "uri": "textures/white_metallicRoughness.png"
    },
    {
      "uri": "textures/white_normal.png"
    },
    {
      "uri": "textures/material_baseColor.png"
    },
    {
      "uri": "textures/material_metallicRoughness.png"
    },
    {
      "uri": "textures/material_normal.png"
    },
    {
      "uri": "textures/grey_baseColor.png"
    },
    {
      "uri": "textures/grey_metallicRoughness.png"
    },
    {
      "uri": "textures/grey_normal.png"
    }
  ],
  "materials": [
    {
      "doubleSided": true,
      "name": "white",
      "normalTexture": {
        "index": 2
      },
      "pbrMetallicRoughness": {
        "baseColorTexture": {
          "index": 0
        },
        "metallicRoughnessTexture": {
          "index": 1
        }
      }
    },
    {
      "doubleSided": true,
      "name": "material",
      "normalTexture": {
        "index": 5
      },
      "pbrMetallicRoughness": {
        "baseColorTexture": {
          "index": 3
        },
        "metallicRoughnessTexture": {
          "index": 4
        }
      }
    },
    {
      "doubleSided": true,
      "name": "grey",
      "normalTexture": {
        "index": 8
      },
      "pbrMetallicRoughness": {
        "baseColorTexture": {
          "index": 6
        },
        "metallicRoughnessTexture": {
          "index": 7
        }
      }
    }
  ],
  "meshes": [
    {
      "name": "Cube_low_white_0",
      "primitives": [
        {
          "attributes": {
            "NORMAL": 1,
            "POSITION": 0,
            "TANGENT": 2,
            "TEXCOORD_0": 3
          },
          "indices": 4,
          "material": 0,
          "mode": 4
        }
      ]
    },
    {
      "name": "Cube_low_red__0",
      "primitives": [
        {
          "attributes": {
            "NORMAL": 6,
            "POSITION": 5,
            "TANGENT": 7,
            "TEXCOORD_0": 8
          },
          "indices": 9,
          "material": 1,
          "mode": 4
        }
      ]
    },
    {
      "name": "Cube_Plate_low_white_0",
      "primitives": [
        {
          "attributes": {
            "NORMAL": 11,
            "POSITION": 10,
            "TANGENT": 12,
            "TEXCOORD_0": 13
          },
          "indices": 14,
          "material": 0,
          "mode": 4
        }
      ]
    },
    {
      "name": "Cube_Plate.001_low_red__0",
      "primitives": [
        {
          "attributes": {
            "NORMAL": 16,
            "POSITION": 15,
            "TANGENT": 17,
            "TEXCOORD_0": 18
          },
          "indices": 19,
          "material": 1,
          "mode": 4
        }
      ]
    },
    {
      "name": "Cube_Plate.002_low_red__0",
      "primitives": [
        {
          "attributes": {
            "NORMAL": 21,
            "POSITION": 20,
            "TANGENT": 22,
            "TEXCOORD_0": 23
          },
          "indices": 24,
          "material": 1,
          "mode": 4
        }
      ]
    },
    {
      "name": "Cube_Plate.004_low_red__0",
      "primitives": [
        {
          "attributes": {
            "NORMAL": 26,
            "POSITION": 25,
            "TANGENT": 27,
            "TEXCOORD_0": 28
          },
          "indices": 29,
          "material": 1,
          "mode": 4
        }
      ]
    },
    {
      "name": "Cylinder_low_grey_0",
      "primitives": [
        {
          "attributes": {
            "NORMAL": 31,
            "POSITION": 30,
            "TANGENT": 32,
            "TEXCOORD_0": 33
          },
          "indices": 34,
          "material": 2,
          "mode": 4
        }
      ]
    },
    {
      "name": "Cylinder.001_low_grey_0",
      "primitives": [
        {
          "attributes": {
            "NORMAL": 36,
            "POSITION": 35,
            "TANGENT": 37,
            "TEXCOORD_0": 38
          },
          "indices": 39,
          "material": 2,
          "mode": 4
        }
      ]
    },
    {
      "name": "Cube_Plate.003_low_white_0",
      "primitives": [
        {
          "attributes": {
            "NORMAL": 41,
            "POSITION": 40,
            "TANGENT": 42,
            "TEXCOORD_0": 43
          },
          "indices": 44,
          "material": 0,
          "mode": 4
        }
      ]
    },
    {
      "name": "Cube_Plate_m1_low_red__0",
      "primitives": [
        {
          "attributes": {
            "NORMAL": 46,
            "POSITION": 45,
            "TANGENT": 47,
            "TEXCOORD_0": 48
          },
          "indices": 49,
          "material": 1,
          "mode": 4
        }
      ]
    },
    {
      "name": "Cube_Castle_low_grey_0",
      "primitives": [
        {
          "attributes": {
            "NORMAL": 51,
            "POSITION": 50,
            "TANGENT": 52,
            "TEXCOORD_0": 53
          },
          "indices": 54,
          "material": 2,
          "mode": 4
        }
      ]
    },
    {
      "name": "Cube_Castle.001_low_grey_0",
      "primitives": [
        {
          "attributes": {
            "NORMAL": 56,
            "POSITION": 55,
            "TANGENT": 57,
            "TEXCOORD_0": 58
          },
          "indices": 59,
          "material": 2,
          "mode": 4
        }
      ]
    }
  ],
  "nodes": [
    {
      "children": [
        1
      ],
      "matrix": [
        1.0,
        0.0,
        0.0,
        0.0,
        0.0,
        2.220446049250313e-16,
        -1.0,
        0.0,
        0.0,
        1.0,
        2.220446049250313e-16,
        0.0,
        0.0,
        0.0,
        0.0,
        1.0
      ],
      "name": "Sketchfab_model"
    },
    {
      "children": [
        2
      ],
      "matrix": [
        0.009999999776482582,
        0.0,
        0.0,
        0.0,
        0.0,
        0.0,
        0.009999999776482582,
        0.0,
        0.0,
        -0.009999999776482582,
        0.0,
        0.0,
        0.0,
        0.0,
        0.0,
        1.0
      ],
      "name": "medical_kit_1_low.fbx"
    },
    {
      "children": [
        3,
        6,
        8,
        10,
        12,
        14,
        16,
        18,
        20,
        22,
        24
      ],
      "name": "RootNode"
    },
    {
      "children": [
        4,
        5
      ],
      "matrix": [
        100.0,
        0.0,
        0.0,
        0.0,
        0.0,
        -1.629206793918314e-05,
        -99.99999999999868,
        0.0,
        0.0,
        99.99999999999868,
        -1.629206793918314e-05,
        0.0,
        0.0,
        0.0,
        0.0,
        1.0
      ],
      "name": "Cube_low"
    },
    {
      "mesh": 0,
      "name": "Cube_low_white_0"
    },
    {
      "mesh": 1,
      "name": "Cube_low_red__0"
    },
    {
      "children": [
        7
      ],
      "matrix": [
        100.0,
        0.0,
        0.0,
        0.0,
        0.0,
        -1.629206793918314e-05,
        -99.99999999999868,
        0.0,
        0.0,
        99.99999999999868,
        -1.629206793918314e-05,
        0.0,
        0.0,
        0.0,
        0.0,
        1.0
      ],
      "name": "Cube_Plate_low"
    },
    {
      "mesh": 2,
      "name": "Cube_Plate_low_white_0"
    },
    {
      "children": [
        9
      ],
      "matrix": [
        100.0,
        0.0,
        0.0,
        0.0,
        0.0,
        -1.629206793918314e-05,
        -99.99999999999868,
        0.0,
        0.0,
        99.99999999999868,
        -1.629206793918314e-05,
        0.0,
        194.3668670654297,
        0.0,
        169.94920349121094,
        1.0
      ],
      "name": "Cube_Plate.001_low"
    },
    {
      "mesh": 3,
      "name": "Cube_Plate.001_low_red__0"
    },
    {
      "children": [
        11
      ],
      "matrix": [
        100.0,
        0.0,
        0.0,
        0.0,
        0.0,
        -1.629206793918314e-05,
        -99.99999999999868,
        0.0,
        0.0,
        99.99999999999868,
        -1.629206793918314e-05,
        0.0,
        267.8856506347656,
        38.687469482421875,
        -187.99142456054688,
        1.0
      ],
      "name": "Cube_Plate.002_low"
    },
    {
      "mesh": 4,
      "name": "Cube_Plate.002_low_red__0"
    },
    {
      "children": [
        13
      ],
      "matrix": [
        100.0,
        0.0,
        0.0,
        0.0,
        0.0,
        -1.629206793918314e-05,
        -99.99999999999868,
        0.0,
        0.0,
        99.99999999999868,
        -1.629206793918314e-05,
        0.0,
        168.58233642578125,
        73.3948974609375,
        -201.4432373046875,
        1.0
      ],
      "name": "Cube_Plate.004_low"
    },
    {
      "mesh": 5,
      "name": "Cube_Plate.004_low_red__0"
    },
    {
      "children": [
        15
      ],
      "matrix": [
        100.0,
        0.0,
        0.0,
        0.0,
        0.0,
        -1.629206793918314e-05,
        -99.99999999999868,
        0.0,
        0.0,
        99.99999999999868,
        -1.629206793918314e-05,
        0.0,
        168.50299072265625,
        0.0,
        -200.8751220703125,
        1.0
      ],
      "name": "Cylinder_low"
    },
    {
      "mesh": 6,
      "name": "Cylinder_low_grey_0"
    },
    {
      "children": [
        17
      ],
      "matrix": [
        100.0,
        0.0,
        0.0,
        0.0,
        0.0,
        -1.629206793918314e-05,
        -99.99999999999868,
        0.0,
        0.0,
        99.99999999999868,
        -1.629206793918314e-05,
        0.0,
        0.15828293561935425,
        0.0,
        167.48919677734375,
        1.0
      ],
      "name": "Cylinder.001_low"
    },
    {
      "mesh": 7,
      "name": "Cylinder.001_low_grey_0"
    },
    {
      "children": [
        19
      ],
      "matrix": [
        100.0,
        0.0,
        0.0,
        0.0,
        0.0,
        -1.629206793918314e-05,
        -99.99999999999868,
        0.0,
        0.0,
        99.99999999999868,
        -1.629206793918314e-05,
        0.0,
        0.0,
        0.0,
        0.0,
        1.0
      ],
      "name": "Cube_Plate.003_low"
    },
    {
      "mesh": 8,
      "name": "Cube_Plate.003_low_white_0"
    },
    {
      "children": [
        21
      ],
      "matrix": [
        100.0,
        0.0,
        0.0,
        0.0,
        0.0,
        -1.629206793918314e-05,
        -99.99999999999868,
        0.0,
        0.0,
        99.99999999999868,
        -1.629206793918314e-05,
        0.0,
        0.0,
        0.0,
        0.0,
        1.0
      ],
      "name": "Cube_Plate_m1_low"
    },
    {
      "mesh": 9,
      "name": "Cube_Plate_m1_low_red__0"
    },
    {
      "children": [
        23
      ],
      "matrix": [
        100.0,
        0.0,
        0.0,
        0.0,
        0.0,
        -1.629206793918314e-05,
        -99.99999999999868,
        0.0,
        0.0,
        99.99999999999868,
        -1.629206793918314e-05,
        0.0,
        194.3668670654297,
        0.4017765522003174,
        175.7410430908203,
        1.0
      ],
      "name": "Cube_Castle_low"
    },
    {
      "mesh": 10,
      "name": "Cube_Castle_low_grey_0"
    },
    {
      "children": [
        25
      ],
      "matrix": [
        100.0,
        0.0,
        0.0,
        0.0,
        0.0,
        -1.629206793918314e-05,
        -99.99999999999868,
        0.0,
        0.0,
        99.99999999999868,
        -1.629206793918314e-05,
        0.0,
        194.3668670654297,
        0.4017765522003174,
        175.7410430908203,
        1.0
      ],
      "name": "Cube_Castle.001_low"
    },
    {
      "mesh": 11,
      "name": "Cube_Castle.001_low_grey_0"
    }
  ],
  "samplers": [
    {
      "magFilter": 9729,
      "minFilter": 9987,
      "wrapS": 10497,
      "wrapT": 10497
    }
  ],
  "scene": 0,
  "scenes": [
    {
      "name": "Sketchfab_Scene",
      "nodes": [
        0
      ]
    }
  ],
  "textures": [
    {
      "sampler": 0,
      "source": 0
    },
    {
      "sampler": 0,
      "source": 1
    },
    {
      "sampler": 0,
      "source": 2
    },
    {
      "sampler": 0,
      "source": 3
    },
    {
      "sampler": 0,
      "source": 4
    },
    {
      "sampler": 0,
      "source": 5
    },
    {
      "sampler": 0,
      "source": 6
    },
    {
      "sampler": 0,
      "source": 7
    },
    {
      "sampler": 0,
      "source": 8
    }
  ]
}
